<?xml version="1.0" encoding="UTF-8" standalone="no"?><svg xmlns="http://www.w3.org/2000/svg" xmlns:xlink="http://www.w3.org/1999/xlink" clip-rule="evenodd" stroke-miterlimit="4.00" viewBox="0 0 1920 1080"><desc>SVG generated by Keynote</desc><defs></defs><g transform="matrix(1.00, 0.00, -0.00, -1.00, 0.0, 1080.0)"><path d="M 0.0 1080.0 L 1920.0 1080.0 L 1920.0 0.0 L 0.0 0.0 Z M 0.0 1080.0 " fill="#FEFFFE"></path><text xml:space="preserve" font-family="Menlo-Regular" font-size="40.0" fill="#6A8188" transform="matrix(1.00, 0.00, -0.00, -1.00, 197.0, 737.0)">p</text><text xml:space="preserve" font-family="Menlo-Regular" font-size="40.0" fill="#778D95" transform="matrix(1.00, 0.00, -0.00, -1.00, 221.1, 737.0)">a</text><text xml:space="preserve" font-family="Menlo-Regular" font-size="40.0" fill="#778D95" transform="matrix(1.00, 0.00, -0.00, -1.00, 245.2, 737.0)">t</text><text xml:space="preserve" font-family="Menlo-Regular" font-size="40.0" fill="#778D95" transform="matrix(1.00, 0.00, -0.00, -1.00, 269.3, 737.0)">h</text><text xml:space="preserve" font-family="Menlo-Regular" font-size="40.0" fill="#778D95" transform="matrix(1.00, 0.00, -0.00, -1.00, 293.3, 737.0)">.</text><text xml:space="preserve" font-family="Menlo-Regular" font-size="40.0" fill="#778D95" transform="matrix(1.00, 0.00, -0.00, -1.00, 317.4, 737.0)">f</text><text xml:space="preserve" font-family="Menlo-Regular" font-size="40.0" fill="#778D95" transform="matrix(1.00, 0.00, -0.00, -1.00, 341.5, 737.0)">i</text><text xml:space="preserve" font-family="Menlo-Regular" font-size="40.0" fill="#778D95" transform="matrix(1.00, 0.00, -0.00, -1.00, 365.6, 737.0)">n</text><text xml:space="preserve" font-family="Menlo-Regular" font-size="40.0" fill="#778D95" transform="matrix(1.00, 0.00, -0.00, -1.00, 389.7, 737.0)">d</text><text xml:space="preserve" font-family="Menlo-Regular" font-size="40.0" fill="#778D95" transform="matrix(1.00, 0.00, -0.00, -1.00, 413.8, 737.0)">P</text><text xml:space="preserve" font-family="Menlo-Regular" font-size="40.0" fill="#778D95" transform="matrix(1.00, 0.00, -0.00, -1.00, 437.9, 737.0)">a</text><text xml:space="preserve" font-family="Menlo-Regular" font-size="40.0" fill="#778D95" transform="matrix(1.00, 0.00, -0.00, -1.00, 461.9, 737.0)">r</text><text xml:space="preserve" font-family="Menlo-Regular" font-size="40.0" fill="#778D95" transform="matrix(1.00, 0.00, -0.00, -1.00, 486.0, 737.0)">e</text><text xml:space="preserve" font-family="Menlo-Regular" font-size="40.0" fill="#778D95" transform="matrix(1.00, 0.00, -0.00, -1.00, 510.1, 737.0)">n</text><text xml:space="preserve" font-family="Menlo-Regular" font-size="40.0" fill="#778D95" transform="matrix(1.00, 0.00, -0.00, -1.00, 534.2, 737.0)">t</text><text xml:space="preserve" font-family="Menlo-Regular" font-size="40.0" fill="#778D95" transform="matrix(1.00, 0.00, -0.00, -1.00, 558.3, 737.0)">(</text><text xml:space="preserve" font-family="Menlo-Regular" font-size="40.0" fill="#778D95" transform="matrix(1.00, 0.00, -0.00, -1.00, 582.4, 737.0)">c</text><text xml:space="preserve" font-family="Menlo-Regular" font-size="40.0" fill="#778D95" transform="matrix(1.00, 0.00, -0.00, -1.00, 606.5, 737.0)">b</text><text xml:space="preserve" font-family="Menlo-Regular" font-size="40.0" fill="#778D95" transform="matrix(1.00, 0.00, -0.00, -1.00, 630.5, 737.0)">)</text><text xml:space="preserve" font-family="Menlo-Regular" font-size="40.0" fill="#778D95" transform="matrix(1.00, 0.00, -0.00, -1.00, 654.6, 737.0)">;</text><text xml:space="preserve" font-family="Menlo-Regular" font-size="40.0" fill="#778D95" transform="matrix(1.00, 0.00, -0.00, -1.00, 678.7, 737.0)"> </text><text xml:space="preserve" font-family="Menlo-Regular" font-size="40.0" fill="#778D95" transform="matrix(1.00, 0.00, -0.00, -1.00, 197.0, 691.0)">p</text><text xml:space="preserve" font-family="Menlo-Regular" font-size="40.0" fill="#778D95" transform="matrix(1.00, 0.00, -0.00, -1.00, 221.1, 691.0)">a</text><text xml:space="preserve" font-family="Menlo-Regular" font-size="40.0" fill="#778D95" transform="matrix(1.00, 0.00, -0.00, -1.00, 245.2, 691.0)">t</text><text xml:space="preserve" font-family="Menlo-Regular" font-size="40.0" fill="#778D95" transform="matrix(1.00, 0.00, -0.00, -1.00, 269.3, 691.0)">h</text><text xml:space="preserve" font-family="Menlo-Regular" font-size="40.0" fill="#778D95" transform="matrix(1.00, 0.00, -0.00, -1.00, 293.3, 691.0)">.</text><text xml:space="preserve" font-family="Menlo-Regular" font-size="40.0" fill="#778D95" transform="matrix(1.00, 0.00, -0.00, -1.00, 317.4, 691.0)">g</text><text xml:space="preserve" font-family="Menlo-Regular" font-size="40.0" fill="#778D95" transform="matrix(1.00, 0.00, -0.00, -1.00, 341.5, 691.0)">e</text><text xml:space="preserve" font-family="Menlo-Regular" font-size="40.0" fill="#778D95" transform="matrix(1.00, 0.00, -0.00, -1.00, 365.6, 691.0)">t</text><text xml:space="preserve" font-family="Menlo-Regular" font-size="40.0" fill="#778D95" transform="matrix(1.00, 0.00, -0.00, -1.00, 389.7, 691.0)">A</text><text xml:space="preserve" font-family="Menlo-Regular" font-size="40.0" fill="#778D95" transform="matrix(1.00, 0.00, -0.00, -1.00, 413.8, 691.0)">n</text><text xml:space="preserve" font-family="Menlo-Regular" font-size="40.0" fill="#778D95" transform="matrix(1.00, 0.00, -0.00, -1.00, 437.9, 691.0)">c</text><text xml:space="preserve" font-family="Menlo-Regular" font-size="40.0" fill="#778D95" transform="matrix(1.00, 0.00, -0.00, -1.00, 461.9, 691.0)">e</text><text xml:space="preserve" font-family="Menlo-Regular" font-size="40.0" fill="#778D95" transform="matrix(1.00, 0.00, -0.00, -1.00, 486.0, 691.0)">s</text><text xml:space="preserve" font-family="Menlo-Regular" font-size="40.0" fill="#778D95" transform="matrix(1.00, 0.00, -0.00, -1.00, 510.1, 691.0)">t</text><text xml:space="preserve" font-family="Menlo-Regular" font-size="40.0" fill="#778D95" transform="matrix(1.00, 0.00, -0.00, -1.00, 534.2, 691.0)">r</text><text xml:space="preserve" font-family="Menlo-Regular" font-size="40.0" fill="#778D95" transform="matrix(1.00, 0.00, -0.00, -1.00, 558.3, 691.0)">y</text><text xml:space="preserve" font-family="Menlo-Regular" font-size="40.0" fill="#778D95" transform="matrix(1.00, 0.00, -0.00, -1.00, 582.3, 691.0)">(</text><text xml:space="preserve" font-family="Menlo-Regular" font-size="40.0" fill="#778D95" transform="matrix(1.00, 0.00, -0.00, -1.00, 606.4, 691.0)">)</text><text xml:space="preserve" font-family="Menlo-Regular" font-size="40.0" fill="#778D95" transform="matrix(1.00, 0.00, -0.00, -1.00, 630.5, 691.0)">;</text><text xml:space="preserve" font-family="Menlo-Regular" font-size="40.0" fill="#778D95" transform="matrix(1.00, 0.00, -0.00, -1.00, 654.6, 691.0)"> </text><text xml:space="preserve" font-family="Menlo-Regular" font-size="40.0" fill="#778D95" transform="matrix(1.00, 0.00, -0.00, -1.00, 197.0, 645.0)">p</text><text xml:space="preserve" font-family="Menlo-Regular" font-size="40.0" fill="#778D95" transform="matrix(1.00, 0.00, -0.00, -1.00, 221.1, 645.0)">a</text><text xml:space="preserve" font-family="Menlo-Regular" font-size="40.0" fill="#778D95" transform="matrix(1.00, 0.00, -0.00, -1.00, 245.2, 645.0)">t</text><text xml:space="preserve" font-family="Menlo-Regular" font-size="40.0" fill="#778D95" transform="matrix(1.00, 0.00, -0.00, -1.00, 269.3, 645.0)">h</text><text xml:space="preserve" font-family="Menlo-Regular" font-size="40.0" fill="#778D95" transform="matrix(1.00, 0.00, -0.00, -1.00, 293.3, 645.0)">.</text><text xml:space="preserve" font-family="Menlo-Regular" font-size="40.0" fill="#778D95" transform="matrix(1.00, 0.00, -0.00, -1.00, 317.4, 645.0)">g</text><text xml:space="preserve" font-family="Menlo-Regular" font-size="40.0" fill="#778D95" transform="matrix(1.00, 0.00, -0.00, -1.00, 341.5, 645.0)">e</text><text xml:space="preserve" font-family="Menlo-Regular" font-size="40.0" fill="#778D95" transform="matrix(1.00, 0.00, -0.00, -1.00, 365.6, 645.0)">t</text><text xml:space="preserve" font-family="Menlo-Regular" font-size="40.0" fill="#778D95" transform="matrix(1.00, 0.00, -0.00, -1.00, 389.7, 645.0)">S</text><text xml:space="preserve" font-family="Menlo-Regular" font-size="40.0" fill="#778D95" transform="matrix(1.00, 0.00, -0.00, -1.00, 413.8, 645.0)">i</text><text xml:space="preserve" font-family="Menlo-Regular" font-size="40.0" fill="#778D95" transform="matrix(1.00, 0.00, -0.00, -1.00, 437.9, 645.0)">b</text><text xml:space="preserve" font-family="Menlo-Regular" font-size="40.0" fill="#778D95" transform="matrix(1.00, 0.00, -0.00, -1.00, 461.9, 645.0)">l</text><text xml:space="preserve" font-family="Menlo-Regular" font-size="40.0" fill="#778D95" transform="matrix(1.00, 0.00, -0.00, -1.00, 486.0, 645.0)">i</text><text xml:space="preserve" font-family="Menlo-Regular" font-size="40.0" fill="#778D95" transform="matrix(1.00, 0.00, -0.00, -1.00, 510.1, 645.0)">n</text><text xml:space="preserve" font-family="Menlo-Regular" font-size="40.0" fill="#778D95" transform="matrix(1.00, 0.00, -0.00, -1.00, 534.2, 645.0)">g</text><text xml:space="preserve" font-family="Menlo-Regular" font-size="40.0" fill="#778D95" transform="matrix(1.00, 0.00, -0.00, -1.00, 558.2, 645.0)">(</text><text xml:space="preserve" font-family="Menlo-Regular" font-size="40.0" fill="#778D95" transform="matrix(1.00, 0.00, -0.00, -1.00, 582.3, 645.0)">k</text><text xml:space="preserve" font-family="Menlo-Regular" font-size="40.0" fill="#778D95" transform="matrix(1.00, 0.00, -0.00, -1.00, 606.4, 645.0)">e</text><text xml:space="preserve" font-family="Menlo-Regular" font-size="40.0" fill="#778D95" transform="matrix(1.00, 0.00, -0.00, -1.00, 630.5, 645.0)">y</text><text xml:space="preserve" font-family="Menlo-Regular" font-size="40.0" fill="#778D95" transform="matrix(1.00, 0.00, -0.00, -1.00, 654.6, 645.0)">)</text><text xml:space="preserve" font-family="Menlo-Regular" font-size="40.0" fill="#778D95" transform="matrix(1.00, 0.00, -0.00, -1.00, 678.7, 645.0)">;</text><text xml:space="preserve" font-family="Menlo-Regular" font-size="40.0" fill="#6A8188" transform="matrix(1.00, 0.00, -0.00, -1.00, 1142.0, 737.0)">$</text><text xml:space="preserve" font-family="Menlo-Regular" font-size="40.0" fill="#6A8188" transform="matrix(1.00, 0.00, -0.00, -1.00, 1166.1, 737.0)">(</text><text xml:space="preserve" font-family="Menlo-Regular" font-size="40.0" fill="#6A8188" transform="matrix(1.00, 0.00, -0.00, -1.00, 1190.2, 737.0)">e</text><text xml:space="preserve" font-family="Menlo-Regular" font-size="40.0" fill="#6A8188" transform="matrix(1.00, 0.00, -0.00, -1.00, 1214.3, 737.0)">l</text><text xml:space="preserve" font-family="Menlo-Regular" font-size="40.0" fill="#6A8188" transform="matrix(1.00, 0.00, -0.00, -1.00, 1238.3, 737.0)">)</text><text xml:space="preserve" font-family="Menlo-Regular" font-size="40.0" fill="#6A8188" transform="matrix(1.00, 0.00, -0.00, -1.00, 1262.4, 737.0)">.</text><text xml:space="preserve" font-family="Menlo-Regular" font-size="40.0" fill="#6A8188" transform="matrix(1.00, 0.00, -0.00, -1.00, 1286.5, 737.0)">p</text><text xml:space="preserve" font-family="Menlo-Regular" font-size="40.0" fill="#6A8188" transform="matrix(1.00, 0.00, -0.00, -1.00, 1310.6, 737.0)">a</text><text xml:space="preserve" font-family="Menlo-Regular" font-size="40.0" fill="#6A8188" transform="matrix(1.00, 0.00, -0.00, -1.00, 1334.7, 737.0)">r</text><text xml:space="preserve" font-family="Menlo-Regular" font-size="40.0" fill="#6A8188" transform="matrix(1.00, 0.00, -0.00, -1.00, 1358.8, 737.0)">e</text><text xml:space="preserve" font-family="Menlo-Regular" font-size="40.0" fill="#6A8188" transform="matrix(1.00, 0.00, -0.00, -1.00, 1382.9, 737.0)">n</text><text xml:space="preserve" font-family="Menlo-Regular" font-size="40.0" fill="#6A8188" transform="matrix(1.00, 0.00, -0.00, -1.00, 1406.9, 737.0)">t</text><text xml:space="preserve" font-family="Menlo-Regular" font-size="40.0" fill="#6A8188" transform="matrix(1.00, 0.00, -0.00, -1.00, 1431.0, 737.0)">(</text><text xml:space="preserve" font-family="Menlo-Regular" font-size="40.0" fill="#6A8188" transform="matrix(1.00, 0.00, -0.00, -1.00, 1455.1, 737.0)">s</text><text xml:space="preserve" font-family="Menlo-Regular" font-size="40.0" fill="#6A8188" transform="matrix(1.00, 0.00, -0.00, -1.00, 1479.2, 737.0)">e</text><text xml:space="preserve" font-family="Menlo-Regular" font-size="40.0" fill="#6A8188" transform="matrix(1.00, 0.00, -0.00, -1.00, 1503.3, 737.0)">l</text><text xml:space="preserve" font-family="Menlo-Regular" font-size="40.0" fill="#6A8188" transform="matrix(1.00, 0.00, -0.00, -1.00, 1527.4, 737.0)">e</text><text xml:space="preserve" font-family="Menlo-Regular" font-size="40.0" fill="#6A8188" transform="matrix(1.00, 0.00, -0.00, -1.00, 1551.5, 737.0)">c</text><text xml:space="preserve" font-family="Menlo-Regular" font-size="40.0" fill="#6A8188" transform="matrix(1.00, 0.00, -0.00, -1.00, 1575.5, 737.0)">t</text><text xml:space="preserve" font-family="Menlo-Regular" font-size="40.0" fill="#6A8188" transform="matrix(1.00, 0.00, -0.00, -1.00, 1599.6, 737.0)">o</text><text xml:space="preserve" font-family="Menlo-Regular" font-size="40.0" fill="#6A8188" transform="matrix(1.00, 0.00, -0.00, -1.00, 1623.7, 737.0)">r</text><text xml:space="preserve" font-family="Menlo-Regular" font-size="40.0" fill="#6A8188" transform="matrix(1.00, 0.00, -0.00, -1.00, 1647.8, 737.0)">)</text><text xml:space="preserve" font-family="Menlo-Regular" font-size="40.0" fill="#6A8188" transform="matrix(1.00, 0.00, -0.00, -1.00, 1671.9, 737.0)">;</text><text xml:space="preserve" font-family="Menlo-Regular" font-size="40.0" fill="#6A8188" transform="matrix(1.00, 0.00, -0.00, -1.00, 1696.0, 737.0)"> </text><text xml:space="preserve" font-family="Menlo-Regular" font-size="40.0" fill="#6A8188" transform="matrix(1.00, 0.00, -0.00, -1.00, 1142.0, 691.0)">$</text><text xml:space="preserve" font-family="Menlo-Regular" font-size="40.0" fill="#6A8188" transform="matrix(1.00, 0.00, -0.00, -1.00, 1166.1, 691.0)">(</text><text xml:space="preserve" font-family="Menlo-Regular" font-size="40.0" fill="#6A8188" transform="matrix(1.00, 0.00, -0.00, -1.00, 1190.2, 691.0)">e</text><text xml:space="preserve" font-family="Menlo-Regular" font-size="40.0" fill="#6A8188" transform="matrix(1.00, 0.00, -0.00, -1.00, 1214.3, 691.0)">l</text><text xml:space="preserve" font-family="Menlo-Regular" font-size="40.0" fill="#6A8188" transform="matrix(1.00, 0.00, -0.00, -1.00, 1238.3, 691.0)">)</text><text xml:space="preserve" font-family="Menlo-Regular" font-size="40.0" fill="#6A8188" transform="matrix(1.00, 0.00, -0.00, -1.00, 1262.4, 691.0)">.</text><text xml:space="preserve" font-family="Menlo-Regular" font-size="40.0" fill="#6A8188" transform="matrix(1.00, 0.00, -0.00, -1.00, 1286.5, 691.0)">p</text><text xml:space="preserve" font-family="Menlo-Regular" font-size="40.0" fill="#6A8188" transform="matrix(1.00, 0.00, -0.00, -1.00, 1310.6, 691.0)">a</text><text xml:space="preserve" font-family="Menlo-Regular" font-size="40.0" fill="#6A8188" transform="matrix(1.00, 0.00, -0.00, -1.00, 1334.7, 691.0)">r</text><text xml:space="preserve" font-family="Menlo-Regular" font-size="40.0" fill="#6A8188" transform="matrix(1.00, 0.00, -0.00, -1.00, 1358.8, 691.0)">e</text><text xml:space="preserve" font-family="Menlo-Regular" font-size="40.0" fill="#6A8188" transform="matrix(1.00, 0.00, -0.00, -1.00, 1382.9, 691.0)">n</text><text xml:space="preserve" font-family="Menlo-Regular" font-size="40.0" fill="#6A8188" transform="matrix(1.00, 0.00, -0.00, -1.00, 1406.9, 691.0)">t</text><text xml:space="preserve" font-family="Menlo-Regular" font-size="40.0" fill="#6A8188" transform="matrix(1.00, 0.00, -0.00, -1.00, 1431.0, 691.0)">s</text><text xml:space="preserve" font-family="Menlo-Regular" font-size="40.0" fill="#6A8188" transform="matrix(1.00, 0.00, -0.00, -1.00, 1455.1, 691.0)">(</text><text xml:space="preserve" font-family="Menlo-Regular" font-size="40.0" fill="#6A8188" transform="matrix(1.00, 0.00, -0.00, -1.00, 1479.2, 691.0)">s</text><text xml:space="preserve" font-family="Menlo-Regular" font-size="40.0" fill="#6A8188" transform="matrix(1.00, 0.00, -0.00, -1.00, 1503.3, 691.0)">e</text><text xml:space="preserve" font-family="Menlo-Regular" font-size="40.0" fill="#6A8188" transform="matrix(1.00, 0.00, -0.00, -1.00, 1527.4, 691.0)">l</text><text xml:space="preserve" font-family="Menlo-Regular" font-size="40.0" fill="#6A8188" transform="matrix(1.00, 0.00, -0.00, -1.00, 1551.5, 691.0)">e</text><text xml:space="preserve" font-family="Menlo-Regular" font-size="40.0" fill="#6A8188" transform="matrix(1.00, 0.00, -0.00, -1.00, 1575.5, 691.0)">c</text><text xml:space="preserve" font-family="Menlo-Regular" font-size="40.0" fill="#6A8188" transform="matrix(1.00, 0.00, -0.00, -1.00, 1599.6, 691.0)">t</text><text xml:space="preserve" font-family="Menlo-Regular" font-size="40.0" fill="#6A8188" transform="matrix(1.00, 0.00, -0.00, -1.00, 1623.7, 691.0)">o</text><text xml:space="preserve" font-family="Menlo-Regular" font-size="40.0" fill="#6A8188" transform="matrix(1.00, 0.00, -0.00, -1.00, 1647.8, 691.0)">r</text><text xml:space="preserve" font-family="Menlo-Regular" font-size="40.0" fill="#6A8188" transform="matrix(1.00, 0.00, -0.00, -1.00, 1671.9, 691.0)">)</text><text xml:space="preserve" font-family="Menlo-Regular" font-size="40.0" fill="#6A8188" transform="matrix(1.00, 0.00, -0.00, -1.00, 1696.0, 691.0)">;</text><text xml:space="preserve" font-family="Menlo-Regular" font-size="40.0" fill="#6A8188" transform="matrix(1.00, 0.00, -0.00, -1.00, 1720.1, 691.0)"> </text><text xml:space="preserve" font-family="Menlo-Regular" font-size="40.0" fill="#6A8188" transform="matrix(1.00, 0.00, -0.00, -1.00, 1142.0, 645.0)">$</text><text xml:space="preserve" font-family="Menlo-Regular" font-size="40.0" fill="#6A8188" transform="matrix(1.00, 0.00, -0.00, -1.00, 1166.1, 645.0)">(</text><text xml:space="preserve" font-family="Menlo-Regular" font-size="40.0" fill="#6A8188" transform="matrix(1.00, 0.00, -0.00, -1.00, 1190.2, 645.0)">e</text><text xml:space="preserve" font-family="Menlo-Regular" font-size="40.0" fill="#6A8188" transform="matrix(1.00, 0.00, -0.00, -1.00, 1214.3, 645.0)">l</text><text xml:space="preserve" font-family="Menlo-Regular" font-size="40.0" fill="#6A8188" transform="matrix(1.00, 0.00, -0.00, -1.00, 1238.3, 645.0)">)</text><text xml:space="preserve" font-family="Menlo-Regular" font-size="40.0" fill="#6A8188" transform="matrix(1.00, 0.00, -0.00, -1.00, 1262.4, 645.0)">.</text><text xml:space="preserve" font-family="Menlo-Regular" font-size="40.0" fill="#6A8188" transform="matrix(1.00, 0.00, -0.00, -1.00, 1286.5, 645.0)">s</text><text xml:space="preserve" font-family="Menlo-Regular" font-size="40.0" fill="#6A8188" transform="matrix(1.00, 0.00, -0.00, -1.00, 1310.6, 645.0)">i</text><text xml:space="preserve" font-family="Menlo-Regular" font-size="40.0" fill="#6A8188" transform="matrix(1.00, 0.00, -0.00, -1.00, 1334.7, 645.0)">b</text><text xml:space="preserve" font-family="Menlo-Regular" font-size="40.0" fill="#6A8188" transform="matrix(1.00, 0.00, -0.00, -1.00, 1358.8, 645.0)">l</text><text xml:space="preserve" font-family="Menlo-Regular" font-size="40.0" fill="#6A8188" transform="matrix(1.00, 0.00, -0.00, -1.00, 1382.9, 645.0)">i</text><text xml:space="preserve" font-family="Menlo-Regular" font-size="40.0" fill="#6A8188" transform="matrix(1.00, 0.00, -0.00, -1.00, 1406.9, 645.0)">n</text><text xml:space="preserve" font-family="Menlo-Regular" font-size="40.0" fill="#6A8188" transform="matrix(1.00, 0.00, -0.00, -1.00, 1431.0, 645.0)">g</text><text xml:space="preserve" font-family="Menlo-Regular" font-size="40.0" fill="#6A8188" transform="matrix(1.00, 0.00, -0.00, -1.00, 1455.1, 645.0)">s</text><text xml:space="preserve" font-family="Menlo-Regular" font-size="40.0" fill="#6A8188" transform="matrix(1.00, 0.00, -0.00, -1.00, 1479.2, 645.0)">(</text><text xml:space="preserve" font-family="Menlo-Regular" font-size="40.0" fill="#6A8188" transform="matrix(1.00, 0.00, -0.00, -1.00, 1503.3, 645.0)">)</text><text xml:space="preserve" font-family="Menlo-Regular" font-size="40.0" fill="#6A8188" transform="matrix(1.00, 0.00, -0.00, -1.00, 1527.4, 645.0)">;</text><text xml:space="preserve" font-family="HelveticaNeue-Light" font-size="50.0" fill="#000000" transform="matrix(1.00, 0.00, -0.00, -1.00, 763.0, 957.0)">T</text><text xml:space="preserve" font-family="HelveticaNeue-Light" font-size="50.0" fill="#000000" transform="matrix(1.00, 0.00, -0.00, -1.00, 786.2, 957.0)">r</text><text xml:space="preserve" font-family="HelveticaNeue-Light" font-size="50.0" fill="#000000" transform="matrix(1.00, 0.00, -0.00, -1.00, 802.0, 957.0)">a</text><text xml:space="preserve" font-family="HelveticaNeue-Light" font-size="50.0" fill="#000000" transform="matrix(1.00, 0.00, -0.00, -1.00, 827.9, 957.0)">v</text><text xml:space="preserve" font-family="HelveticaNeue-Light" font-size="50.0" fill="#000000" transform="matrix(1.00, 0.00, -0.00, -1.00, 851.0, 957.0)">e</text><text xml:space="preserve" font-family="HelveticaNeue-Light" font-size="50.0" fill="#000000" transform="matrix(1.00, 0.00, -0.00, -1.00, 877.0, 957.0)">r</text><text xml:space="preserve" font-family="HelveticaNeue-Light" font-size="50.0" fill="#000000" transform="matrix(1.00, 0.00, -0.00, -1.00, 892.8, 957.0)">s</text><text xml:space="preserve" font-family="HelveticaNeue-Light" font-size="50.0" fill="#000000" transform="matrix(1.00, 0.00, -0.00, -1.00, 916.8, 957.0)">a</text><text xml:space="preserve" font-family="HelveticaNeue-Light" font-size="50.0" fill="#000000" transform="matrix(1.00, 0.00, -0.00, -1.00, 942.8, 957.0)">l</text><text xml:space="preserve" font-family="HelveticaNeue-Light" font-size="50.0" fill="#000000" transform="matrix(1.00, 0.00, -0.00, -1.00, 952.0, 957.0)">/</text><text xml:space="preserve" font-family="HelveticaNeue-Light" font-size="50.0" fill="#000000" transform="matrix(1.00, 0.00, -0.00, -1.00, 968.6, 957.0)">A</text><text xml:space="preserve" font-family="HelveticaNeue-Light" font-size="50.0" fill="#000000" transform="matrix(1.00, 0.00, -0.00, -1.00, 1000.1, 957.0)">n</text><text xml:space="preserve" font-family="HelveticaNeue-Light" font-size="50.0" fill="#000000" transform="matrix(1.00, 0.00, -0.00, -1.00, 1027.0, 957.0)">c</text><text xml:space="preserve" font-family="HelveticaNeue-Light" font-size="50.0" fill="#000000" transform="matrix(1.00, 0.00, -0.00, -1.00, 1053.0, 957.0)">e</text><text xml:space="preserve" font-family="HelveticaNeue-Light" font-size="50.0" fill="#000000" transform="matrix(1.00, 0.00, -0.00, -1.00, 1078.9, 957.0)">s</text><text xml:space="preserve" font-family="HelveticaNeue-Light" font-size="50.0" fill="#000000" transform="matrix(1.00, 0.00, -0.00, -1.00, 1103.0, 957.0)">t</text><text xml:space="preserve" font-family="HelveticaNeue-Light" font-size="50.0" fill="#000000" transform="matrix(1.00, 0.00, -0.00, -1.00, 1117.8, 957.0)">r</text><text xml:space="preserve" font-family="HelveticaNeue-Light" font-size="50.0" fill="#000000" transform="matrix(1.00, 0.00, -0.00, -1.00, 1133.5, 957.0)">y</text><text xml:space="preserve" font-family="Menlo-Regular" font-size="40.0" fill="#778D95" transform="matrix(1.00, 0.00, -0.00, -1.00, 502.0, 835.0)">p</text><text xml:space="preserve" font-family="Menlo-Regular" font-size="40.0" fill="#778D95" transform="matrix(1.00, 0.00, -0.00, -1.00, 526.1, 835.0)">a</text><text xml:space="preserve" font-family="Menlo-Regular" font-size="40.0" fill="#778D95" transform="matrix(1.00, 0.00, -0.00, -1.00, 550.2, 835.0)">t</text><text xml:space="preserve" font-family="Menlo-Regular" font-size="40.0" fill="#778D95" transform="matrix(1.00, 0.00, -0.00, -1.00, 574.3, 835.0)">h</text><text xml:space="preserve" font-family="Menlo-Regular" font-size="40.0" fill="#778D95" transform="matrix(1.00, 0.00, -0.00, -1.00, 598.3, 835.0)">.</text><text xml:space="preserve" font-family="Menlo-Regular" font-size="40.0" fill="#778D95" transform="matrix(1.00, 0.00, -0.00, -1.00, 622.4, 835.0)">p</text><text xml:space="preserve" font-family="Menlo-Regular" font-size="40.0" fill="#778D95" transform="matrix(1.00, 0.00, -0.00, -1.00, 646.5, 835.0)">a</text><text xml:space="preserve" font-family="Menlo-Regular" font-size="40.0" fill="#778D95" transform="matrix(1.00, 0.00, -0.00, -1.00, 670.6, 835.0)">r</text><text xml:space="preserve" font-family="Menlo-Regular" font-size="40.0" fill="#778D95" transform="matrix(1.00, 0.00, -0.00, -1.00, 694.7, 835.0)">e</text><text xml:space="preserve" font-family="Menlo-Regular" font-size="40.0" fill="#778D95" transform="matrix(1.00, 0.00, -0.00, -1.00, 718.8, 835.0)">n</text><text xml:space="preserve" font-family="Menlo-Regular" font-size="40.0" fill="#778D95" transform="matrix(1.00, 0.00, -0.00, -1.00, 742.9, 835.0)">t</text><text xml:space="preserve" font-family="Menlo-Regular" font-size="40.0" fill="#778D95" transform="matrix(1.00, 0.00, -0.00, -1.00, 766.9, 835.0)">P</text><text xml:space="preserve" font-family="Menlo-Regular" font-size="40.0" fill="#778D95" transform="matrix(1.00, 0.00, -0.00, -1.00, 791.0, 835.0)">a</text><text xml:space="preserve" font-family="Menlo-Regular" font-size="40.0" fill="#778D95" transform="matrix(1.00, 0.00, -0.00, -1.00, 815.1, 835.0)">t</text><text xml:space="preserve" font-family="Menlo-Regular" font-size="40.0" fill="#778D95" transform="matrix(1.00, 0.00, -0.00, -1.00, 839.2, 835.0)">h</text><text xml:space="preserve" font-family="Menlo-Regular" font-size="40.0" fill="#778D95" transform="matrix(1.00, 0.00, -0.00, -1.00, 863.3, 835.0)">.</text><text xml:space="preserve" font-family="Menlo-Regular" font-size="40.0" fill="#778D95" transform="matrix(1.00, 0.00, -0.00, -1.00, 887.4, 835.0)">p</text><text xml:space="preserve" font-family="Menlo-Regular" font-size="40.0" fill="#778D95" transform="matrix(1.00, 0.00, -0.00, -1.00, 911.5, 835.0)">a</text><text xml:space="preserve" font-family="Menlo-Regular" font-size="40.0" fill="#778D95" transform="matrix(1.00, 0.00, -0.00, -1.00, 935.5, 835.0)">r</text><text xml:space="preserve" font-family="Menlo-Regular" font-size="40.0" fill="#778D95" transform="matrix(1.00, 0.00, -0.00, -1.00, 959.6, 835.0)">e</text><text xml:space="preserve" font-family="Menlo-Regular" font-size="40.0" fill="#778D95" transform="matrix(1.00, 0.00, -0.00, -1.00, 983.7, 835.0)">n</text><text xml:space="preserve" font-family="Menlo-Regular" font-size="40.0" fill="#778D95" transform="matrix(1.00, 0.00, -0.00, -1.00, 1007.8, 835.0)">t</text><text xml:space="preserve" font-family="Menlo-Regular" font-size="40.0" fill="#778D95" transform="matrix(1.00, 0.00, -0.00, -1.00, 1031.9, 835.0)">P</text><text xml:space="preserve" font-family="Menlo-Regular" font-size="40.0" fill="#778D95" transform="matrix(1.00, 0.00, -0.00, -1.00, 1056.0, 835.0)">a</text><text xml:space="preserve" font-family="Menlo-Regular" font-size="40.0" fill="#778D95" transform="matrix(1.00, 0.00, -0.00, -1.00, 1080.1, 835.0)">t</text><text xml:space="preserve" font-family="Menlo-Regular" font-size="40.0" fill="#778D95" transform="matrix(1.00, 0.00, -0.00, -1.00, 1104.2, 835.0)">h</text><text xml:space="preserve" font-family="Menlo-Regular" font-size="40.0" fill="#778D95" transform="matrix(1.00, 0.00, -0.00, -1.00, 1128.2, 835.0)">.</text><text xml:space="preserve" font-family="Menlo-Regular" font-size="40.0" fill="#778D95" transform="matrix(1.00, 0.00, -0.00, -1.00, 1152.3, 835.0)">p</text><text xml:space="preserve" font-family="Menlo-Regular" font-size="40.0" fill="#778D95" transform="matrix(1.00, 0.00, -0.00, -1.00, 1176.4, 835.0)">a</text><text xml:space="preserve" font-family="Menlo-Regular" font-size="40.0" fill="#778D95" transform="matrix(1.00, 0.00, -0.00, -1.00, 1200.5, 835.0)">r</text><text xml:space="preserve" font-family="Menlo-Regular" font-size="40.0" fill="#778D95" transform="matrix(1.00, 0.00, -0.00, -1.00, 1224.6, 835.0)">e</text><text xml:space="preserve" font-family="Menlo-Regular" font-size="40.0" fill="#778D95" transform="matrix(1.00, 0.00, -0.00, -1.00, 1248.7, 835.0)">n</text><text xml:space="preserve" font-family="Menlo-Regular" font-size="40.0" fill="#778D95" transform="matrix(1.00, 0.00, -0.00, -1.00, 1272.8, 835.0)">t</text><text xml:space="preserve" font-family="Menlo-Regular" font-size="40.0" fill="#778D95" transform="matrix(1.00, 0.00, -0.00, -1.00, 1296.8, 835.0)">P</text><text xml:space="preserve" font-family="Menlo-Regular" font-size="40.0" fill="#778D95" transform="matrix(1.00, 0.00, -0.00, -1.00, 1320.9, 835.0)">a</text><text xml:space="preserve" font-family="Menlo-Regular" font-size="40.0" fill="#778D95" transform="matrix(1.00, 0.00, -0.00, -1.00, 1345.0, 835.0)">t</text><text xml:space="preserve" font-family="Menlo-Regular" font-size="40.0" fill="#778D95" transform="matrix(1.00, 0.00, -0.00, -1.00, 1369.1, 835.0)">h</text><text xml:space="preserve" font-family="Menlo-Regular" font-size="40.0" fill="#778D95" transform="matrix(1.00, 0.00, -0.00, -1.00, 1393.2, 835.0)">…</text></g></svg>