<?xml version="1.0" encoding="UTF-8" standalone="no"?><svg xmlns="http://www.w3.org/2000/svg" xmlns:xlink="http://www.w3.org/1999/xlink" clip-rule="evenodd" stroke-miterlimit="4.00" viewBox="0 0 442 410"><desc>SVG generated by Keynote</desc><defs></defs><g transform="matrix(1.00, 0.00, -0.00, -1.00, 0.0, 410.0)"><path d="M 1.2 409.0 L 440.1 409.0 L 440.1 1.0 L 1.2 1.0 Z M 1.2 409.0 " fill="#DCC9B0"></path><g><clipPath id="clip-115"><path d="M -4.7 -4.9 L 860.6 -4.9 L 860.6 414.9 L -4.7 414.9 Z M -4.7 -4.9 "></path></clipPath><g clip-path="url(#clip-115)"><text xml:space="preserve" font-family="Menlo-Regular" font-size="34.0" fill="#6A8188" transform="matrix(1.00, 0.00, -0.00, -1.00, 5.0, 373.0)">{</text><text xml:space="preserve" font-family="Menlo-Regular" font-size="34.0" fill="#000000" transform="matrix(1.00, 0.00, -0.00, -1.00, 25.5, 373.0)"> </text><text xml:space="preserve" font-family="Menlo-Regular" font-size="34.0" fill="#000000" transform="matrix(1.00, 0.00, -0.00, -1.00, 5.0, 333.0)"> </text><text xml:space="preserve" font-family="Menlo-Regular" font-size="34.0" fill="#000000" transform="matrix(1.00, 0.00, -0.00, -1.00, 25.5, 333.0)"> </text><text xml:space="preserve" font-family="Menlo-Regular" font-size="34.0" fill="#E5493C" transform="matrix(1.00, 0.00, -0.00, -1.00, 45.9, 333.0)">"</text><text xml:space="preserve" font-family="Menlo-Regular" font-size="34.0" fill="#E5493C" transform="matrix(1.00, 0.00, -0.00, -1.00, 66.4, 333.0)">t</text><text xml:space="preserve" font-family="Menlo-Regular" font-size="34.0" fill="#E5493C" transform="matrix(1.00, 0.00, -0.00, -1.00, 86.9, 333.0)">y</text><text xml:space="preserve" font-family="Menlo-Regular" font-size="34.0" fill="#E5493C" transform="matrix(1.00, 0.00, -0.00, -1.00, 107.4, 333.0)">p</text><text xml:space="preserve" font-family="Menlo-Regular" font-size="34.0" fill="#E5493C" transform="matrix(1.00, 0.00, -0.00, -1.00, 127.8, 333.0)">e</text><text xml:space="preserve" font-family="Menlo-Regular" font-size="34.0" fill="#E5493C" transform="matrix(1.00, 0.00, -0.00, -1.00, 148.3, 333.0)">"</text><text xml:space="preserve" font-family="Menlo-Regular" font-size="34.0" fill="#6A8188" transform="matrix(1.00, 0.00, -0.00, -1.00, 168.8, 333.0)">:</text><text xml:space="preserve" font-family="Menlo-Regular" font-size="34.0" fill="#000000" transform="matrix(1.00, 0.00, -0.00, -1.00, 189.2, 333.0)"> </text><text xml:space="preserve" font-family="Menlo-Regular" font-size="34.0" fill="#E5493C" transform="matrix(1.00, 0.00, -0.00, -1.00, 209.7, 333.0)">“</text><text xml:space="preserve" font-family="Menlo-Regular" font-size="34.0" fill="#E5493C" transform="matrix(1.00, 0.00, -0.00, -1.00, 230.2, 333.0)">P</text><text xml:space="preserve" font-family="Menlo-Regular" font-size="34.0" fill="#E5493C" transform="matrix(1.00, 0.00, -0.00, -1.00, 250.6, 333.0)">r</text><text xml:space="preserve" font-family="Menlo-Regular" font-size="34.0" fill="#E5493C" transform="matrix(1.00, 0.00, -0.00, -1.00, 271.1, 333.0)">o</text><text xml:space="preserve" font-family="Menlo-Regular" font-size="34.0" fill="#E5493C" transform="matrix(1.00, 0.00, -0.00, -1.00, 291.6, 333.0)">g</text><text xml:space="preserve" font-family="Menlo-Regular" font-size="34.0" fill="#E5493C" transform="matrix(1.00, 0.00, -0.00, -1.00, 312.1, 333.0)">r</text><text xml:space="preserve" font-family="Menlo-Regular" font-size="34.0" fill="#E5493C" transform="matrix(1.00, 0.00, -0.00, -1.00, 332.5, 333.0)">a</text><text xml:space="preserve" font-family="Menlo-Regular" font-size="34.0" fill="#E5493C" transform="matrix(1.00, 0.00, -0.00, -1.00, 353.0, 333.0)">m</text><text xml:space="preserve" font-family="Menlo-Regular" font-size="34.0" fill="#E5493C" transform="matrix(1.00, 0.00, -0.00, -1.00, 373.5, 333.0)">"</text><text xml:space="preserve" font-family="Menlo-Regular" font-size="34.0" fill="#E5493C" transform="matrix(1.00, 0.00, -0.00, -1.00, 394.0, 333.0)">,</text><text xml:space="preserve" font-family="Menlo-Regular" font-size="34.0" fill="#000000" transform="matrix(1.00, 0.00, -0.00, -1.00, 414.4, 333.0)"> </text><text xml:space="preserve" font-family="Menlo-Regular" font-size="34.0" fill="#000000" transform="matrix(1.00, 0.00, -0.00, -1.00, 5.0, 293.0)"> </text><text xml:space="preserve" font-family="Menlo-Regular" font-size="34.0" fill="#000000" transform="matrix(1.00, 0.00, -0.00, -1.00, 25.5, 293.0)"> </text><text xml:space="preserve" font-family="Menlo-Regular" font-size="34.0" fill="#E5493C" transform="matrix(1.00, 0.00, -0.00, -1.00, 45.9, 293.0)">"</text><text xml:space="preserve" font-family="Menlo-Regular" font-size="34.0" fill="#E5493C" transform="matrix(1.00, 0.00, -0.00, -1.00, 66.4, 293.0)">b</text><text xml:space="preserve" font-family="Menlo-Regular" font-size="34.0" fill="#E5493C" transform="matrix(1.00, 0.00, -0.00, -1.00, 86.9, 293.0)">o</text><text xml:space="preserve" font-family="Menlo-Regular" font-size="34.0" fill="#E5493C" transform="matrix(1.00, 0.00, -0.00, -1.00, 107.4, 293.0)">d</text><text xml:space="preserve" font-family="Menlo-Regular" font-size="34.0" fill="#E5493C" transform="matrix(1.00, 0.00, -0.00, -1.00, 127.8, 293.0)">y</text><text xml:space="preserve" font-family="Menlo-Regular" font-size="34.0" fill="#E5493C" transform="matrix(1.00, 0.00, -0.00, -1.00, 148.3, 293.0)">"</text><text xml:space="preserve" font-family="Menlo-Regular" font-size="34.0" fill="#6A8188" transform="matrix(1.00, 0.00, -0.00, -1.00, 168.8, 293.0)">:</text><text xml:space="preserve" font-family="Menlo-Regular" font-size="34.0" fill="#6A8188" transform="matrix(1.00, 0.00, -0.00, -1.00, 189.2, 293.0)"> </text><text xml:space="preserve" font-family="Menlo-Regular" font-size="34.0" fill="#6A8188" transform="matrix(1.00, 0.00, -0.00, -1.00, 209.7, 293.0)">[</text><text xml:space="preserve" font-family="Menlo-Regular" font-size="34.0" fill="#000000" transform="matrix(1.00, 0.00, -0.00, -1.00, 230.2, 293.0)">{</text><text xml:space="preserve" font-family="Menlo-Regular" font-size="34.0" fill="#000000" transform="matrix(1.00, 0.00, -0.00, -1.00, 250.6, 293.0)">…</text><text xml:space="preserve" font-family="Menlo-Regular" font-size="34.0" fill="#000000" transform="matrix(1.00, 0.00, -0.00, -1.00, 271.1, 293.0)">}</text><text xml:space="preserve" font-family="Menlo-Regular" font-size="34.0" fill="#6A8188" transform="matrix(1.00, 0.00, -0.00, -1.00, 291.6, 293.0)">]</text><text xml:space="preserve" font-family="Menlo-Regular" font-size="34.0" fill="#E5493C" transform="matrix(1.00, 0.00, -0.00, -1.00, 312.0, 293.0)"> </text><text xml:space="preserve" font-family="Menlo-Regular" font-size="34.0" fill="#6A8188" transform="matrix(1.00, 0.00, -0.00, -1.00, 5.0, 253.0)">}</text><text xml:space="preserve" font-family="Menlo-Regular" font-size="34.0" fill="#6A8188" transform="matrix(1.00, 0.00, -0.00, -1.00, 25.5, 253.0)"> </text><text xml:space="preserve" font-family="Menlo-Regular" font-size="34.0" fill="#6A8188" transform="matrix(1.00, 0.00, -0.00, -1.00, 5.0, 173.0)">&lt;</text><text xml:space="preserve" font-family="Menlo-Regular" font-size="34.0" fill="#6A8188" transform="matrix(1.00, 0.00, -0.00, -1.00, 25.5, 173.0)">h</text><text xml:space="preserve" font-family="Menlo-Regular" font-size="34.0" fill="#6A8188" transform="matrix(1.00, 0.00, -0.00, -1.00, 45.9, 173.0)">t</text><text xml:space="preserve" font-family="Menlo-Regular" font-size="34.0" fill="#6A8188" transform="matrix(1.00, 0.00, -0.00, -1.00, 66.4, 173.0)">m</text><text xml:space="preserve" font-family="Menlo-Regular" font-size="34.0" fill="#6A8188" transform="matrix(1.00, 0.00, -0.00, -1.00, 86.9, 173.0)">l</text><text xml:space="preserve" font-family="Menlo-Regular" font-size="34.0" fill="#6A8188" transform="matrix(1.00, 0.00, -0.00, -1.00, 107.4, 173.0)">&gt;</text><text xml:space="preserve" font-family="Menlo-Regular" font-size="34.0" fill="#6A8188" transform="matrix(1.00, 0.00, -0.00, -1.00, 127.8, 173.0)"> </text><text xml:space="preserve" font-family="Menlo-Regular" font-size="34.0" fill="#6A8188" transform="matrix(1.00, 0.00, -0.00, -1.00, 5.0, 133.0)"> </text><text xml:space="preserve" font-family="Menlo-Regular" font-size="34.0" fill="#6A8188" transform="matrix(1.00, 0.00, -0.00, -1.00, 25.5, 133.0)"> </text><text xml:space="preserve" font-family="Menlo-Regular" font-size="34.0" fill="#6A8188" transform="matrix(1.00, 0.00, -0.00, -1.00, 45.9, 133.0)">&lt;</text><text xml:space="preserve" font-family="Menlo-Regular" font-size="34.0" fill="#6A8188" transform="matrix(1.00, 0.00, -0.00, -1.00, 66.4, 133.0)">b</text><text xml:space="preserve" font-family="Menlo-Regular" font-size="34.0" fill="#6A8188" transform="matrix(1.00, 0.00, -0.00, -1.00, 86.9, 133.0)">o</text><text xml:space="preserve" font-family="Menlo-Regular" font-size="34.0" fill="#6A8188" transform="matrix(1.00, 0.00, -0.00, -1.00, 107.4, 133.0)">d</text><text xml:space="preserve" font-family="Menlo-Regular" font-size="34.0" fill="#6A8188" transform="matrix(1.00, 0.00, -0.00, -1.00, 127.8, 133.0)">y</text><text xml:space="preserve" font-family="Menlo-Regular" font-size="34.0" fill="#6A8188" transform="matrix(1.00, 0.00, -0.00, -1.00, 148.3, 133.0)">&gt;</text><text xml:space="preserve" font-family="Menlo-Regular" font-size="34.0" fill="#6A8188" transform="matrix(1.00, 0.00, -0.00, -1.00, 168.8, 133.0)"> </text><text xml:space="preserve" font-family="Menlo-Regular" font-size="34.0" fill="#6A8188" transform="matrix(1.00, 0.00, -0.00, -1.00, 5.0, 93.0)"> </text><text xml:space="preserve" font-family="Menlo-Regular" font-size="34.0" fill="#6A8188" transform="matrix(1.00, 0.00, -0.00, -1.00, 25.5, 93.0)"> </text><text xml:space="preserve" font-family="Menlo-Regular" font-size="34.0" fill="#6A8188" transform="matrix(1.00, 0.00, -0.00, -1.00, 45.9, 93.0)"> </text><text xml:space="preserve" font-family="Menlo-Regular" font-size="34.0" fill="#6A8188" transform="matrix(1.00, 0.00, -0.00, -1.00, 66.4, 93.0)"> </text><text xml:space="preserve" font-family="Menlo-Regular" font-size="34.0" fill="#6A8188" transform="matrix(1.00, 0.00, -0.00, -1.00, 86.9, 93.0)">{</text><text xml:space="preserve" font-family="Menlo-Regular" font-size="34.0" fill="#6A8188" transform="matrix(1.00, 0.00, -0.00, -1.00, 107.4, 93.0)">…</text><text xml:space="preserve" font-family="Menlo-Regular" font-size="34.0" fill="#6A8188" transform="matrix(1.00, 0.00, -0.00, -1.00, 127.8, 93.0)">}</text><text xml:space="preserve" font-family="Menlo-Regular" font-size="34.0" fill="#6A8188" transform="matrix(1.00, 0.00, -0.00, -1.00, 148.3, 93.0)"> </text><text xml:space="preserve" font-family="Menlo-Regular" font-size="34.0" fill="#6A8188" transform="matrix(1.00, 0.00, -0.00, -1.00, 5.0, 53.0)"> </text><text xml:space="preserve" font-family="Menlo-Regular" font-size="34.0" fill="#6A8188" transform="matrix(1.00, 0.00, -0.00, -1.00, 25.5, 53.0)"> </text><text xml:space="preserve" font-family="Menlo-Regular" font-size="34.0" fill="#6A8188" transform="matrix(1.00, 0.00, -0.00, -1.00, 45.9, 53.0)">&lt;</text><text xml:space="preserve" font-family="Menlo-Regular" font-size="34.0" fill="#6A8188" transform="matrix(1.00, 0.00, -0.00, -1.00, 66.4, 53.0)">/</text><text xml:space="preserve" font-family="Menlo-Regular" font-size="34.0" fill="#6A8188" transform="matrix(1.00, 0.00, -0.00, -1.00, 86.9, 53.0)">b</text><text xml:space="preserve" font-family="Menlo-Regular" font-size="34.0" fill="#6A8188" transform="matrix(1.00, 0.00, -0.00, -1.00, 107.4, 53.0)">o</text><text xml:space="preserve" font-family="Menlo-Regular" font-size="34.0" fill="#6A8188" transform="matrix(1.00, 0.00, -0.00, -1.00, 127.8, 53.0)">d</text><text xml:space="preserve" font-family="Menlo-Regular" font-size="34.0" fill="#6A8188" transform="matrix(1.00, 0.00, -0.00, -1.00, 148.3, 53.0)">y</text><text xml:space="preserve" font-family="Menlo-Regular" font-size="34.0" fill="#6A8188" transform="matrix(1.00, 0.00, -0.00, -1.00, 168.8, 53.0)">&gt;</text><text xml:space="preserve" font-family="Menlo-Regular" font-size="34.0" fill="#6A8188" transform="matrix(1.00, 0.00, -0.00, -1.00, 189.3, 53.0)"> </text><text xml:space="preserve" font-family="Menlo-Regular" font-size="34.0" fill="#6A8188" transform="matrix(1.00, 0.00, -0.00, -1.00, 5.0, 13.0)">&lt;</text><text xml:space="preserve" font-family="Menlo-Regular" font-size="34.0" fill="#6A8188" transform="matrix(1.00, 0.00, -0.00, -1.00, 25.5, 13.0)">h</text><text xml:space="preserve" font-family="Menlo-Regular" font-size="34.0" fill="#6A8188" transform="matrix(1.00, 0.00, -0.00, -1.00, 45.9, 13.0)">t</text><text xml:space="preserve" font-family="Menlo-Regular" font-size="34.0" fill="#6A8188" transform="matrix(1.00, 0.00, -0.00, -1.00, 66.4, 13.0)">m</text><text xml:space="preserve" font-family="Menlo-Regular" font-size="34.0" fill="#6A8188" transform="matrix(1.00, 0.00, -0.00, -1.00, 86.9, 13.0)">l</text><text xml:space="preserve" font-family="Menlo-Regular" font-size="34.0" fill="#6A8188" transform="matrix(1.00, 0.00, -0.00, -1.00, 107.4, 13.0)">&gt;</text></g></g></g></svg>