<?xml version="1.0" encoding="UTF-8" standalone="no"?><svg xmlns="http://www.w3.org/2000/svg" xmlns:xlink="http://www.w3.org/1999/xlink" clip-rule="evenodd" stroke-miterlimit="4.00" viewBox="0 0 606 516"><desc>SVG generated by Keynote</desc><defs></defs><g transform="matrix(1.00, 0.00, -0.00, -1.00, 0.0, 516.0)"><g><clipPath id="clip-116"><path d="M 0.7 265.3 L 605.3 265.3 L 605.3 515.3 L 0.7 515.3 Z M 0.7 265.3 "></path></clipPath><g clip-path="url(#clip-116)"><path d="M 1.7 514.3 L 604.3 514.3 L 604.3 266.3 L 1.7 266.3 Z M 1.7 514.3 " fill="#DCC9B0"></path></g></g><g><clipPath id="clip-117"><path d="M -4.2 260.4 L 1188.5 260.4 L 1188.5 520.2 L -4.2 520.2 Z M -4.2 260.4 "></path></clipPath><g clip-path="url(#clip-117)"><text xml:space="preserve" font-family="Menlo-Regular" font-size="34.0" fill="#6A8188" transform="matrix(1.00, 0.00, -0.00, -1.00, 6.0, 478.0)">{</text><text xml:space="preserve" font-family="Menlo-Regular" font-size="34.0" fill="#000000" transform="matrix(1.00, 0.00, -0.00, -1.00, 26.5, 478.0)"> </text><text xml:space="preserve" font-family="Menlo-Regular" font-size="34.0" fill="#000000" transform="matrix(1.00, 0.00, -0.00, -1.00, 6.0, 438.0)"> </text><text xml:space="preserve" font-family="Menlo-Regular" font-size="34.0" fill="#000000" transform="matrix(1.00, 0.00, -0.00, -1.00, 26.5, 438.0)"> </text><text xml:space="preserve" font-family="Menlo-Regular" font-size="34.0" fill="#E5493C" transform="matrix(1.00, 0.00, -0.00, -1.00, 46.9, 438.0)">"</text><text xml:space="preserve" font-family="Menlo-Regular" font-size="34.0" fill="#E5493C" transform="matrix(1.00, 0.00, -0.00, -1.00, 67.4, 438.0)">t</text><text xml:space="preserve" font-family="Menlo-Regular" font-size="34.0" fill="#E5493C" transform="matrix(1.00, 0.00, -0.00, -1.00, 87.9, 438.0)">y</text><text xml:space="preserve" font-family="Menlo-Regular" font-size="34.0" fill="#E5493C" transform="matrix(1.00, 0.00, -0.00, -1.00, 108.4, 438.0)">p</text><text xml:space="preserve" font-family="Menlo-Regular" font-size="34.0" fill="#E5493C" transform="matrix(1.00, 0.00, -0.00, -1.00, 128.8, 438.0)">e</text><text xml:space="preserve" font-family="Menlo-Regular" font-size="34.0" fill="#E5493C" transform="matrix(1.00, 0.00, -0.00, -1.00, 149.3, 438.0)">"</text><text xml:space="preserve" font-family="Menlo-Regular" font-size="34.0" fill="#6A8188" transform="matrix(1.00, 0.00, -0.00, -1.00, 169.8, 438.0)">:</text><text xml:space="preserve" font-family="Menlo-Regular" font-size="34.0" fill="#000000" transform="matrix(1.00, 0.00, -0.00, -1.00, 190.2, 438.0)"> </text><text xml:space="preserve" font-family="Menlo-Regular" font-size="34.0" fill="#E5493C" transform="matrix(1.00, 0.00, -0.00, -1.00, 210.7, 438.0)">"</text><text xml:space="preserve" font-family="Menlo-Regular" font-size="34.0" fill="#E5493C" transform="matrix(1.00, 0.00, -0.00, -1.00, 231.2, 438.0)">B</text><text xml:space="preserve" font-family="Menlo-Regular" font-size="34.0" fill="#E5493C" transform="matrix(1.00, 0.00, -0.00, -1.00, 251.6, 438.0)">i</text><text xml:space="preserve" font-family="Menlo-Regular" font-size="34.0" fill="#E5493C" transform="matrix(1.00, 0.00, -0.00, -1.00, 272.1, 438.0)">n</text><text xml:space="preserve" font-family="Menlo-Regular" font-size="34.0" fill="#E5493C" transform="matrix(1.00, 0.00, -0.00, -1.00, 292.6, 438.0)">a</text><text xml:space="preserve" font-family="Menlo-Regular" font-size="34.0" fill="#E5493C" transform="matrix(1.00, 0.00, -0.00, -1.00, 313.1, 438.0)">r</text><text xml:space="preserve" font-family="Menlo-Regular" font-size="34.0" fill="#E5493C" transform="matrix(1.00, 0.00, -0.00, -1.00, 333.5, 438.0)">y</text><text xml:space="preserve" font-family="Menlo-Regular" font-size="34.0" fill="#E5493C" transform="matrix(1.00, 0.00, -0.00, -1.00, 354.0, 438.0)">E</text><text xml:space="preserve" font-family="Menlo-Regular" font-size="34.0" fill="#E5493C" transform="matrix(1.00, 0.00, -0.00, -1.00, 374.5, 438.0)">x</text><text xml:space="preserve" font-family="Menlo-Regular" font-size="34.0" fill="#E5493C" transform="matrix(1.00, 0.00, -0.00, -1.00, 395.0, 438.0)">p</text><text xml:space="preserve" font-family="Menlo-Regular" font-size="34.0" fill="#E5493C" transform="matrix(1.00, 0.00, -0.00, -1.00, 415.4, 438.0)">r</text><text xml:space="preserve" font-family="Menlo-Regular" font-size="34.0" fill="#E5493C" transform="matrix(1.00, 0.00, -0.00, -1.00, 435.9, 438.0)">e</text><text xml:space="preserve" font-family="Menlo-Regular" font-size="34.0" fill="#E5493C" transform="matrix(1.00, 0.00, -0.00, -1.00, 456.4, 438.0)">s</text><text xml:space="preserve" font-family="Menlo-Regular" font-size="34.0" fill="#E5493C" transform="matrix(1.00, 0.00, -0.00, -1.00, 476.8, 438.0)">s</text><text xml:space="preserve" font-family="Menlo-Regular" font-size="34.0" fill="#E5493C" transform="matrix(1.00, 0.00, -0.00, -1.00, 497.3, 438.0)">i</text><text xml:space="preserve" font-family="Menlo-Regular" font-size="34.0" fill="#E5493C" transform="matrix(1.00, 0.00, -0.00, -1.00, 517.8, 438.0)">o</text><text xml:space="preserve" font-family="Menlo-Regular" font-size="34.0" fill="#E5493C" transform="matrix(1.00, 0.00, -0.00, -1.00, 538.3, 438.0)">n</text><text xml:space="preserve" font-family="Menlo-Regular" font-size="34.0" fill="#E5493C" transform="matrix(1.00, 0.00, -0.00, -1.00, 558.7, 438.0)">"</text><text xml:space="preserve" font-family="Menlo-Regular" font-size="34.0" fill="#000000" transform="matrix(1.00, 0.00, -0.00, -1.00, 579.2, 438.0)"> </text><text xml:space="preserve" font-family="Menlo-Regular" font-size="34.0" fill="#000000" transform="matrix(1.00, 0.00, -0.00, -1.00, 6.0, 398.0)"> </text><text xml:space="preserve" font-family="Menlo-Regular" font-size="34.0" fill="#000000" transform="matrix(1.00, 0.00, -0.00, -1.00, 26.5, 398.0)"> </text><text xml:space="preserve" font-family="Menlo-Regular" font-size="34.0" fill="#E5493C" transform="matrix(1.00, 0.00, -0.00, -1.00, 46.9, 398.0)">"</text><text xml:space="preserve" font-family="Menlo-Regular" font-size="34.0" fill="#E5493C" transform="matrix(1.00, 0.00, -0.00, -1.00, 67.4, 398.0)">l</text><text xml:space="preserve" font-family="Menlo-Regular" font-size="34.0" fill="#E5493C" transform="matrix(1.00, 0.00, -0.00, -1.00, 87.9, 398.0)">e</text><text xml:space="preserve" font-family="Menlo-Regular" font-size="34.0" fill="#E5493C" transform="matrix(1.00, 0.00, -0.00, -1.00, 108.4, 398.0)">f</text><text xml:space="preserve" font-family="Menlo-Regular" font-size="34.0" fill="#E5493C" transform="matrix(1.00, 0.00, -0.00, -1.00, 128.8, 398.0)">t</text><text xml:space="preserve" font-family="Menlo-Regular" font-size="34.0" fill="#E5493C" transform="matrix(1.00, 0.00, -0.00, -1.00, 149.3, 398.0)">"</text><text xml:space="preserve" font-family="Menlo-Regular" font-size="34.0" fill="#6A8188" transform="matrix(1.00, 0.00, -0.00, -1.00, 169.8, 398.0)">:</text><text xml:space="preserve" font-family="Menlo-Regular" font-size="34.0" fill="#6A8188" transform="matrix(1.00, 0.00, -0.00, -1.00, 190.2, 398.0)"> </text><text xml:space="preserve" font-family="Menlo-Regular" font-size="34.0" fill="#6A8188" transform="matrix(1.00, 0.00, -0.00, -1.00, 210.7, 398.0)">{</text><text xml:space="preserve" font-family="Menlo-Regular" font-size="34.0" fill="#000000" transform="matrix(1.00, 0.00, -0.00, -1.00, 231.2, 398.0)">…</text><text xml:space="preserve" font-family="Menlo-Regular" font-size="34.0" fill="#6A8188" transform="matrix(1.00, 0.00, -0.00, -1.00, 251.6, 398.0)">}</text><text xml:space="preserve" font-family="Menlo-Regular" font-size="34.0" fill="#6A8188" transform="matrix(1.00, 0.00, -0.00, -1.00, 272.1, 398.0)">,</text><text xml:space="preserve" font-family="Menlo-Regular" font-size="34.0" fill="#E5493C" transform="matrix(1.00, 0.00, -0.00, -1.00, 292.6, 398.0)"> </text><text xml:space="preserve" font-family="Menlo-Regular" font-size="34.0" fill="#000000" transform="matrix(1.00, 0.00, -0.00, -1.00, 6.0, 358.0)"> </text><text xml:space="preserve" font-family="Menlo-Regular" font-size="34.0" fill="#000000" transform="matrix(1.00, 0.00, -0.00, -1.00, 26.5, 358.0)"> </text><text xml:space="preserve" font-family="Menlo-Regular" font-size="34.0" fill="#E5493C" transform="matrix(1.00, 0.00, -0.00, -1.00, 46.9, 358.0)">"</text><text xml:space="preserve" font-family="Menlo-Regular" font-size="34.0" fill="#E5493C" transform="matrix(1.00, 0.00, -0.00, -1.00, 67.4, 358.0)">o</text><text xml:space="preserve" font-family="Menlo-Regular" font-size="34.0" fill="#E5493C" transform="matrix(1.00, 0.00, -0.00, -1.00, 87.9, 358.0)">p</text><text xml:space="preserve" font-family="Menlo-Regular" font-size="34.0" fill="#E5493C" transform="matrix(1.00, 0.00, -0.00, -1.00, 108.4, 358.0)">e</text><text xml:space="preserve" font-family="Menlo-Regular" font-size="34.0" fill="#E5493C" transform="matrix(1.00, 0.00, -0.00, -1.00, 128.8, 358.0)">r</text><text xml:space="preserve" font-family="Menlo-Regular" font-size="34.0" fill="#E5493C" transform="matrix(1.00, 0.00, -0.00, -1.00, 149.3, 358.0)">a</text><text xml:space="preserve" font-family="Menlo-Regular" font-size="34.0" fill="#E5493C" transform="matrix(1.00, 0.00, -0.00, -1.00, 169.8, 358.0)">t</text><text xml:space="preserve" font-family="Menlo-Regular" font-size="34.0" fill="#E5493C" transform="matrix(1.00, 0.00, -0.00, -1.00, 190.3, 358.0)">o</text><text xml:space="preserve" font-family="Menlo-Regular" font-size="34.0" fill="#E5493C" transform="matrix(1.00, 0.00, -0.00, -1.00, 210.7, 358.0)">r</text><text xml:space="preserve" font-family="Menlo-Regular" font-size="34.0" fill="#E5493C" transform="matrix(1.00, 0.00, -0.00, -1.00, 231.2, 358.0)">"</text><text xml:space="preserve" font-family="Menlo-Regular" font-size="34.0" fill="#6A8188" transform="matrix(1.00, 0.00, -0.00, -1.00, 251.6, 358.0)">:</text><text xml:space="preserve" font-family="Menlo-Regular" font-size="34.0" fill="#000000" transform="matrix(1.00, 0.00, -0.00, -1.00, 272.1, 358.0)"> </text><text xml:space="preserve" font-family="Menlo-Regular" font-size="34.0" fill="#E5493C" transform="matrix(1.00, 0.00, -0.00, -1.00, 292.6, 358.0)">"</text><text xml:space="preserve" font-family="Menlo-Regular" font-size="34.0" fill="#E5493C" transform="matrix(1.00, 0.00, -0.00, -1.00, 313.0, 358.0)">+</text><text xml:space="preserve" font-family="Menlo-Regular" font-size="34.0" fill="#E5493C" transform="matrix(1.00, 0.00, -0.00, -1.00, 333.5, 358.0)">"</text><text xml:space="preserve" font-family="Menlo-Regular" font-size="34.0" fill="#6A8188" transform="matrix(1.00, 0.00, -0.00, -1.00, 354.0, 358.0)">,</text><text xml:space="preserve" font-family="Menlo-Regular" font-size="34.0" fill="#000000" transform="matrix(1.00, 0.00, -0.00, -1.00, 374.5, 358.0)"> </text><text xml:space="preserve" font-family="Menlo-Regular" font-size="34.0" fill="#000000" transform="matrix(1.00, 0.00, -0.00, -1.00, 6.0, 318.0)"> </text><text xml:space="preserve" font-family="Menlo-Regular" font-size="34.0" fill="#000000" transform="matrix(1.00, 0.00, -0.00, -1.00, 26.5, 318.0)"> </text><text xml:space="preserve" font-family="Menlo-Regular" font-size="34.0" fill="#E5493C" transform="matrix(1.00, 0.00, -0.00, -1.00, 46.9, 318.0)">"</text><text xml:space="preserve" font-family="Menlo-Regular" font-size="34.0" fill="#E5493C" transform="matrix(1.00, 0.00, -0.00, -1.00, 67.4, 318.0)">r</text><text xml:space="preserve" font-family="Menlo-Regular" font-size="34.0" fill="#E5493C" transform="matrix(1.00, 0.00, -0.00, -1.00, 87.9, 318.0)">i</text><text xml:space="preserve" font-family="Menlo-Regular" font-size="34.0" fill="#E5493C" transform="matrix(1.00, 0.00, -0.00, -1.00, 108.4, 318.0)">g</text><text xml:space="preserve" font-family="Menlo-Regular" font-size="34.0" fill="#E5493C" transform="matrix(1.00, 0.00, -0.00, -1.00, 128.8, 318.0)">h</text><text xml:space="preserve" font-family="Menlo-Regular" font-size="34.0" fill="#E5493C" transform="matrix(1.00, 0.00, -0.00, -1.00, 149.3, 318.0)">t</text><text xml:space="preserve" font-family="Menlo-Regular" font-size="34.0" fill="#E5493C" transform="matrix(1.00, 0.00, -0.00, -1.00, 169.8, 318.0)">"</text><text xml:space="preserve" font-family="Menlo-Regular" font-size="34.0" fill="#6A8188" transform="matrix(1.00, 0.00, -0.00, -1.00, 190.2, 318.0)">:</text><text xml:space="preserve" font-family="Menlo-Regular" font-size="34.0" fill="#6A8188" transform="matrix(1.00, 0.00, -0.00, -1.00, 210.7, 318.0)"> </text><text xml:space="preserve" font-family="Menlo-Regular" font-size="34.0" fill="#6A8188" transform="matrix(1.00, 0.00, -0.00, -1.00, 231.2, 318.0)">{</text><text xml:space="preserve" font-family="Menlo-Regular" font-size="34.0" fill="#000000" transform="matrix(1.00, 0.00, -0.00, -1.00, 251.6, 318.0)">…</text><text xml:space="preserve" font-family="Menlo-Regular" font-size="34.0" fill="#6A8188" transform="matrix(1.00, 0.00, -0.00, -1.00, 272.1, 318.0)">}</text><text xml:space="preserve" font-family="Menlo-Regular" font-size="34.0" fill="#E5493C" transform="matrix(1.00, 0.00, -0.00, -1.00, 292.6, 318.0)"> </text><text xml:space="preserve" font-family="Menlo-Regular" font-size="34.0" fill="#6A8188" transform="matrix(1.00, 0.00, -0.00, -1.00, 6.0, 278.0)">}</text></g></g><g><clipPath id="clip-118"><path d="M 21.1 0.7 L 584.8 0.7 L 584.8 250.7 L 21.1 250.7 Z M 21.1 0.7 "></path></clipPath><g clip-path="url(#clip-118)"><path d="M 22.1 249.7 L 583.8 249.7 L 583.8 1.7 L 22.1 1.7 Z M 22.1 249.7 " fill="#DCC9B0"></path></g></g><g><clipPath id="clip-119"><path d="M 16.2 -4.2 L 1127.1 -4.2 L 1127.1 255.6 L 16.2 255.6 Z M 16.2 -4.2 "></path></clipPath><g clip-path="url(#clip-119)"><text xml:space="preserve" font-family="Menlo-Regular" font-size="34.0" fill="#6A8188" transform="matrix(1.00, 0.00, -0.00, -1.00, 26.0, 214.0)">{</text><text xml:space="preserve" font-family="Menlo-Regular" font-size="34.0" fill="#000000" transform="matrix(1.00, 0.00, -0.00, -1.00, 46.5, 214.0)"> </text><text xml:space="preserve" font-family="Menlo-Regular" font-size="34.0" fill="#000000" transform="matrix(1.00, 0.00, -0.00, -1.00, 26.0, 174.0)"> </text><text xml:space="preserve" font-family="Menlo-Regular" font-size="34.0" fill="#000000" transform="matrix(1.00, 0.00, -0.00, -1.00, 46.5, 174.0)"> </text><text xml:space="preserve" font-family="Menlo-Regular" font-size="34.0" fill="#E5493C" transform="matrix(1.00, 0.00, -0.00, -1.00, 66.9, 174.0)">"</text><text xml:space="preserve" font-family="Menlo-Regular" font-size="34.0" fill="#E5493C" transform="matrix(1.00, 0.00, -0.00, -1.00, 87.4, 174.0)">t</text><text xml:space="preserve" font-family="Menlo-Regular" font-size="34.0" fill="#E5493C" transform="matrix(1.00, 0.00, -0.00, -1.00, 107.9, 174.0)">y</text><text xml:space="preserve" font-family="Menlo-Regular" font-size="34.0" fill="#E5493C" transform="matrix(1.00, 0.00, -0.00, -1.00, 128.4, 174.0)">p</text><text xml:space="preserve" font-family="Menlo-Regular" font-size="34.0" fill="#E5493C" transform="matrix(1.00, 0.00, -0.00, -1.00, 148.8, 174.0)">e</text><text xml:space="preserve" font-family="Menlo-Regular" font-size="34.0" fill="#E5493C" transform="matrix(1.00, 0.00, -0.00, -1.00, 169.3, 174.0)">"</text><text xml:space="preserve" font-family="Menlo-Regular" font-size="34.0" fill="#6A8188" transform="matrix(1.00, 0.00, -0.00, -1.00, 189.8, 174.0)">:</text><text xml:space="preserve" font-family="Menlo-Regular" font-size="34.0" fill="#000000" transform="matrix(1.00, 0.00, -0.00, -1.00, 210.2, 174.0)"> </text><text xml:space="preserve" font-family="Menlo-Regular" font-size="34.0" fill="#E5493C" transform="matrix(1.00, 0.00, -0.00, -1.00, 230.7, 174.0)">"</text><text xml:space="preserve" font-family="Menlo-Regular" font-size="34.0" fill="#E5493C" transform="matrix(1.00, 0.00, -0.00, -1.00, 251.2, 174.0)">N</text><text xml:space="preserve" font-family="Menlo-Regular" font-size="34.0" fill="#E5493C" transform="matrix(1.00, 0.00, -0.00, -1.00, 271.6, 174.0)">u</text><text xml:space="preserve" font-family="Menlo-Regular" font-size="34.0" fill="#E5493C" transform="matrix(1.00, 0.00, -0.00, -1.00, 292.1, 174.0)">m</text><text xml:space="preserve" font-family="Menlo-Regular" font-size="34.0" fill="#E5493C" transform="matrix(1.00, 0.00, -0.00, -1.00, 312.6, 174.0)">e</text><text xml:space="preserve" font-family="Menlo-Regular" font-size="34.0" fill="#E5493C" transform="matrix(1.00, 0.00, -0.00, -1.00, 333.1, 174.0)">r</text><text xml:space="preserve" font-family="Menlo-Regular" font-size="34.0" fill="#E5493C" transform="matrix(1.00, 0.00, -0.00, -1.00, 353.5, 174.0)">i</text><text xml:space="preserve" font-family="Menlo-Regular" font-size="34.0" fill="#E5493C" transform="matrix(1.00, 0.00, -0.00, -1.00, 374.0, 174.0)">c</text><text xml:space="preserve" font-family="Menlo-Regular" font-size="34.0" fill="#E5493C" transform="matrix(1.00, 0.00, -0.00, -1.00, 394.5, 174.0)">L</text><text xml:space="preserve" font-family="Menlo-Regular" font-size="34.0" fill="#E5493C" transform="matrix(1.00, 0.00, -0.00, -1.00, 415.0, 174.0)">i</text><text xml:space="preserve" font-family="Menlo-Regular" font-size="34.0" fill="#E5493C" transform="matrix(1.00, 0.00, -0.00, -1.00, 435.4, 174.0)">t</text><text xml:space="preserve" font-family="Menlo-Regular" font-size="34.0" fill="#E5493C" transform="matrix(1.00, 0.00, -0.00, -1.00, 455.9, 174.0)">e</text><text xml:space="preserve" font-family="Menlo-Regular" font-size="34.0" fill="#E5493C" transform="matrix(1.00, 0.00, -0.00, -1.00, 476.4, 174.0)">r</text><text xml:space="preserve" font-family="Menlo-Regular" font-size="34.0" fill="#E5493C" transform="matrix(1.00, 0.00, -0.00, -1.00, 496.8, 174.0)">a</text><text xml:space="preserve" font-family="Menlo-Regular" font-size="34.0" fill="#E5493C" transform="matrix(1.00, 0.00, -0.00, -1.00, 517.3, 174.0)">l</text><text xml:space="preserve" font-family="Menlo-Regular" font-size="34.0" fill="#E5493C" transform="matrix(1.00, 0.00, -0.00, -1.00, 537.8, 174.0)">"</text><text xml:space="preserve" font-family="Menlo-Regular" font-size="34.0" fill="#000000" transform="matrix(1.00, 0.00, -0.00, -1.00, 558.2, 174.0)"> </text><text xml:space="preserve" font-family="Menlo-Regular" font-size="34.0" fill="#000000" transform="matrix(1.00, 0.00, -0.00, -1.00, 26.0, 134.0)"> </text><text xml:space="preserve" font-family="Menlo-Regular" font-size="34.0" fill="#000000" transform="matrix(1.00, 0.00, -0.00, -1.00, 46.5, 134.0)"> </text><text xml:space="preserve" font-family="Menlo-Regular" font-size="34.0" fill="#E5493C" transform="matrix(1.00, 0.00, -0.00, -1.00, 66.9, 134.0)">"</text><text xml:space="preserve" font-family="Menlo-Regular" font-size="34.0" fill="#E5493C" transform="matrix(1.00, 0.00, -0.00, -1.00, 87.4, 134.0)">v</text><text xml:space="preserve" font-family="Menlo-Regular" font-size="34.0" fill="#E5493C" transform="matrix(1.00, 0.00, -0.00, -1.00, 107.9, 134.0)">a</text><text xml:space="preserve" font-family="Menlo-Regular" font-size="34.0" fill="#E5493C" transform="matrix(1.00, 0.00, -0.00, -1.00, 128.4, 134.0)">l</text><text xml:space="preserve" font-family="Menlo-Regular" font-size="34.0" fill="#E5493C" transform="matrix(1.00, 0.00, -0.00, -1.00, 148.8, 134.0)">u</text><text xml:space="preserve" font-family="Menlo-Regular" font-size="34.0" fill="#E5493C" transform="matrix(1.00, 0.00, -0.00, -1.00, 169.3, 134.0)">e</text><text xml:space="preserve" font-family="Menlo-Regular" font-size="34.0" fill="#E5493C" transform="matrix(1.00, 0.00, -0.00, -1.00, 189.8, 134.0)">"</text><text xml:space="preserve" font-family="Menlo-Regular" font-size="34.0" fill="#6A8188" transform="matrix(1.00, 0.00, -0.00, -1.00, 210.2, 134.0)">:</text><text xml:space="preserve" font-family="Menlo-Regular" font-size="34.0" fill="#000000" transform="matrix(1.00, 0.00, -0.00, -1.00, 230.7, 134.0)"> </text><text xml:space="preserve" font-family="Menlo-Regular" font-size="34.0" fill="#E5493C" transform="matrix(1.00, 0.00, -0.00, -1.00, 251.2, 134.0)">2</text><text xml:space="preserve" font-family="Menlo-Regular" font-size="34.0" fill="#000000" transform="matrix(1.00, 0.00, -0.00, -1.00, 271.6, 134.0)"> </text><text xml:space="preserve" font-family="Menlo-Regular" font-size="34.0" fill="#6A8188" transform="matrix(1.00, 0.00, -0.00, -1.00, 26.0, 94.0)">}</text><text xml:space="preserve" font-family="Menlo-Regular" font-size="34.0" fill="#6A8188" transform="matrix(1.00, 0.00, -0.00, -1.00, 46.5, 94.0)"> </text><text xml:space="preserve" font-family="Menlo-Regular" font-size="34.0" fill="#6A8188" transform="matrix(1.00, 0.00, -0.00, -1.00, 26.0, 14.0)">&lt;</text><text xml:space="preserve" font-family="Menlo-Regular" font-size="34.0" fill="#6A8188" transform="matrix(1.00, 0.00, -0.00, -1.00, 46.5, 14.0)">N</text><text xml:space="preserve" font-family="Menlo-Regular" font-size="34.0" fill="#6A8188" transform="matrix(1.00, 0.00, -0.00, -1.00, 66.9, 14.0)">u</text><text xml:space="preserve" font-family="Menlo-Regular" font-size="34.0" fill="#6A8188" transform="matrix(1.00, 0.00, -0.00, -1.00, 87.4, 14.0)">m</text><text xml:space="preserve" font-family="Menlo-Regular" font-size="34.0" fill="#6A8188" transform="matrix(1.00, 0.00, -0.00, -1.00, 107.9, 14.0)">e</text><text xml:space="preserve" font-family="Menlo-Regular" font-size="34.0" fill="#6A8188" transform="matrix(1.00, 0.00, -0.00, -1.00, 128.4, 14.0)">r</text><text xml:space="preserve" font-family="Menlo-Regular" font-size="34.0" fill="#6A8188" transform="matrix(1.00, 0.00, -0.00, -1.00, 148.8, 14.0)">i</text><text xml:space="preserve" font-family="Menlo-Regular" font-size="34.0" fill="#6A8188" transform="matrix(1.00, 0.00, -0.00, -1.00, 169.3, 14.0)">c</text><text xml:space="preserve" font-family="Menlo-Regular" font-size="34.0" fill="#6A8188" transform="matrix(1.00, 0.00, -0.00, -1.00, 189.8, 14.0)">L</text><text xml:space="preserve" font-family="Menlo-Regular" font-size="34.0" fill="#6A8188" transform="matrix(1.00, 0.00, -0.00, -1.00, 210.3, 14.0)">i</text><text xml:space="preserve" font-family="Menlo-Regular" font-size="34.0" fill="#6A8188" transform="matrix(1.00, 0.00, -0.00, -1.00, 230.7, 14.0)">t</text><text xml:space="preserve" font-family="Menlo-Regular" font-size="34.0" fill="#6A8188" transform="matrix(1.00, 0.00, -0.00, -1.00, 251.2, 14.0)">e</text><text xml:space="preserve" font-family="Menlo-Regular" font-size="34.0" fill="#6A8188" transform="matrix(1.00, 0.00, -0.00, -1.00, 271.7, 14.0)">r</text><text xml:space="preserve" font-family="Menlo-Regular" font-size="34.0" fill="#6A8188" transform="matrix(1.00, 0.00, -0.00, -1.00, 292.2, 14.0)">a</text><text xml:space="preserve" font-family="Menlo-Regular" font-size="34.0" fill="#6A8188" transform="matrix(1.00, 0.00, -0.00, -1.00, 312.6, 14.0)">l</text><text xml:space="preserve" font-family="Menlo-Regular" font-size="34.0" fill="#6A8188" transform="matrix(1.00, 0.00, -0.00, -1.00, 333.1, 14.0)"> </text><text xml:space="preserve" font-family="Menlo-Regular" font-size="34.0" fill="#6A8188" transform="matrix(1.00, 0.00, -0.00, -1.00, 353.6, 14.0)">v</text><text xml:space="preserve" font-family="Menlo-Regular" font-size="34.0" fill="#6A8188" transform="matrix(1.00, 0.00, -0.00, -1.00, 374.0, 14.0)">a</text><text xml:space="preserve" font-family="Menlo-Regular" font-size="34.0" fill="#6A8188" transform="matrix(1.00, 0.00, -0.00, -1.00, 394.5, 14.0)">l</text><text xml:space="preserve" font-family="Menlo-Regular" font-size="34.0" fill="#6A8188" transform="matrix(1.00, 0.00, -0.00, -1.00, 415.0, 14.0)">u</text><text xml:space="preserve" font-family="Menlo-Regular" font-size="34.0" fill="#6A8188" transform="matrix(1.00, 0.00, -0.00, -1.00, 435.5, 14.0)">e</text><text xml:space="preserve" font-family="Menlo-Regular" font-size="34.0" fill="#6A8188" transform="matrix(1.00, 0.00, -0.00, -1.00, 455.9, 14.0)">=</text><text xml:space="preserve" font-family="Menlo-Regular" font-size="34.0" fill="#E5493C" transform="matrix(1.00, 0.00, -0.00, -1.00, 476.3, 14.0)">"</text><text xml:space="preserve" font-family="Menlo-Regular" font-size="34.0" fill="#E5493C" transform="matrix(1.00, 0.00, -0.00, -1.00, 496.8, 14.0)">2</text><text xml:space="preserve" font-family="Menlo-Regular" font-size="34.0" fill="#E5493C" transform="matrix(1.00, 0.00, -0.00, -1.00, 517.3, 14.0)">"</text><text xml:space="preserve" font-family="Menlo-Regular" font-size="34.0" fill="#6A8188" transform="matrix(1.00, 0.00, -0.00, -1.00, 537.7, 14.0)">/</text><text xml:space="preserve" font-family="Menlo-Regular" font-size="34.0" fill="#6A8188" transform="matrix(1.00, 0.00, -0.00, -1.00, 558.2, 14.0)">&gt;</text></g></g></g></svg>