<?xml version="1.0" encoding="UTF-8" standalone="no"?><svg xmlns="http://www.w3.org/2000/svg" xmlns:xlink="http://www.w3.org/1999/xlink" clip-rule="evenodd" stroke-miterlimit="4.00" viewBox="0 0 647 292"><desc>SVG generated by Keynote</desc><defs></defs><g transform="matrix(1.00, 0.00, -0.00, -1.00, 0.0, 292.0)"><path d="M 1.5 290.0 L 645.1 290.0 L 645.1 2.0 L 1.5 2.0 Z M 1.5 290.0 " fill="#DCC9B0"></path><g><clipPath id="clip-120"><path d="M -4.4 -3.9 L 1270.2 -3.9 L 1270.2 295.9 L -4.4 295.9 Z M -4.4 -3.9 "></path></clipPath><g clip-path="url(#clip-120)"><text xml:space="preserve" font-family="Menlo-Regular" font-size="34.0" fill="#778D95" transform="matrix(1.00, 0.00, -0.00, -1.00, 6.0, 254.0)">i</text><text xml:space="preserve" font-family="Menlo-Regular" font-size="34.0" fill="#778D95" transform="matrix(1.00, 0.00, -0.00, -1.00, 26.5, 254.0)">n</text><text xml:space="preserve" font-family="Menlo-Regular" font-size="34.0" fill="#778D95" transform="matrix(1.00, 0.00, -0.00, -1.00, 46.9, 254.0)">t</text><text xml:space="preserve" font-family="Menlo-Regular" font-size="34.0" fill="#778D95" transform="matrix(1.00, 0.00, -0.00, -1.00, 67.4, 254.0)">e</text><text xml:space="preserve" font-family="Menlo-Regular" font-size="34.0" fill="#778D95" transform="matrix(1.00, 0.00, -0.00, -1.00, 87.9, 254.0)">r</text><text xml:space="preserve" font-family="Menlo-Regular" font-size="34.0" fill="#778D95" transform="matrix(1.00, 0.00, -0.00, -1.00, 108.4, 254.0)">f</text><text xml:space="preserve" font-family="Menlo-Regular" font-size="34.0" fill="#778D95" transform="matrix(1.00, 0.00, -0.00, -1.00, 128.8, 254.0)">a</text><text xml:space="preserve" font-family="Menlo-Regular" font-size="34.0" fill="#778D95" transform="matrix(1.00, 0.00, -0.00, -1.00, 149.3, 254.0)">c</text><text xml:space="preserve" font-family="Menlo-Regular" font-size="34.0" fill="#778D95" transform="matrix(1.00, 0.00, -0.00, -1.00, 169.8, 254.0)">e</text><text xml:space="preserve" font-family="Menlo-Regular" font-size="34.0" fill="#778D95" transform="matrix(1.00, 0.00, -0.00, -1.00, 190.3, 254.0)"> </text><text xml:space="preserve" font-family="Menlo-Regular" font-size="34.0" fill="#778D95" transform="matrix(1.00, 0.00, -0.00, -1.00, 210.7, 254.0)">N</text><text xml:space="preserve" font-family="Menlo-Regular" font-size="34.0" fill="#778D95" transform="matrix(1.00, 0.00, -0.00, -1.00, 231.2, 254.0)">o</text><text xml:space="preserve" font-family="Menlo-Regular" font-size="34.0" fill="#778D95" transform="matrix(1.00, 0.00, -0.00, -1.00, 251.7, 254.0)">d</text><text xml:space="preserve" font-family="Menlo-Regular" font-size="34.0" fill="#778D95" transform="matrix(1.00, 0.00, -0.00, -1.00, 272.2, 254.0)">e</text><text xml:space="preserve" font-family="Menlo-Regular" font-size="34.0" fill="#000000" transform="matrix(1.00, 0.00, -0.00, -1.00, 292.6, 254.0)"> </text><text xml:space="preserve" font-family="Menlo-Regular" font-size="34.0" fill="#6A8188" transform="matrix(1.00, 0.00, -0.00, -1.00, 313.0, 254.0)">{</text><text xml:space="preserve" font-family="Menlo-Regular" font-size="34.0" fill="#000000" transform="matrix(1.00, 0.00, -0.00, -1.00, 333.5, 254.0)"> </text><text xml:space="preserve" font-family="Menlo-Regular" font-size="34.0" fill="#000000" transform="matrix(1.00, 0.00, -0.00, -1.00, 6.0, 214.0)"> </text><text xml:space="preserve" font-family="Menlo-Regular" font-size="34.0" fill="#000000" transform="matrix(1.00, 0.00, -0.00, -1.00, 26.5, 214.0)"> </text><text xml:space="preserve" font-family="Menlo-Regular" font-size="34.0" fill="#E5493C" transform="matrix(1.00, 0.00, -0.00, -1.00, 46.9, 214.0)">t</text><text xml:space="preserve" font-family="Menlo-Regular" font-size="34.0" fill="#E5493C" transform="matrix(1.00, 0.00, -0.00, -1.00, 67.4, 214.0)">y</text><text xml:space="preserve" font-family="Menlo-Regular" font-size="34.0" fill="#E5493C" transform="matrix(1.00, 0.00, -0.00, -1.00, 87.9, 214.0)">p</text><text xml:space="preserve" font-family="Menlo-Regular" font-size="34.0" fill="#E5493C" transform="matrix(1.00, 0.00, -0.00, -1.00, 108.4, 214.0)">e</text><text xml:space="preserve" font-family="Menlo-Regular" font-size="34.0" fill="#6A8188" transform="matrix(1.00, 0.00, -0.00, -1.00, 128.8, 214.0)">:</text><text xml:space="preserve" font-family="Menlo-Regular" font-size="34.0" fill="#000000" transform="matrix(1.00, 0.00, -0.00, -1.00, 149.3, 214.0)"> </text><text xml:space="preserve" font-family="Menlo-Regular" font-size="34.0" fill="#000000" transform="matrix(1.00, 0.00, -0.00, -1.00, 169.8, 214.0)">s</text><text xml:space="preserve" font-family="Menlo-Regular" font-size="34.0" fill="#000000" transform="matrix(1.00, 0.00, -0.00, -1.00, 190.2, 214.0)">t</text><text xml:space="preserve" font-family="Menlo-Regular" font-size="34.0" fill="#000000" transform="matrix(1.00, 0.00, -0.00, -1.00, 210.7, 214.0)">r</text><text xml:space="preserve" font-family="Menlo-Regular" font-size="34.0" fill="#000000" transform="matrix(1.00, 0.00, -0.00, -1.00, 231.2, 214.0)">i</text><text xml:space="preserve" font-family="Menlo-Regular" font-size="34.0" fill="#000000" transform="matrix(1.00, 0.00, -0.00, -1.00, 251.7, 214.0)">n</text><text xml:space="preserve" font-family="Menlo-Regular" font-size="34.0" fill="#000000" transform="matrix(1.00, 0.00, -0.00, -1.00, 272.1, 214.0)">g</text><text xml:space="preserve" font-family="Menlo-Regular" font-size="34.0" fill="#6A8188" transform="matrix(1.00, 0.00, -0.00, -1.00, 292.6, 214.0)">;</text><text xml:space="preserve" font-family="Menlo-Regular" font-size="34.0" fill="#000000" transform="matrix(1.00, 0.00, -0.00, -1.00, 313.0, 214.0)"> </text><text xml:space="preserve" font-family="Menlo-Regular" font-size="34.0" fill="#000000" transform="matrix(1.00, 0.00, -0.00, -1.00, 6.0, 174.0)"> </text><text xml:space="preserve" font-family="Menlo-Regular" font-size="34.0" fill="#000000" transform="matrix(1.00, 0.00, -0.00, -1.00, 26.5, 174.0)"> </text><text xml:space="preserve" font-family="Menlo-Regular" font-size="34.0" fill="#E5493C" transform="matrix(1.00, 0.00, -0.00, -1.00, 46.9, 174.0)">p</text><text xml:space="preserve" font-family="Menlo-Regular" font-size="34.0" fill="#E5493C" transform="matrix(1.00, 0.00, -0.00, -1.00, 67.4, 174.0)">r</text><text xml:space="preserve" font-family="Menlo-Regular" font-size="34.0" fill="#E5493C" transform="matrix(1.00, 0.00, -0.00, -1.00, 87.9, 174.0)">o</text><text xml:space="preserve" font-family="Menlo-Regular" font-size="34.0" fill="#E5493C" transform="matrix(1.00, 0.00, -0.00, -1.00, 108.4, 174.0)">p</text><text xml:space="preserve" font-family="Menlo-Regular" font-size="34.0" fill="#E5493C" transform="matrix(1.00, 0.00, -0.00, -1.00, 128.8, 174.0)">e</text><text xml:space="preserve" font-family="Menlo-Regular" font-size="34.0" fill="#E5493C" transform="matrix(1.00, 0.00, -0.00, -1.00, 149.3, 174.0)">r</text><text xml:space="preserve" font-family="Menlo-Regular" font-size="34.0" fill="#E5493C" transform="matrix(1.00, 0.00, -0.00, -1.00, 169.8, 174.0)">t</text><text xml:space="preserve" font-family="Menlo-Regular" font-size="34.0" fill="#E5493C" transform="matrix(1.00, 0.00, -0.00, -1.00, 190.3, 174.0)">y</text><text xml:space="preserve" font-family="Menlo-Regular" font-size="34.0" fill="#6A8188" transform="matrix(1.00, 0.00, -0.00, -1.00, 210.7, 174.0)">:</text><text xml:space="preserve" font-family="Menlo-Regular" font-size="34.0" fill="#000000" transform="matrix(1.00, 0.00, -0.00, -1.00, 231.2, 174.0)"> </text><text xml:space="preserve" font-family="Menlo-Regular" font-size="34.0" fill="#000000" transform="matrix(1.00, 0.00, -0.00, -1.00, 251.6, 174.0)">a</text><text xml:space="preserve" font-family="Menlo-Regular" font-size="34.0" fill="#000000" transform="matrix(1.00, 0.00, -0.00, -1.00, 272.1, 174.0)">n</text><text xml:space="preserve" font-family="Menlo-Regular" font-size="34.0" fill="#000000" transform="matrix(1.00, 0.00, -0.00, -1.00, 292.6, 174.0)">y</text><text xml:space="preserve" font-family="Menlo-Regular" font-size="34.0" fill="#000000" transform="matrix(1.00, 0.00, -0.00, -1.00, 313.1, 174.0)">;</text><text xml:space="preserve" font-family="Menlo-Regular" font-size="34.0" fill="#000000" transform="matrix(1.00, 0.00, -0.00, -1.00, 333.5, 174.0)"> </text><text xml:space="preserve" font-family="Menlo-Regular" font-size="34.0" fill="#6A8188" transform="matrix(1.00, 0.00, -0.00, -1.00, 6.0, 134.0)">}</text><text xml:space="preserve" font-family="Menlo-Regular" font-size="34.0" fill="#6A8188" transform="matrix(1.00, 0.00, -0.00, -1.00, 26.5, 134.0)"> </text><text xml:space="preserve" font-family="Menlo-Regular" font-size="34.0" fill="#6A8188" transform="matrix(1.00, 0.00, -0.00, -1.00, 6.0, 54.0)">&lt;</text><text xml:space="preserve" font-family="Menlo-Regular" font-size="34.0" fill="#778D95" transform="matrix(1.00, 0.00, -0.00, -1.00, 26.5, 54.0)">e</text><text xml:space="preserve" font-family="Menlo-Regular" font-size="34.0" fill="#778D95" transform="matrix(1.00, 0.00, -0.00, -1.00, 46.9, 54.0)">l</text><text xml:space="preserve" font-family="Menlo-Regular" font-size="34.0" fill="#778D95" transform="matrix(1.00, 0.00, -0.00, -1.00, 67.4, 54.0)">e</text><text xml:space="preserve" font-family="Menlo-Regular" font-size="34.0" fill="#778D95" transform="matrix(1.00, 0.00, -0.00, -1.00, 87.9, 54.0)">m</text><text xml:space="preserve" font-family="Menlo-Regular" font-size="34.0" fill="#778D95" transform="matrix(1.00, 0.00, -0.00, -1.00, 108.4, 54.0)">e</text><text xml:space="preserve" font-family="Menlo-Regular" font-size="34.0" fill="#778D95" transform="matrix(1.00, 0.00, -0.00, -1.00, 128.8, 54.0)">n</text><text xml:space="preserve" font-family="Menlo-Regular" font-size="34.0" fill="#778D95" transform="matrix(1.00, 0.00, -0.00, -1.00, 149.3, 54.0)">t</text><text xml:space="preserve" font-family="Menlo-Regular" font-size="34.0" fill="#778D95" transform="matrix(1.00, 0.00, -0.00, -1.00, 169.8, 54.0)"> </text><text xml:space="preserve" font-family="Menlo-Regular" font-size="34.0" fill="#778D95" transform="matrix(1.00, 0.00, -0.00, -1.00, 190.3, 54.0)">a</text><text xml:space="preserve" font-family="Menlo-Regular" font-size="34.0" fill="#778D95" transform="matrix(1.00, 0.00, -0.00, -1.00, 210.7, 54.0)">t</text><text xml:space="preserve" font-family="Menlo-Regular" font-size="34.0" fill="#778D95" transform="matrix(1.00, 0.00, -0.00, -1.00, 231.2, 54.0)">t</text><text xml:space="preserve" font-family="Menlo-Regular" font-size="34.0" fill="#778D95" transform="matrix(1.00, 0.00, -0.00, -1.00, 251.7, 54.0)">r</text><text xml:space="preserve" font-family="Menlo-Regular" font-size="34.0" fill="#778D95" transform="matrix(1.00, 0.00, -0.00, -1.00, 272.1, 54.0)">i</text><text xml:space="preserve" font-family="Menlo-Regular" font-size="34.0" fill="#778D95" transform="matrix(1.00, 0.00, -0.00, -1.00, 292.6, 54.0)">b</text><text xml:space="preserve" font-family="Menlo-Regular" font-size="34.0" fill="#778D95" transform="matrix(1.00, 0.00, -0.00, -1.00, 313.1, 54.0)">u</text><text xml:space="preserve" font-family="Menlo-Regular" font-size="34.0" fill="#778D95" transform="matrix(1.00, 0.00, -0.00, -1.00, 333.6, 54.0)">t</text><text xml:space="preserve" font-family="Menlo-Regular" font-size="34.0" fill="#778D95" transform="matrix(1.00, 0.00, -0.00, -1.00, 354.0, 54.0)">e</text><text xml:space="preserve" font-family="Menlo-Regular" font-size="34.0" fill="#778D95" transform="matrix(1.00, 0.00, -0.00, -1.00, 374.5, 54.0)">A</text><text xml:space="preserve" font-family="Menlo-Regular" font-size="34.0" fill="#6A8188" transform="matrix(1.00, 0.00, -0.00, -1.00, 394.9, 54.0)">=</text><text xml:space="preserve" font-family="Menlo-Regular" font-size="34.0" fill="#E5493C" transform="matrix(1.00, 0.00, -0.00, -1.00, 415.4, 54.0)">"</text><text xml:space="preserve" font-family="Menlo-Regular" font-size="34.0" fill="#E5493C" transform="matrix(1.00, 0.00, -0.00, -1.00, 435.9, 54.0)">v</text><text xml:space="preserve" font-family="Menlo-Regular" font-size="34.0" fill="#E5493C" transform="matrix(1.00, 0.00, -0.00, -1.00, 456.3, 54.0)">a</text><text xml:space="preserve" font-family="Menlo-Regular" font-size="34.0" fill="#E5493C" transform="matrix(1.00, 0.00, -0.00, -1.00, 476.8, 54.0)">l</text><text xml:space="preserve" font-family="Menlo-Regular" font-size="34.0" fill="#E5493C" transform="matrix(1.00, 0.00, -0.00, -1.00, 497.3, 54.0)">u</text><text xml:space="preserve" font-family="Menlo-Regular" font-size="34.0" fill="#E5493C" transform="matrix(1.00, 0.00, -0.00, -1.00, 517.8, 54.0)">e</text><text xml:space="preserve" font-family="Menlo-Regular" font-size="34.0" fill="#E5493C" transform="matrix(1.00, 0.00, -0.00, -1.00, 538.2, 54.0)">A</text><text xml:space="preserve" font-family="Menlo-Regular" font-size="34.0" fill="#E5493C" transform="matrix(1.00, 0.00, -0.00, -1.00, 558.7, 54.0)">"</text><text xml:space="preserve" font-family="Menlo-Regular" font-size="34.0" fill="#6A8188" transform="matrix(1.00, 0.00, -0.00, -1.00, 579.2, 54.0)">/</text><text xml:space="preserve" font-family="Menlo-Regular" font-size="34.0" fill="#6A8188" transform="matrix(1.00, 0.00, -0.00, -1.00, 599.6, 54.0)">&gt;</text><text xml:space="preserve" font-family="Menlo-Regular" font-size="34.0" fill="#000000" transform="matrix(1.00, 0.00, -0.00, -1.00, 620.1, 54.0)"> </text><text xml:space="preserve" font-family="Menlo-Regular" font-size="34.0" fill="#6A8188" transform="matrix(1.00, 0.00, -0.00, -1.00, 6.0, 14.0)">&lt;</text><text xml:space="preserve" font-family="Menlo-Regular" font-size="34.0" fill="#778D95" transform="matrix(1.00, 0.00, -0.00, -1.00, 26.5, 14.0)">i</text><text xml:space="preserve" font-family="Menlo-Regular" font-size="34.0" fill="#778D95" transform="matrix(1.00, 0.00, -0.00, -1.00, 46.9, 14.0)">m</text><text xml:space="preserve" font-family="Menlo-Regular" font-size="34.0" fill="#778D95" transform="matrix(1.00, 0.00, -0.00, -1.00, 67.4, 14.0)">g</text><text xml:space="preserve" font-family="Menlo-Regular" font-size="34.0" fill="#778D95" transform="matrix(1.00, 0.00, -0.00, -1.00, 87.9, 14.0)"> </text><text xml:space="preserve" font-family="Menlo-Regular" font-size="34.0" fill="#778D95" transform="matrix(1.00, 0.00, -0.00, -1.00, 108.4, 14.0)">s</text><text xml:space="preserve" font-family="Menlo-Regular" font-size="34.0" fill="#778D95" transform="matrix(1.00, 0.00, -0.00, -1.00, 128.8, 14.0)">r</text><text xml:space="preserve" font-family="Menlo-Regular" font-size="34.0" fill="#778D95" transform="matrix(1.00, 0.00, -0.00, -1.00, 149.3, 14.0)">c</text><text xml:space="preserve" font-family="Menlo-Regular" font-size="34.0" fill="#6A8188" transform="matrix(1.00, 0.00, -0.00, -1.00, 169.8, 14.0)">=</text><text xml:space="preserve" font-family="Menlo-Regular" font-size="34.0" fill="#E5493C" transform="matrix(1.00, 0.00, -0.00, -1.00, 190.2, 14.0)">"</text><text xml:space="preserve" font-family="Menlo-Regular" font-size="34.0" fill="#E5493C" transform="matrix(1.00, 0.00, -0.00, -1.00, 210.7, 14.0)">"</text><text xml:space="preserve" font-family="Menlo-Regular" font-size="34.0" fill="#778D95" transform="matrix(1.00, 0.00, -0.00, -1.00, 231.2, 14.0)"> </text><text xml:space="preserve" font-family="Menlo-Regular" font-size="34.0" fill="#778D95" transform="matrix(1.00, 0.00, -0.00, -1.00, 251.6, 14.0)">a</text><text xml:space="preserve" font-family="Menlo-Regular" font-size="34.0" fill="#778D95" transform="matrix(1.00, 0.00, -0.00, -1.00, 272.1, 14.0)">l</text><text xml:space="preserve" font-family="Menlo-Regular" font-size="34.0" fill="#778D95" transform="matrix(1.00, 0.00, -0.00, -1.00, 292.6, 14.0)">t</text><text xml:space="preserve" font-family="Menlo-Regular" font-size="34.0" fill="#6A8188" transform="matrix(1.00, 0.00, -0.00, -1.00, 313.0, 14.0)">=</text><text xml:space="preserve" font-family="Menlo-Regular" font-size="34.0" fill="#E5493C" transform="matrix(1.00, 0.00, -0.00, -1.00, 333.5, 14.0)">"</text><text xml:space="preserve" font-family="Menlo-Regular" font-size="34.0" fill="#E5493C" transform="matrix(1.00, 0.00, -0.00, -1.00, 354.0, 14.0)">"</text><text xml:space="preserve" font-family="Menlo-Regular" font-size="34.0" fill="#6A8188" transform="matrix(1.00, 0.00, -0.00, -1.00, 374.5, 14.0)">/</text><text xml:space="preserve" font-family="Menlo-Regular" font-size="34.0" fill="#6A8188" transform="matrix(1.00, 0.00, -0.00, -1.00, 394.9, 14.0)">&gt;</text><text xml:space="preserve" font-family="Menlo-Regular" font-size="34.0" fill="#000000" transform="matrix(1.00, 0.00, -0.00, -1.00, 415.4, 14.0)"> </text></g></g></g></svg>