<?xml version="1.0" encoding="UTF-8" standalone="no"?><svg xmlns="http://www.w3.org/2000/svg" xmlns:xlink="http://www.w3.org/1999/xlink" clip-rule="evenodd" stroke-miterlimit="4.00" viewBox="0 0 1454 446"><desc>SVG generated by Keynote</desc><defs></defs><g transform="matrix(1.00, 0.00, -0.00, -1.00, 0.0, 446.0)"><g><clipPath id="clip-144"><path d="M 150.3 383.4 L 319.1 383.4 L 319.1 452.6 L 150.3 452.6 Z M 150.3 383.4 "></path></clipPath><g clip-path="url(#clip-144)"><text xml:space="preserve" font-family="Menlo-Regular" font-size="40.0" fill="#778D95" transform="matrix(1.00, 0.00, -0.00, -1.00, 162.0, 404.0)">a</text><text xml:space="preserve" font-family="Menlo-Regular" font-size="40.0" fill="#778D95" transform="matrix(1.00, 0.00, -0.00, -1.00, 186.1, 404.0)"> </text><text xml:space="preserve" font-family="Menlo-Regular" font-size="40.0" fill="#778D95" transform="matrix(1.00, 0.00, -0.00, -1.00, 210.2, 404.0)">*</text><text xml:space="preserve" font-family="Menlo-Regular" font-size="40.0" fill="#778D95" transform="matrix(1.00, 0.00, -0.00, -1.00, 234.3, 404.0)">*</text><text xml:space="preserve" font-family="Menlo-Regular" font-size="40.0" fill="#778D95" transform="matrix(1.00, 0.00, -0.00, -1.00, 258.3, 404.0)"> </text><text xml:space="preserve" font-family="Menlo-Regular" font-size="40.0" fill="#778D95" transform="matrix(1.00, 0.00, -0.00, -1.00, 282.4, 404.0)">b</text></g></g><g><clipPath id="clip-145"><path d="M 942.3 383.4 L 1303.7 383.4 L 1303.7 452.6 L 942.3 452.6 Z M 942.3 383.4 "></path></clipPath><g clip-path="url(#clip-145)"><text xml:space="preserve" font-family="Menlo-Regular" font-size="40.0" fill="#778D95" transform="matrix(1.00, 0.00, -0.00, -1.00, 954.0, 404.0)">M</text><text xml:space="preserve" font-family="Menlo-Regular" font-size="40.0" fill="#778D95" transform="matrix(1.00, 0.00, -0.00, -1.00, 978.1, 404.0)">a</text><text xml:space="preserve" font-family="Menlo-Regular" font-size="40.0" fill="#778D95" transform="matrix(1.00, 0.00, -0.00, -1.00, 1002.2, 404.0)">t</text><text xml:space="preserve" font-family="Menlo-Regular" font-size="40.0" fill="#778D95" transform="matrix(1.00, 0.00, -0.00, -1.00, 1026.3, 404.0)">h</text><text xml:space="preserve" font-family="Menlo-Regular" font-size="40.0" fill="#778D95" transform="matrix(1.00, 0.00, -0.00, -1.00, 1050.3, 404.0)">.</text><text xml:space="preserve" font-family="Menlo-Regular" font-size="40.0" fill="#778D95" transform="matrix(1.00, 0.00, -0.00, -1.00, 1074.4, 404.0)">p</text><text xml:space="preserve" font-family="Menlo-Regular" font-size="40.0" fill="#778D95" transform="matrix(1.00, 0.00, -0.00, -1.00, 1098.5, 404.0)">o</text><text xml:space="preserve" font-family="Menlo-Regular" font-size="40.0" fill="#778D95" transform="matrix(1.00, 0.00, -0.00, -1.00, 1122.6, 404.0)">w</text><text xml:space="preserve" font-family="Menlo-Regular" font-size="40.0" fill="#778D95" transform="matrix(1.00, 0.00, -0.00, -1.00, 1146.7, 404.0)">(</text><text xml:space="preserve" font-family="Menlo-Regular" font-size="40.0" fill="#778D95" transform="matrix(1.00, 0.00, -0.00, -1.00, 1170.8, 404.0)">a</text><text xml:space="preserve" font-family="Menlo-Regular" font-size="40.0" fill="#778D95" transform="matrix(1.00, 0.00, -0.00, -1.00, 1194.9, 404.0)">,</text><text xml:space="preserve" font-family="Menlo-Regular" font-size="40.0" fill="#778D95" transform="matrix(1.00, 0.00, -0.00, -1.00, 1218.9, 404.0)"> </text><text xml:space="preserve" font-family="Menlo-Regular" font-size="40.0" fill="#778D95" transform="matrix(1.00, 0.00, -0.00, -1.00, 1243.0, 404.0)">b</text><text xml:space="preserve" font-family="Menlo-Regular" font-size="40.0" fill="#778D95" transform="matrix(1.00, 0.00, -0.00, -1.00, 1267.1, 404.0)">)</text></g></g><g><clipPath id="clip-146"><path d="M -6.2 247.4 L 475.6 247.4 L 475.6 316.6 L -6.2 316.6 Z M -6.2 247.4 "></path></clipPath><g clip-path="url(#clip-146)"><text xml:space="preserve" font-family="Menlo-Regular" font-size="40.0" fill="#778D95" transform="matrix(1.00, 0.00, -0.00, -1.00, 5.0, 268.0)">(</text><text xml:space="preserve" font-family="Menlo-Regular" font-size="40.0" fill="#778D95" transform="matrix(1.00, 0.00, -0.00, -1.00, 29.1, 268.0)">a</text><text xml:space="preserve" font-family="Menlo-Regular" font-size="40.0" fill="#778D95" transform="matrix(1.00, 0.00, -0.00, -1.00, 53.2, 268.0)"> </text><text xml:space="preserve" font-family="Menlo-Regular" font-size="40.0" fill="#778D95" transform="matrix(1.00, 0.00, -0.00, -1.00, 77.3, 268.0)">+</text><text xml:space="preserve" font-family="Menlo-Regular" font-size="40.0" fill="#778D95" transform="matrix(1.00, 0.00, -0.00, -1.00, 101.3, 268.0)"> </text><text xml:space="preserve" font-family="Menlo-Regular" font-size="40.0" fill="#778D95" transform="matrix(1.00, 0.00, -0.00, -1.00, 125.4, 268.0)">1</text><text xml:space="preserve" font-family="Menlo-Regular" font-size="40.0" fill="#778D95" transform="matrix(1.00, 0.00, -0.00, -1.00, 149.5, 268.0)">)</text><text xml:space="preserve" font-family="Menlo-Regular" font-size="40.0" fill="#778D95" transform="matrix(1.00, 0.00, -0.00, -1.00, 173.6, 268.0)"> </text><text xml:space="preserve" font-family="Menlo-Regular" font-size="40.0" fill="#778D95" transform="matrix(1.00, 0.00, -0.00, -1.00, 197.7, 268.0)">*</text><text xml:space="preserve" font-family="Menlo-Regular" font-size="40.0" fill="#778D95" transform="matrix(1.00, 0.00, -0.00, -1.00, 221.8, 268.0)">*</text><text xml:space="preserve" font-family="Menlo-Regular" font-size="40.0" fill="#778D95" transform="matrix(1.00, 0.00, -0.00, -1.00, 245.9, 268.0)"> </text><text xml:space="preserve" font-family="Menlo-Regular" font-size="40.0" fill="#778D95" transform="matrix(1.00, 0.00, -0.00, -1.00, 269.9, 268.0)">(</text><text xml:space="preserve" font-family="Menlo-Regular" font-size="40.0" fill="#778D95" transform="matrix(1.00, 0.00, -0.00, -1.00, 294.0, 268.0)">b</text><text xml:space="preserve" font-family="Menlo-Regular" font-size="40.0" fill="#778D95" transform="matrix(1.00, 0.00, -0.00, -1.00, 318.1, 268.0)"> </text><text xml:space="preserve" font-family="Menlo-Regular" font-size="40.0" fill="#778D95" transform="matrix(1.00, 0.00, -0.00, -1.00, 342.2, 268.0)">|</text><text xml:space="preserve" font-family="Menlo-Regular" font-size="40.0" fill="#778D95" transform="matrix(1.00, 0.00, -0.00, -1.00, 366.3, 268.0)">|</text><text xml:space="preserve" font-family="Menlo-Regular" font-size="40.0" fill="#778D95" transform="matrix(1.00, 0.00, -0.00, -1.00, 390.4, 268.0)"> </text><text xml:space="preserve" font-family="Menlo-Regular" font-size="40.0" fill="#778D95" transform="matrix(1.00, 0.00, -0.00, -1.00, 414.5, 268.0)">c</text><text xml:space="preserve" font-family="Menlo-Regular" font-size="40.0" fill="#778D95" transform="matrix(1.00, 0.00, -0.00, -1.00, 438.5, 268.0)">)</text></g></g><g><clipPath id="clip-147"><path d="M 833.9 247.4 L 1412.1 247.4 L 1412.1 316.6 L 833.9 316.6 Z M 833.9 247.4 "></path></clipPath><g clip-path="url(#clip-147)"><text xml:space="preserve" font-family="Menlo-Regular" font-size="40.0" fill="#778D95" transform="matrix(1.00, 0.00, -0.00, -1.00, 846.0, 268.0)">M</text><text xml:space="preserve" font-family="Menlo-Regular" font-size="40.0" fill="#778D95" transform="matrix(1.00, 0.00, -0.00, -1.00, 870.1, 268.0)">a</text><text xml:space="preserve" font-family="Menlo-Regular" font-size="40.0" fill="#778D95" transform="matrix(1.00, 0.00, -0.00, -1.00, 894.2, 268.0)">t</text><text xml:space="preserve" font-family="Menlo-Regular" font-size="40.0" fill="#778D95" transform="matrix(1.00, 0.00, -0.00, -1.00, 918.3, 268.0)">h</text><text xml:space="preserve" font-family="Menlo-Regular" font-size="40.0" fill="#778D95" transform="matrix(1.00, 0.00, -0.00, -1.00, 942.3, 268.0)">.</text><text xml:space="preserve" font-family="Menlo-Regular" font-size="40.0" fill="#778D95" transform="matrix(1.00, 0.00, -0.00, -1.00, 966.4, 268.0)">p</text><text xml:space="preserve" font-family="Menlo-Regular" font-size="40.0" fill="#778D95" transform="matrix(1.00, 0.00, -0.00, -1.00, 990.5, 268.0)">o</text><text xml:space="preserve" font-family="Menlo-Regular" font-size="40.0" fill="#778D95" transform="matrix(1.00, 0.00, -0.00, -1.00, 1014.6, 268.0)">w</text><text xml:space="preserve" font-family="Menlo-Regular" font-size="40.0" fill="#778D95" transform="matrix(1.00, 0.00, -0.00, -1.00, 1038.7, 268.0)">(</text><text xml:space="preserve" font-family="Menlo-Regular" font-size="40.0" fill="#778D95" transform="matrix(1.00, 0.00, -0.00, -1.00, 1062.8, 268.0)">a</text><text xml:space="preserve" font-family="Menlo-Regular" font-size="40.0" fill="#778D95" transform="matrix(1.00, 0.00, -0.00, -1.00, 1086.9, 268.0)"> </text><text xml:space="preserve" font-family="Menlo-Regular" font-size="40.0" fill="#778D95" transform="matrix(1.00, 0.00, -0.00, -1.00, 1110.9, 268.0)">+</text><text xml:space="preserve" font-family="Menlo-Regular" font-size="40.0" fill="#778D95" transform="matrix(1.00, 0.00, -0.00, -1.00, 1135.0, 268.0)"> </text><text xml:space="preserve" font-family="Menlo-Regular" font-size="40.0" fill="#778D95" transform="matrix(1.00, 0.00, -0.00, -1.00, 1159.1, 268.0)">1</text><text xml:space="preserve" font-family="Menlo-Regular" font-size="40.0" fill="#778D95" transform="matrix(1.00, 0.00, -0.00, -1.00, 1183.2, 268.0)">,</text><text xml:space="preserve" font-family="Menlo-Regular" font-size="40.0" fill="#778D95" transform="matrix(1.00, 0.00, -0.00, -1.00, 1207.3, 268.0)"> </text><text xml:space="preserve" font-family="Menlo-Regular" font-size="40.0" fill="#778D95" transform="matrix(1.00, 0.00, -0.00, -1.00, 1231.4, 268.0)">b</text><text xml:space="preserve" font-family="Menlo-Regular" font-size="40.0" fill="#778D95" transform="matrix(1.00, 0.00, -0.00, -1.00, 1255.5, 268.0)"> </text><text xml:space="preserve" font-family="Menlo-Regular" font-size="40.0" fill="#778D95" transform="matrix(1.00, 0.00, -0.00, -1.00, 1279.5, 268.0)">|</text><text xml:space="preserve" font-family="Menlo-Regular" font-size="40.0" fill="#778D95" transform="matrix(1.00, 0.00, -0.00, -1.00, 1303.6, 268.0)">|</text><text xml:space="preserve" font-family="Menlo-Regular" font-size="40.0" fill="#778D95" transform="matrix(1.00, 0.00, -0.00, -1.00, 1327.7, 268.0)"> </text><text xml:space="preserve" font-family="Menlo-Regular" font-size="40.0" fill="#778D95" transform="matrix(1.00, 0.00, -0.00, -1.00, 1351.8, 268.0)">c</text><text xml:space="preserve" font-family="Menlo-Regular" font-size="40.0" fill="#778D95" transform="matrix(1.00, 0.00, -0.00, -1.00, 1375.8, 268.0)">)</text></g></g><g><clipPath id="clip-148"><path d="M 90.1 111.6 L 379.3 111.6 L 379.3 180.9 L 90.1 180.9 Z M 90.1 111.6 "></path></clipPath><g clip-path="url(#clip-148)"><text xml:space="preserve" font-family="Menlo-Regular" font-size="40.0" fill="#778D95" transform="matrix(1.00, 0.00, -0.00, -1.00, 102.0, 133.0)">a</text><text xml:space="preserve" font-family="Menlo-Regular" font-size="40.0" fill="#778D95" transform="matrix(1.00, 0.00, -0.00, -1.00, 126.1, 133.0)"> </text><text xml:space="preserve" font-family="Menlo-Regular" font-size="40.0" fill="#778D95" transform="matrix(1.00, 0.00, -0.00, -1.00, 150.2, 133.0)">*</text><text xml:space="preserve" font-family="Menlo-Regular" font-size="40.0" fill="#778D95" transform="matrix(1.00, 0.00, -0.00, -1.00, 174.3, 133.0)">*</text><text xml:space="preserve" font-family="Menlo-Regular" font-size="40.0" fill="#778D95" transform="matrix(1.00, 0.00, -0.00, -1.00, 198.3, 133.0)"> </text><text xml:space="preserve" font-family="Menlo-Regular" font-size="40.0" fill="#778D95" transform="matrix(1.00, 0.00, -0.00, -1.00, 222.4, 133.0)">b</text><text xml:space="preserve" font-family="Menlo-Regular" font-size="40.0" fill="#778D95" transform="matrix(1.00, 0.00, -0.00, -1.00, 246.5, 133.0)"> </text><text xml:space="preserve" font-family="Menlo-Regular" font-size="40.0" fill="#778D95" transform="matrix(1.00, 0.00, -0.00, -1.00, 270.6, 133.0)">*</text><text xml:space="preserve" font-family="Menlo-Regular" font-size="40.0" fill="#778D95" transform="matrix(1.00, 0.00, -0.00, -1.00, 294.7, 133.0)">*</text><text xml:space="preserve" font-family="Menlo-Regular" font-size="40.0" fill="#778D95" transform="matrix(1.00, 0.00, -0.00, -1.00, 318.8, 133.0)"> </text><text xml:space="preserve" font-family="Menlo-Regular" font-size="40.0" fill="#778D95" transform="matrix(1.00, 0.00, -0.00, -1.00, 342.9, 133.0)">c</text></g></g><g><clipPath id="clip-149"><path d="M 785.7 111.6 L 1460.2 111.6 L 1460.2 180.9 L 785.7 180.9 Z M 785.7 111.6 "></path></clipPath><g clip-path="url(#clip-149)"><text xml:space="preserve" font-family="Menlo-Regular" font-size="40.0" fill="#778D95" transform="matrix(1.00, 0.00, -0.00, -1.00, 797.0, 133.0)">M</text><text xml:space="preserve" font-family="Menlo-Regular" font-size="40.0" fill="#778D95" transform="matrix(1.00, 0.00, -0.00, -1.00, 821.1, 133.0)">a</text><text xml:space="preserve" font-family="Menlo-Regular" font-size="40.0" fill="#778D95" transform="matrix(1.00, 0.00, -0.00, -1.00, 845.2, 133.0)">t</text><text xml:space="preserve" font-family="Menlo-Regular" font-size="40.0" fill="#778D95" transform="matrix(1.00, 0.00, -0.00, -1.00, 869.3, 133.0)">h</text><text xml:space="preserve" font-family="Menlo-Regular" font-size="40.0" fill="#778D95" transform="matrix(1.00, 0.00, -0.00, -1.00, 893.3, 133.0)">.</text><text xml:space="preserve" font-family="Menlo-Regular" font-size="40.0" fill="#778D95" transform="matrix(1.00, 0.00, -0.00, -1.00, 917.4, 133.0)">p</text><text xml:space="preserve" font-family="Menlo-Regular" font-size="40.0" fill="#778D95" transform="matrix(1.00, 0.00, -0.00, -1.00, 941.5, 133.0)">o</text><text xml:space="preserve" font-family="Menlo-Regular" font-size="40.0" fill="#778D95" transform="matrix(1.00, 0.00, -0.00, -1.00, 965.6, 133.0)">w</text><text xml:space="preserve" font-family="Menlo-Regular" font-size="40.0" fill="#778D95" transform="matrix(1.00, 0.00, -0.00, -1.00, 989.7, 133.0)">(</text><text xml:space="preserve" font-family="Menlo-Regular" font-size="40.0" fill="#778D95" transform="matrix(1.00, 0.00, -0.00, -1.00, 1013.8, 133.0)">a</text><text xml:space="preserve" font-family="Menlo-Regular" font-size="40.0" fill="#778D95" transform="matrix(1.00, 0.00, -0.00, -1.00, 1037.9, 133.0)">,</text><text xml:space="preserve" font-family="Menlo-Regular" font-size="40.0" fill="#778D95" transform="matrix(1.00, 0.00, -0.00, -1.00, 1061.9, 133.0)"> </text><text xml:space="preserve" font-family="Menlo-Regular" font-size="40.0" fill="#778D95" transform="matrix(1.00, 0.00, -0.00, -1.00, 1086.0, 133.0)">M</text><text xml:space="preserve" font-family="Menlo-Regular" font-size="40.0" fill="#778D95" transform="matrix(1.00, 0.00, -0.00, -1.00, 1110.1, 133.0)">a</text><text xml:space="preserve" font-family="Menlo-Regular" font-size="40.0" fill="#778D95" transform="matrix(1.00, 0.00, -0.00, -1.00, 1134.2, 133.0)">t</text><text xml:space="preserve" font-family="Menlo-Regular" font-size="40.0" fill="#778D95" transform="matrix(1.00, 0.00, -0.00, -1.00, 1158.3, 133.0)">h</text><text xml:space="preserve" font-family="Menlo-Regular" font-size="40.0" fill="#778D95" transform="matrix(1.00, 0.00, -0.00, -1.00, 1182.4, 133.0)">.</text><text xml:space="preserve" font-family="Menlo-Regular" font-size="40.0" fill="#778D95" transform="matrix(1.00, 0.00, -0.00, -1.00, 1206.5, 133.0)">p</text><text xml:space="preserve" font-family="Menlo-Regular" font-size="40.0" fill="#778D95" transform="matrix(1.00, 0.00, -0.00, -1.00, 1230.5, 133.0)">o</text><text xml:space="preserve" font-family="Menlo-Regular" font-size="40.0" fill="#778D95" transform="matrix(1.00, 0.00, -0.00, -1.00, 1254.6, 133.0)">w</text><text xml:space="preserve" font-family="Menlo-Regular" font-size="40.0" fill="#778D95" transform="matrix(1.00, 0.00, -0.00, -1.00, 1278.7, 133.0)">(</text><text xml:space="preserve" font-family="Menlo-Regular" font-size="40.0" fill="#778D95" transform="matrix(1.00, 0.00, -0.00, -1.00, 1302.8, 133.0)">b</text><text xml:space="preserve" font-family="Menlo-Regular" font-size="40.0" fill="#778D95" transform="matrix(1.00, 0.00, -0.00, -1.00, 1326.9, 133.0)">,</text><text xml:space="preserve" font-family="Menlo-Regular" font-size="40.0" fill="#778D95" transform="matrix(1.00, 0.00, -0.00, -1.00, 1351.0, 133.0)"> </text><text xml:space="preserve" font-family="Menlo-Regular" font-size="40.0" fill="#778D95" transform="matrix(1.00, 0.00, -0.00, -1.00, 1375.1, 133.0)">c</text><text xml:space="preserve" font-family="Menlo-Regular" font-size="40.0" fill="#778D95" transform="matrix(1.00, 0.00, -0.00, -1.00, 1399.2, 133.0)">)</text><text xml:space="preserve" font-family="Menlo-Regular" font-size="40.0" fill="#778D95" transform="matrix(1.00, 0.00, -0.00, -1.00, 1423.2, 133.0)">)</text></g></g><g><clipPath id="clip-150"><path d="M 162.3 -6.4 L 307.0 -6.4 L 307.0 62.9 L 162.3 62.9 Z M 162.3 -6.4 "></path></clipPath><g clip-path="url(#clip-150)"><text xml:space="preserve" font-family="Menlo-Regular" font-size="40.0" fill="#778D95" transform="matrix(1.00, 0.00, -0.00, -1.00, 174.0, 15.0)">a</text><text xml:space="preserve" font-family="Menlo-Regular" font-size="40.0" fill="#778D95" transform="matrix(1.00, 0.00, -0.00, -1.00, 198.1, 15.0)"> </text><text xml:space="preserve" font-family="Menlo-Regular" font-size="40.0" fill="#778D95" transform="matrix(1.00, 0.00, -0.00, -1.00, 222.2, 15.0)">+</text><text xml:space="preserve" font-family="Menlo-Regular" font-size="40.0" fill="#778D95" transform="matrix(1.00, 0.00, -0.00, -1.00, 246.3, 15.0)"> </text><text xml:space="preserve" font-family="Menlo-Regular" font-size="40.0" fill="#778D95" transform="matrix(1.00, 0.00, -0.00, -1.00, 270.3, 15.0)">b</text></g></g><g><clipPath id="clip-151"><path d="M 1050.6 -6.4 L 1195.3 -6.4 L 1195.3 62.9 L 1050.6 62.9 Z M 1050.6 -6.4 "></path></clipPath><g clip-path="url(#clip-151)"><text xml:space="preserve" font-family="Menlo-Regular" font-size="40.0" fill="#778D95" transform="matrix(1.00, 0.00, -0.00, -1.00, 1062.0, 15.0)">a</text><text xml:space="preserve" font-family="Menlo-Regular" font-size="40.0" fill="#778D95" transform="matrix(1.00, 0.00, -0.00, -1.00, 1086.1, 15.0)"> </text><text xml:space="preserve" font-family="Menlo-Regular" font-size="40.0" fill="#778D95" transform="matrix(1.00, 0.00, -0.00, -1.00, 1110.2, 15.0)">+</text><text xml:space="preserve" font-family="Menlo-Regular" font-size="40.0" fill="#778D95" transform="matrix(1.00, 0.00, -0.00, -1.00, 1134.3, 15.0)"> </text><text xml:space="preserve" font-family="Menlo-Regular" font-size="40.0" fill="#778D95" transform="matrix(1.00, 0.00, -0.00, -1.00, 1158.3, 15.0)">b</text></g></g></g></svg>