<?xml version="1.0" encoding="UTF-8" standalone="no"?><svg xmlns="http://www.w3.org/2000/svg" xmlns:xlink="http://www.w3.org/1999/xlink" clip-rule="evenodd" stroke-miterlimit="4.00" viewBox="0 0 1920 1080"><desc>SVG generated by Keynote</desc><defs></defs><g transform="matrix(1.00, 0.00, -0.00, -1.00, 0.0, 1080.0)"><path d="M 0.0 1080.0 L 1920.0 1080.0 L 1920.0 0.0 L 0.0 0.0 Z M 0.0 1080.0 " fill="#FEFFFE"></path><g><clipPath id="clip-152"><path d="M 383.3 775.4 L 552.1 775.4 L 552.1 844.6 L 383.3 844.6 Z M 383.3 775.4 "></path></clipPath><g clip-path="url(#clip-152)"><text xml:space="preserve" font-family="Menlo-Regular" font-size="40.0" fill="#778D95" transform="matrix(1.00, 0.00, -0.00, -1.00, 395.0, 796.0)">2</text><text xml:space="preserve" font-family="Menlo-Regular" font-size="40.0" fill="#778D95" transform="matrix(1.00, 0.00, -0.00, -1.00, 419.1, 796.0)"> </text><text xml:space="preserve" font-family="Menlo-Regular" font-size="40.0" fill="#778D95" transform="matrix(1.00, 0.00, -0.00, -1.00, 443.2, 796.0)">*</text><text xml:space="preserve" font-family="Menlo-Regular" font-size="40.0" fill="#778D95" transform="matrix(1.00, 0.00, -0.00, -1.00, 467.3, 796.0)">*</text><text xml:space="preserve" font-family="Menlo-Regular" font-size="40.0" fill="#778D95" transform="matrix(1.00, 0.00, -0.00, -1.00, 491.3, 796.0)"> </text><text xml:space="preserve" font-family="Menlo-Regular" font-size="40.0" fill="#778D95" transform="matrix(1.00, 0.00, -0.00, -1.00, 515.4, 796.0)">3</text></g></g><g><clipPath id="clip-153"><path d="M 1175.3 775.4 L 1536.7 775.4 L 1536.7 844.6 L 1175.3 844.6 Z M 1175.3 775.4 "></path></clipPath><g clip-path="url(#clip-153)"><text xml:space="preserve" font-family="Menlo-Regular" font-size="40.0" fill="#778D95" transform="matrix(1.00, 0.00, -0.00, -1.00, 1187.0, 796.0)">M</text><text xml:space="preserve" font-family="Menlo-Regular" font-size="40.0" fill="#778D95" transform="matrix(1.00, 0.00, -0.00, -1.00, 1211.1, 796.0)">a</text><text xml:space="preserve" font-family="Menlo-Regular" font-size="40.0" fill="#778D95" transform="matrix(1.00, 0.00, -0.00, -1.00, 1235.2, 796.0)">t</text><text xml:space="preserve" font-family="Menlo-Regular" font-size="40.0" fill="#778D95" transform="matrix(1.00, 0.00, -0.00, -1.00, 1259.3, 796.0)">h</text><text xml:space="preserve" font-family="Menlo-Regular" font-size="40.0" fill="#778D95" transform="matrix(1.00, 0.00, -0.00, -1.00, 1283.3, 796.0)">.</text><text xml:space="preserve" font-family="Menlo-Regular" font-size="40.0" fill="#778D95" transform="matrix(1.00, 0.00, -0.00, -1.00, 1307.4, 796.0)">p</text><text xml:space="preserve" font-family="Menlo-Regular" font-size="40.0" fill="#778D95" transform="matrix(1.00, 0.00, -0.00, -1.00, 1331.5, 796.0)">o</text><text xml:space="preserve" font-family="Menlo-Regular" font-size="40.0" fill="#778D95" transform="matrix(1.00, 0.00, -0.00, -1.00, 1355.6, 796.0)">w</text><text xml:space="preserve" font-family="Menlo-Regular" font-size="40.0" fill="#778D95" transform="matrix(1.00, 0.00, -0.00, -1.00, 1379.7, 796.0)">(</text><text xml:space="preserve" font-family="Menlo-Regular" font-size="40.0" fill="#778D95" transform="matrix(1.00, 0.00, -0.00, -1.00, 1403.8, 796.0)">2</text><text xml:space="preserve" font-family="Menlo-Regular" font-size="40.0" fill="#778D95" transform="matrix(1.00, 0.00, -0.00, -1.00, 1427.9, 796.0)">,</text><text xml:space="preserve" font-family="Menlo-Regular" font-size="40.0" fill="#778D95" transform="matrix(1.00, 0.00, -0.00, -1.00, 1451.9, 796.0)"> </text><text xml:space="preserve" font-family="Menlo-Regular" font-size="40.0" fill="#778D95" transform="matrix(1.00, 0.00, -0.00, -1.00, 1476.0, 796.0)">3</text><text xml:space="preserve" font-family="Menlo-Regular" font-size="40.0" fill="#778D95" transform="matrix(1.00, 0.00, -0.00, -1.00, 1500.1, 796.0)">)</text></g></g><text xml:space="preserve" font-family="HelveticaNeue-Light" font-size="50.0" fill="#000000" transform="matrix(1.00, 0.00, -0.00, -1.00, 438.0, 933.0)">L</text><text xml:space="preserve" font-family="HelveticaNeue-Light" font-size="50.0" fill="#000000" transform="matrix(1.00, 0.00, -0.00, -1.00, 464.9, 933.0)">e</text><text xml:space="preserve" font-family="HelveticaNeue-Light" font-size="50.0" fill="#000000" transform="matrix(1.00, 0.00, -0.00, -1.00, 490.8, 933.0)">t</text><text xml:space="preserve" font-family="HelveticaNeue-Light" font-size="50.0" fill="#000000" transform="matrix(1.00, 0.00, -0.00, -1.00, 505.6, 933.0)">’</text><text xml:space="preserve" font-family="HelveticaNeue-Light" font-size="50.0" fill="#000000" transform="matrix(1.00, 0.00, -0.00, -1.00, 514.0, 933.0)">s</text><text xml:space="preserve" font-family="HelveticaNeue-Light" font-size="50.0" fill="#000000" transform="matrix(1.00, 0.00, -0.00, -1.00, 538.0, 933.0)"> </text><text xml:space="preserve" font-family="HelveticaNeue-Light" font-size="50.0" fill="#000000" transform="matrix(1.00, 0.00, -0.00, -1.00, 551.9, 933.0)">m</text><text xml:space="preserve" font-family="HelveticaNeue-Light" font-size="50.0" fill="#000000" transform="matrix(1.00, 0.00, -0.00, -1.00, 593.5, 933.0)">a</text><text xml:space="preserve" font-family="HelveticaNeue-Light" font-size="50.0" fill="#000000" transform="matrix(1.00, 0.00, -0.00, -1.00, 619.5, 933.0)">k</text><text xml:space="preserve" font-family="HelveticaNeue-Light" font-size="50.0" fill="#000000" transform="matrix(1.00, 0.00, -0.00, -1.00, 644.5, 933.0)">e</text><text xml:space="preserve" font-family="HelveticaNeue-Light" font-size="50.0" fill="#000000" transform="matrix(1.00, 0.00, -0.00, -1.00, 670.5, 933.0)"> </text><text xml:space="preserve" font-family="HelveticaNeue-Light" font-size="50.0" fill="#000000" transform="matrix(1.00, 0.00, -0.00, -1.00, 684.4, 933.0)">t</text><text xml:space="preserve" font-family="HelveticaNeue-Light" font-size="50.0" fill="#000000" transform="matrix(1.00, 0.00, -0.00, -1.00, 699.1, 933.0)">h</text><text xml:space="preserve" font-family="HelveticaNeue-Light" font-size="50.0" fill="#000000" transform="matrix(1.00, 0.00, -0.00, -1.00, 726.0, 933.0)">e</text><text xml:space="preserve" font-family="HelveticaNeue-Light" font-size="50.0" fill="#000000" transform="matrix(1.00, 0.00, -0.00, -1.00, 752.0, 933.0)"> </text><text xml:space="preserve" font-family="HelveticaNeue-Light" font-size="50.0" fill="#000000" transform="matrix(1.00, 0.00, -0.00, -1.00, 765.8, 933.0)">e</text><text xml:space="preserve" font-family="HelveticaNeue-Light" font-size="50.0" fill="#000000" transform="matrix(1.00, 0.00, -0.00, -1.00, 791.8, 933.0)">x</text><text xml:space="preserve" font-family="HelveticaNeue-Light" font-size="50.0" fill="#000000" transform="matrix(1.00, 0.00, -0.00, -1.00, 815.8, 933.0)">p</text><text xml:space="preserve" font-family="HelveticaNeue-Light" font-size="50.0" fill="#000000" transform="matrix(1.00, 0.00, -0.00, -1.00, 844.5, 933.0)">o</text><text xml:space="preserve" font-family="HelveticaNeue-Light" font-size="50.0" fill="#000000" transform="matrix(1.00, 0.00, -0.00, -1.00, 872.3, 933.0)">n</text><text xml:space="preserve" font-family="HelveticaNeue-Light" font-size="50.0" fill="#000000" transform="matrix(1.00, 0.00, -0.00, -1.00, 899.2, 933.0)">e</text><text xml:space="preserve" font-family="HelveticaNeue-Light" font-size="50.0" fill="#000000" transform="matrix(1.00, 0.00, -0.00, -1.00, 925.1, 933.0)">n</text><text xml:space="preserve" font-family="HelveticaNeue-Light" font-size="50.0" fill="#000000" transform="matrix(1.00, 0.00, -0.00, -1.00, 952.0, 933.0)">t</text><text xml:space="preserve" font-family="HelveticaNeue-Light" font-size="50.0" fill="#000000" transform="matrix(1.00, 0.00, -0.00, -1.00, 966.8, 933.0)">i</text><text xml:space="preserve" font-family="HelveticaNeue-Light" font-size="50.0" fill="#000000" transform="matrix(1.00, 0.00, -0.00, -1.00, 976.0, 933.0)">a</text><text xml:space="preserve" font-family="HelveticaNeue-Light" font-size="50.0" fill="#000000" transform="matrix(1.00, 0.00, -0.00, -1.00, 1002.0, 933.0)">t</text><text xml:space="preserve" font-family="HelveticaNeue-Light" font-size="50.0" fill="#000000" transform="matrix(1.00, 0.00, -0.00, -1.00, 1016.8, 933.0)">i</text><text xml:space="preserve" font-family="HelveticaNeue-Light" font-size="50.0" fill="#000000" transform="matrix(1.00, 0.00, -0.00, -1.00, 1026.0, 933.0)">o</text><text xml:space="preserve" font-family="HelveticaNeue-Light" font-size="50.0" fill="#000000" transform="matrix(1.00, 0.00, -0.00, -1.00, 1053.8, 933.0)">n</text><text xml:space="preserve" font-family="HelveticaNeue-Light" font-size="50.0" fill="#000000" transform="matrix(1.00, 0.00, -0.00, -1.00, 1080.7, 933.0)"> </text><text xml:space="preserve" font-family="HelveticaNeue-Light" font-size="50.0" fill="#000000" transform="matrix(1.00, 0.00, -0.00, -1.00, 1094.6, 933.0)">p</text><text xml:space="preserve" font-family="HelveticaNeue-Light" font-size="50.0" fill="#000000" transform="matrix(1.00, 0.00, -0.00, -1.00, 1123.3, 933.0)">l</text><text xml:space="preserve" font-family="HelveticaNeue-Light" font-size="50.0" fill="#000000" transform="matrix(1.00, 0.00, -0.00, -1.00, 1132.5, 933.0)">u</text><text xml:space="preserve" font-family="HelveticaNeue-Light" font-size="50.0" fill="#000000" transform="matrix(1.00, 0.00, -0.00, -1.00, 1159.4, 933.0)">g</text><text xml:space="preserve" font-family="HelveticaNeue-Light" font-size="50.0" fill="#000000" transform="matrix(1.00, 0.00, -0.00, -1.00, 1187.2, 933.0)">i</text><text xml:space="preserve" font-family="HelveticaNeue-Light" font-size="50.0" fill="#000000" transform="matrix(1.00, 0.00, -0.00, -1.00, 1196.4, 933.0)">n</text><text xml:space="preserve" font-family="HelveticaNeue-Light" font-size="50.0" fill="#000000" transform="matrix(1.00, 0.00, -0.00, -1.00, 1223.3, 933.0)"> </text><text xml:space="preserve" font-family="HelveticaNeue-Light" font-size="50.0" fill="#000000" transform="matrix(1.00, 0.00, -0.00, -1.00, 1237.2, 933.0)">(</text><text xml:space="preserve" font-family="HelveticaNeue-Light" font-size="50.0" fill="#000000" transform="matrix(1.00, 0.00, -0.00, -1.00, 1249.2, 933.0)">E</text><text xml:space="preserve" font-family="HelveticaNeue-Light" font-size="50.0" fill="#000000" transform="matrix(1.00, 0.00, -0.00, -1.00, 1278.9, 933.0)">S</text><text xml:space="preserve" font-family="HelveticaNeue-Light" font-size="50.0" fill="#000000" transform="matrix(1.00, 0.00, -0.00, -1.00, 1310.4, 933.0)">2</text><text xml:space="preserve" font-family="HelveticaNeue-Light" font-size="50.0" fill="#000000" transform="matrix(1.00, 0.00, -0.00, -1.00, 1338.2, 933.0)">0</text><text xml:space="preserve" font-family="HelveticaNeue-Light" font-size="50.0" fill="#000000" transform="matrix(1.00, 0.00, -0.00, -1.00, 1366.0, 933.0)">1</text><text xml:space="preserve" font-family="HelveticaNeue-Light" font-size="50.0" fill="#000000" transform="matrix(1.00, 0.00, -0.00, -1.00, 1393.8, 933.0)">6</text><text xml:space="preserve" font-family="HelveticaNeue-Light" font-size="50.0" fill="#000000" transform="matrix(1.00, 0.00, -0.00, -1.00, 1421.6, 933.0)">)</text><text xml:space="preserve" font-family="HelveticaNeue-Light" font-size="50.0" fill="#000000" transform="matrix(1.00, 0.00, -0.00, -1.00, 1433.6, 933.0)">!</text><g><clipPath id="clip-154"><path d="M 383.3 639.4 L 552.1 639.4 L 552.1 708.6 L 383.3 708.6 Z M 383.3 639.4 "></path></clipPath><g clip-path="url(#clip-154)"><text xml:space="preserve" font-family="Menlo-Regular" font-size="40.0" fill="#778D95" transform="matrix(1.00, 0.00, -0.00, -1.00, 395.0, 660.0)">a</text><text xml:space="preserve" font-family="Menlo-Regular" font-size="40.0" fill="#778D95" transform="matrix(1.00, 0.00, -0.00, -1.00, 419.1, 660.0)"> </text><text xml:space="preserve" font-family="Menlo-Regular" font-size="40.0" fill="#778D95" transform="matrix(1.00, 0.00, -0.00, -1.00, 443.2, 660.0)">*</text><text xml:space="preserve" font-family="Menlo-Regular" font-size="40.0" fill="#778D95" transform="matrix(1.00, 0.00, -0.00, -1.00, 467.3, 660.0)">*</text><text xml:space="preserve" font-family="Menlo-Regular" font-size="40.0" fill="#778D95" transform="matrix(1.00, 0.00, -0.00, -1.00, 491.3, 660.0)"> </text><text xml:space="preserve" font-family="Menlo-Regular" font-size="40.0" fill="#778D95" transform="matrix(1.00, 0.00, -0.00, -1.00, 515.4, 660.0)">b</text></g></g><g><clipPath id="clip-155"><path d="M 1175.3 639.4 L 1536.7 639.4 L 1536.7 708.6 L 1175.3 708.6 Z M 1175.3 639.4 "></path></clipPath><g clip-path="url(#clip-155)"><text xml:space="preserve" font-family="Menlo-Regular" font-size="40.0" fill="#778D95" transform="matrix(1.00, 0.00, -0.00, -1.00, 1187.0, 660.0)">M</text><text xml:space="preserve" font-family="Menlo-Regular" font-size="40.0" fill="#778D95" transform="matrix(1.00, 0.00, -0.00, -1.00, 1211.1, 660.0)">a</text><text xml:space="preserve" font-family="Menlo-Regular" font-size="40.0" fill="#778D95" transform="matrix(1.00, 0.00, -0.00, -1.00, 1235.2, 660.0)">t</text><text xml:space="preserve" font-family="Menlo-Regular" font-size="40.0" fill="#778D95" transform="matrix(1.00, 0.00, -0.00, -1.00, 1259.3, 660.0)">h</text><text xml:space="preserve" font-family="Menlo-Regular" font-size="40.0" fill="#778D95" transform="matrix(1.00, 0.00, -0.00, -1.00, 1283.3, 660.0)">.</text><text xml:space="preserve" font-family="Menlo-Regular" font-size="40.0" fill="#778D95" transform="matrix(1.00, 0.00, -0.00, -1.00, 1307.4, 660.0)">p</text><text xml:space="preserve" font-family="Menlo-Regular" font-size="40.0" fill="#778D95" transform="matrix(1.00, 0.00, -0.00, -1.00, 1331.5, 660.0)">o</text><text xml:space="preserve" font-family="Menlo-Regular" font-size="40.0" fill="#778D95" transform="matrix(1.00, 0.00, -0.00, -1.00, 1355.6, 660.0)">w</text><text xml:space="preserve" font-family="Menlo-Regular" font-size="40.0" fill="#778D95" transform="matrix(1.00, 0.00, -0.00, -1.00, 1379.7, 660.0)">(</text><text xml:space="preserve" font-family="Menlo-Regular" font-size="40.0" fill="#778D95" transform="matrix(1.00, 0.00, -0.00, -1.00, 1403.8, 660.0)">a</text><text xml:space="preserve" font-family="Menlo-Regular" font-size="40.0" fill="#778D95" transform="matrix(1.00, 0.00, -0.00, -1.00, 1427.9, 660.0)">,</text><text xml:space="preserve" font-family="Menlo-Regular" font-size="40.0" fill="#778D95" transform="matrix(1.00, 0.00, -0.00, -1.00, 1451.9, 660.0)"> </text><text xml:space="preserve" font-family="Menlo-Regular" font-size="40.0" fill="#778D95" transform="matrix(1.00, 0.00, -0.00, -1.00, 1476.0, 660.0)">b</text><text xml:space="preserve" font-family="Menlo-Regular" font-size="40.0" fill="#778D95" transform="matrix(1.00, 0.00, -0.00, -1.00, 1500.1, 660.0)">)</text></g></g><g><clipPath id="clip-156"><path d="M 226.8 503.4 L 708.6 503.4 L 708.6 572.6 L 226.8 572.6 Z M 226.8 503.4 "></path></clipPath><g clip-path="url(#clip-156)"><text xml:space="preserve" font-family="Menlo-Regular" font-size="40.0" fill="#778D95" transform="matrix(1.00, 0.00, -0.00, -1.00, 238.0, 524.0)">(</text><text xml:space="preserve" font-family="Menlo-Regular" font-size="40.0" fill="#778D95" transform="matrix(1.00, 0.00, -0.00, -1.00, 262.1, 524.0)">a</text><text xml:space="preserve" font-family="Menlo-Regular" font-size="40.0" fill="#778D95" transform="matrix(1.00, 0.00, -0.00, -1.00, 286.2, 524.0)"> </text><text xml:space="preserve" font-family="Menlo-Regular" font-size="40.0" fill="#778D95" transform="matrix(1.00, 0.00, -0.00, -1.00, 310.3, 524.0)">+</text><text xml:space="preserve" font-family="Menlo-Regular" font-size="40.0" fill="#778D95" transform="matrix(1.00, 0.00, -0.00, -1.00, 334.3, 524.0)"> </text><text xml:space="preserve" font-family="Menlo-Regular" font-size="40.0" fill="#778D95" transform="matrix(1.00, 0.00, -0.00, -1.00, 358.4, 524.0)">1</text><text xml:space="preserve" font-family="Menlo-Regular" font-size="40.0" fill="#778D95" transform="matrix(1.00, 0.00, -0.00, -1.00, 382.5, 524.0)">)</text><text xml:space="preserve" font-family="Menlo-Regular" font-size="40.0" fill="#778D95" transform="matrix(1.00, 0.00, -0.00, -1.00, 406.6, 524.0)"> </text><text xml:space="preserve" font-family="Menlo-Regular" font-size="40.0" fill="#778D95" transform="matrix(1.00, 0.00, -0.00, -1.00, 430.7, 524.0)">*</text><text xml:space="preserve" font-family="Menlo-Regular" font-size="40.0" fill="#778D95" transform="matrix(1.00, 0.00, -0.00, -1.00, 454.8, 524.0)">*</text><text xml:space="preserve" font-family="Menlo-Regular" font-size="40.0" fill="#778D95" transform="matrix(1.00, 0.00, -0.00, -1.00, 478.9, 524.0)"> </text><text xml:space="preserve" font-family="Menlo-Regular" font-size="40.0" fill="#778D95" transform="matrix(1.00, 0.00, -0.00, -1.00, 502.9, 524.0)">(</text><text xml:space="preserve" font-family="Menlo-Regular" font-size="40.0" fill="#778D95" transform="matrix(1.00, 0.00, -0.00, -1.00, 527.0, 524.0)">b</text><text xml:space="preserve" font-family="Menlo-Regular" font-size="40.0" fill="#778D95" transform="matrix(1.00, 0.00, -0.00, -1.00, 551.1, 524.0)"> </text><text xml:space="preserve" font-family="Menlo-Regular" font-size="40.0" fill="#778D95" transform="matrix(1.00, 0.00, -0.00, -1.00, 575.2, 524.0)">|</text><text xml:space="preserve" font-family="Menlo-Regular" font-size="40.0" fill="#778D95" transform="matrix(1.00, 0.00, -0.00, -1.00, 599.3, 524.0)">|</text><text xml:space="preserve" font-family="Menlo-Regular" font-size="40.0" fill="#778D95" transform="matrix(1.00, 0.00, -0.00, -1.00, 623.4, 524.0)"> </text><text xml:space="preserve" font-family="Menlo-Regular" font-size="40.0" fill="#778D95" transform="matrix(1.00, 0.00, -0.00, -1.00, 647.5, 524.0)">c</text><text xml:space="preserve" font-family="Menlo-Regular" font-size="40.0" fill="#778D95" transform="matrix(1.00, 0.00, -0.00, -1.00, 671.5, 524.0)">)</text></g></g><g><clipPath id="clip-157"><path d="M 1066.9 503.4 L 1645.1 503.4 L 1645.1 572.6 L 1066.9 572.6 Z M 1066.9 503.4 "></path></clipPath><g clip-path="url(#clip-157)"><text xml:space="preserve" font-family="Menlo-Regular" font-size="40.0" fill="#778D95" transform="matrix(1.00, 0.00, -0.00, -1.00, 1079.0, 524.0)">M</text><text xml:space="preserve" font-family="Menlo-Regular" font-size="40.0" fill="#778D95" transform="matrix(1.00, 0.00, -0.00, -1.00, 1103.1, 524.0)">a</text><text xml:space="preserve" font-family="Menlo-Regular" font-size="40.0" fill="#778D95" transform="matrix(1.00, 0.00, -0.00, -1.00, 1127.2, 524.0)">t</text><text xml:space="preserve" font-family="Menlo-Regular" font-size="40.0" fill="#778D95" transform="matrix(1.00, 0.00, -0.00, -1.00, 1151.3, 524.0)">h</text><text xml:space="preserve" font-family="Menlo-Regular" font-size="40.0" fill="#778D95" transform="matrix(1.00, 0.00, -0.00, -1.00, 1175.3, 524.0)">.</text><text xml:space="preserve" font-family="Menlo-Regular" font-size="40.0" fill="#778D95" transform="matrix(1.00, 0.00, -0.00, -1.00, 1199.4, 524.0)">p</text><text xml:space="preserve" font-family="Menlo-Regular" font-size="40.0" fill="#778D95" transform="matrix(1.00, 0.00, -0.00, -1.00, 1223.5, 524.0)">o</text><text xml:space="preserve" font-family="Menlo-Regular" font-size="40.0" fill="#778D95" transform="matrix(1.00, 0.00, -0.00, -1.00, 1247.6, 524.0)">w</text><text xml:space="preserve" font-family="Menlo-Regular" font-size="40.0" fill="#778D95" transform="matrix(1.00, 0.00, -0.00, -1.00, 1271.7, 524.0)">(</text><text xml:space="preserve" font-family="Menlo-Regular" font-size="40.0" fill="#778D95" transform="matrix(1.00, 0.00, -0.00, -1.00, 1295.8, 524.0)">a</text><text xml:space="preserve" font-family="Menlo-Regular" font-size="40.0" fill="#778D95" transform="matrix(1.00, 0.00, -0.00, -1.00, 1319.9, 524.0)"> </text><text xml:space="preserve" font-family="Menlo-Regular" font-size="40.0" fill="#778D95" transform="matrix(1.00, 0.00, -0.00, -1.00, 1343.9, 524.0)">+</text><text xml:space="preserve" font-family="Menlo-Regular" font-size="40.0" fill="#778D95" transform="matrix(1.00, 0.00, -0.00, -1.00, 1368.0, 524.0)"> </text><text xml:space="preserve" font-family="Menlo-Regular" font-size="40.0" fill="#778D95" transform="matrix(1.00, 0.00, -0.00, -1.00, 1392.1, 524.0)">1</text><text xml:space="preserve" font-family="Menlo-Regular" font-size="40.0" fill="#778D95" transform="matrix(1.00, 0.00, -0.00, -1.00, 1416.2, 524.0)">,</text><text xml:space="preserve" font-family="Menlo-Regular" font-size="40.0" fill="#778D95" transform="matrix(1.00, 0.00, -0.00, -1.00, 1440.3, 524.0)"> </text><text xml:space="preserve" font-family="Menlo-Regular" font-size="40.0" fill="#778D95" transform="matrix(1.00, 0.00, -0.00, -1.00, 1464.4, 524.0)">b</text><text xml:space="preserve" font-family="Menlo-Regular" font-size="40.0" fill="#778D95" transform="matrix(1.00, 0.00, -0.00, -1.00, 1488.5, 524.0)"> </text><text xml:space="preserve" font-family="Menlo-Regular" font-size="40.0" fill="#778D95" transform="matrix(1.00, 0.00, -0.00, -1.00, 1512.5, 524.0)">|</text><text xml:space="preserve" font-family="Menlo-Regular" font-size="40.0" fill="#778D95" transform="matrix(1.00, 0.00, -0.00, -1.00, 1536.6, 524.0)">|</text><text xml:space="preserve" font-family="Menlo-Regular" font-size="40.0" fill="#778D95" transform="matrix(1.00, 0.00, -0.00, -1.00, 1560.7, 524.0)"> </text><text xml:space="preserve" font-family="Menlo-Regular" font-size="40.0" fill="#778D95" transform="matrix(1.00, 0.00, -0.00, -1.00, 1584.8, 524.0)">c</text><text xml:space="preserve" font-family="Menlo-Regular" font-size="40.0" fill="#778D95" transform="matrix(1.00, 0.00, -0.00, -1.00, 1608.8, 524.0)">)</text></g></g><g><clipPath id="clip-158"><path d="M 323.1 367.6 L 612.3 367.6 L 612.3 436.9 L 323.1 436.9 Z M 323.1 367.6 "></path></clipPath><g clip-path="url(#clip-158)"><text xml:space="preserve" font-family="Menlo-Regular" font-size="40.0" fill="#778D95" transform="matrix(1.00, 0.00, -0.00, -1.00, 335.0, 389.0)">a</text><text xml:space="preserve" font-family="Menlo-Regular" font-size="40.0" fill="#778D95" transform="matrix(1.00, 0.00, -0.00, -1.00, 359.1, 389.0)"> </text><text xml:space="preserve" font-family="Menlo-Regular" font-size="40.0" fill="#778D95" transform="matrix(1.00, 0.00, -0.00, -1.00, 383.2, 389.0)">*</text><text xml:space="preserve" font-family="Menlo-Regular" font-size="40.0" fill="#778D95" transform="matrix(1.00, 0.00, -0.00, -1.00, 407.3, 389.0)">*</text><text xml:space="preserve" font-family="Menlo-Regular" font-size="40.0" fill="#778D95" transform="matrix(1.00, 0.00, -0.00, -1.00, 431.3, 389.0)"> </text><text xml:space="preserve" font-family="Menlo-Regular" font-size="40.0" fill="#778D95" transform="matrix(1.00, 0.00, -0.00, -1.00, 455.4, 389.0)">b</text><text xml:space="preserve" font-family="Menlo-Regular" font-size="40.0" fill="#778D95" transform="matrix(1.00, 0.00, -0.00, -1.00, 479.5, 389.0)"> </text><text xml:space="preserve" font-family="Menlo-Regular" font-size="40.0" fill="#778D95" transform="matrix(1.00, 0.00, -0.00, -1.00, 503.6, 389.0)">*</text><text xml:space="preserve" font-family="Menlo-Regular" font-size="40.0" fill="#778D95" transform="matrix(1.00, 0.00, -0.00, -1.00, 527.7, 389.0)">*</text><text xml:space="preserve" font-family="Menlo-Regular" font-size="40.0" fill="#778D95" transform="matrix(1.00, 0.00, -0.00, -1.00, 551.8, 389.0)"> </text><text xml:space="preserve" font-family="Menlo-Regular" font-size="40.0" fill="#778D95" transform="matrix(1.00, 0.00, -0.00, -1.00, 575.9, 389.0)">c</text></g></g><g><clipPath id="clip-159"><path d="M 1018.7 367.6 L 1693.2 367.6 L 1693.2 436.9 L 1018.7 436.9 Z M 1018.7 367.6 "></path></clipPath><g clip-path="url(#clip-159)"><text xml:space="preserve" font-family="Menlo-Regular" font-size="40.0" fill="#778D95" transform="matrix(1.00, 0.00, -0.00, -1.00, 1030.0, 389.0)">M</text><text xml:space="preserve" font-family="Menlo-Regular" font-size="40.0" fill="#778D95" transform="matrix(1.00, 0.00, -0.00, -1.00, 1054.1, 389.0)">a</text><text xml:space="preserve" font-family="Menlo-Regular" font-size="40.0" fill="#778D95" transform="matrix(1.00, 0.00, -0.00, -1.00, 1078.2, 389.0)">t</text><text xml:space="preserve" font-family="Menlo-Regular" font-size="40.0" fill="#778D95" transform="matrix(1.00, 0.00, -0.00, -1.00, 1102.3, 389.0)">h</text><text xml:space="preserve" font-family="Menlo-Regular" font-size="40.0" fill="#778D95" transform="matrix(1.00, 0.00, -0.00, -1.00, 1126.3, 389.0)">.</text><text xml:space="preserve" font-family="Menlo-Regular" font-size="40.0" fill="#778D95" transform="matrix(1.00, 0.00, -0.00, -1.00, 1150.4, 389.0)">p</text><text xml:space="preserve" font-family="Menlo-Regular" font-size="40.0" fill="#778D95" transform="matrix(1.00, 0.00, -0.00, -1.00, 1174.5, 389.0)">o</text><text xml:space="preserve" font-family="Menlo-Regular" font-size="40.0" fill="#778D95" transform="matrix(1.00, 0.00, -0.00, -1.00, 1198.6, 389.0)">w</text><text xml:space="preserve" font-family="Menlo-Regular" font-size="40.0" fill="#778D95" transform="matrix(1.00, 0.00, -0.00, -1.00, 1222.7, 389.0)">(</text><text xml:space="preserve" font-family="Menlo-Regular" font-size="40.0" fill="#778D95" transform="matrix(1.00, 0.00, -0.00, -1.00, 1246.8, 389.0)">a</text><text xml:space="preserve" font-family="Menlo-Regular" font-size="40.0" fill="#778D95" transform="matrix(1.00, 0.00, -0.00, -1.00, 1270.9, 389.0)">,</text><text xml:space="preserve" font-family="Menlo-Regular" font-size="40.0" fill="#778D95" transform="matrix(1.00, 0.00, -0.00, -1.00, 1294.9, 389.0)"> </text><text xml:space="preserve" font-family="Menlo-Regular" font-size="40.0" fill="#778D95" transform="matrix(1.00, 0.00, -0.00, -1.00, 1319.0, 389.0)">M</text><text xml:space="preserve" font-family="Menlo-Regular" font-size="40.0" fill="#778D95" transform="matrix(1.00, 0.00, -0.00, -1.00, 1343.1, 389.0)">a</text><text xml:space="preserve" font-family="Menlo-Regular" font-size="40.0" fill="#778D95" transform="matrix(1.00, 0.00, -0.00, -1.00, 1367.2, 389.0)">t</text><text xml:space="preserve" font-family="Menlo-Regular" font-size="40.0" fill="#778D95" transform="matrix(1.00, 0.00, -0.00, -1.00, 1391.3, 389.0)">h</text><text xml:space="preserve" font-family="Menlo-Regular" font-size="40.0" fill="#778D95" transform="matrix(1.00, 0.00, -0.00, -1.00, 1415.4, 389.0)">.</text><text xml:space="preserve" font-family="Menlo-Regular" font-size="40.0" fill="#778D95" transform="matrix(1.00, 0.00, -0.00, -1.00, 1439.5, 389.0)">p</text><text xml:space="preserve" font-family="Menlo-Regular" font-size="40.0" fill="#778D95" transform="matrix(1.00, 0.00, -0.00, -1.00, 1463.5, 389.0)">o</text><text xml:space="preserve" font-family="Menlo-Regular" font-size="40.0" fill="#778D95" transform="matrix(1.00, 0.00, -0.00, -1.00, 1487.6, 389.0)">w</text><text xml:space="preserve" font-family="Menlo-Regular" font-size="40.0" fill="#778D95" transform="matrix(1.00, 0.00, -0.00, -1.00, 1511.7, 389.0)">(</text><text xml:space="preserve" font-family="Menlo-Regular" font-size="40.0" fill="#778D95" transform="matrix(1.00, 0.00, -0.00, -1.00, 1535.8, 389.0)">b</text><text xml:space="preserve" font-family="Menlo-Regular" font-size="40.0" fill="#778D95" transform="matrix(1.00, 0.00, -0.00, -1.00, 1559.9, 389.0)">,</text><text xml:space="preserve" font-family="Menlo-Regular" font-size="40.0" fill="#778D95" transform="matrix(1.00, 0.00, -0.00, -1.00, 1584.0, 389.0)"> </text><text xml:space="preserve" font-family="Menlo-Regular" font-size="40.0" fill="#778D95" transform="matrix(1.00, 0.00, -0.00, -1.00, 1608.1, 389.0)">c</text><text xml:space="preserve" font-family="Menlo-Regular" font-size="40.0" fill="#778D95" transform="matrix(1.00, 0.00, -0.00, -1.00, 1632.2, 389.0)">)</text><text xml:space="preserve" font-family="Menlo-Regular" font-size="40.0" fill="#778D95" transform="matrix(1.00, 0.00, -0.00, -1.00, 1656.2, 389.0)">)</text></g></g><g><clipPath id="clip-160"><path d="M 395.3 249.6 L 540.0 249.6 L 540.0 318.9 L 395.3 318.9 Z M 395.3 249.6 "></path></clipPath><g clip-path="url(#clip-160)"><text xml:space="preserve" font-family="Menlo-Regular" font-size="40.0" fill="#778D95" transform="matrix(1.00, 0.00, -0.00, -1.00, 407.0, 271.0)">a</text><text xml:space="preserve" font-family="Menlo-Regular" font-size="40.0" fill="#778D95" transform="matrix(1.00, 0.00, -0.00, -1.00, 431.1, 271.0)"> </text><text xml:space="preserve" font-family="Menlo-Regular" font-size="40.0" fill="#778D95" transform="matrix(1.00, 0.00, -0.00, -1.00, 455.2, 271.0)">+</text><text xml:space="preserve" font-family="Menlo-Regular" font-size="40.0" fill="#778D95" transform="matrix(1.00, 0.00, -0.00, -1.00, 479.3, 271.0)"> </text><text xml:space="preserve" font-family="Menlo-Regular" font-size="40.0" fill="#778D95" transform="matrix(1.00, 0.00, -0.00, -1.00, 503.3, 271.0)">b</text></g></g><g><clipPath id="clip-161"><path d="M 1283.6 249.6 L 1428.3 249.6 L 1428.3 318.9 L 1283.6 318.9 Z M 1283.6 249.6 "></path></clipPath><g clip-path="url(#clip-161)"><text xml:space="preserve" font-family="Menlo-Regular" font-size="40.0" fill="#778D95" transform="matrix(1.00, 0.00, -0.00, -1.00, 1295.0, 271.0)">a</text><text xml:space="preserve" font-family="Menlo-Regular" font-size="40.0" fill="#778D95" transform="matrix(1.00, 0.00, -0.00, -1.00, 1319.1, 271.0)"> </text><text xml:space="preserve" font-family="Menlo-Regular" font-size="40.0" fill="#778D95" transform="matrix(1.00, 0.00, -0.00, -1.00, 1343.2, 271.0)">+</text><text xml:space="preserve" font-family="Menlo-Regular" font-size="40.0" fill="#778D95" transform="matrix(1.00, 0.00, -0.00, -1.00, 1367.3, 271.0)"> </text><text xml:space="preserve" font-family="Menlo-Regular" font-size="40.0" fill="#778D95" transform="matrix(1.00, 0.00, -0.00, -1.00, 1391.3, 271.0)">b</text></g></g></g></svg>