<?xml version="1.0" encoding="UTF-8" standalone="no"?><svg xmlns="http://www.w3.org/2000/svg" xmlns:xlink="http://www.w3.org/1999/xlink" clip-rule="evenodd" stroke-miterlimit="4.00" viewBox="0 0 629 487"><desc>SVG generated by Keynote</desc><defs></defs><g transform="matrix(1.00, 0.00, -0.00, -1.00, 0.0, 487.0)"><text xml:space="preserve" font-family="Menlo-Regular" font-size="36.0" fill="#6A8188" transform="matrix(1.00, 0.00, -0.00, -1.00, 0.0, 456.0)">{</text><text xml:space="preserve" font-family="Menlo-Regular" font-size="36.0" fill="#000000" transform="matrix(1.00, 0.00, -0.00, -1.00, 21.7, 456.0)"> </text><text xml:space="preserve" font-family="Menlo-Regular" font-size="36.0" fill="#000000" transform="matrix(1.00, 0.00, -0.00, -1.00, 0.0, 415.0)"> </text><text xml:space="preserve" font-family="Menlo-Regular" font-size="36.0" fill="#000000" transform="matrix(1.00, 0.00, -0.00, -1.00, 21.7, 415.0)"> </text><text xml:space="preserve" font-family="Menlo-Regular" font-size="36.0" fill="#E5493C" transform="matrix(1.00, 0.00, -0.00, -1.00, 43.3, 415.0)">"</text><text xml:space="preserve" font-family="Menlo-Regular" font-size="36.0" fill="#E5493C" transform="matrix(1.00, 0.00, -0.00, -1.00, 65.0, 415.0)">t</text><text xml:space="preserve" font-family="Menlo-Regular" font-size="36.0" fill="#E5493C" transform="matrix(1.00, 0.00, -0.00, -1.00, 86.7, 415.0)">y</text><text xml:space="preserve" font-family="Menlo-Regular" font-size="36.0" fill="#E5493C" transform="matrix(1.00, 0.00, -0.00, -1.00, 108.4, 415.0)">p</text><text xml:space="preserve" font-family="Menlo-Regular" font-size="36.0" fill="#E5493C" transform="matrix(1.00, 0.00, -0.00, -1.00, 130.1, 415.0)">e</text><text xml:space="preserve" font-family="Menlo-Regular" font-size="36.0" fill="#E5493C" transform="matrix(1.00, 0.00, -0.00, -1.00, 151.7, 415.0)">"</text><text xml:space="preserve" font-family="Menlo-Regular" font-size="36.0" fill="#6A8188" transform="matrix(1.00, 0.00, -0.00, -1.00, 173.4, 415.0)">:</text><text xml:space="preserve" font-family="Menlo-Regular" font-size="36.0" fill="#000000" transform="matrix(1.00, 0.00, -0.00, -1.00, 195.1, 415.0)"> </text><text xml:space="preserve" font-family="Menlo-Regular" font-size="36.0" fill="#E5493C" transform="matrix(1.00, 0.00, -0.00, -1.00, 216.7, 415.0)">"</text><text xml:space="preserve" font-family="Menlo-Regular" font-size="36.0" fill="#E5493C" transform="matrix(1.00, 0.00, -0.00, -1.00, 238.4, 415.0)">B</text><text xml:space="preserve" font-family="Menlo-Regular" font-size="36.0" fill="#E5493C" transform="matrix(1.00, 0.00, -0.00, -1.00, 260.1, 415.0)">i</text><text xml:space="preserve" font-family="Menlo-Regular" font-size="36.0" fill="#E5493C" transform="matrix(1.00, 0.00, -0.00, -1.00, 281.8, 415.0)">n</text><text xml:space="preserve" font-family="Menlo-Regular" font-size="36.0" fill="#E5493C" transform="matrix(1.00, 0.00, -0.00, -1.00, 303.4, 415.0)">a</text><text xml:space="preserve" font-family="Menlo-Regular" font-size="36.0" fill="#E5493C" transform="matrix(1.00, 0.00, -0.00, -1.00, 325.1, 415.0)">r</text><text xml:space="preserve" font-family="Menlo-Regular" font-size="36.0" fill="#E5493C" transform="matrix(1.00, 0.00, -0.00, -1.00, 346.8, 415.0)">y</text><text xml:space="preserve" font-family="Menlo-Regular" font-size="36.0" fill="#E5493C" transform="matrix(1.00, 0.00, -0.00, -1.00, 368.5, 415.0)">E</text><text xml:space="preserve" font-family="Menlo-Regular" font-size="36.0" fill="#E5493C" transform="matrix(1.00, 0.00, -0.00, -1.00, 390.2, 415.0)">x</text><text xml:space="preserve" font-family="Menlo-Regular" font-size="36.0" fill="#E5493C" transform="matrix(1.00, 0.00, -0.00, -1.00, 411.8, 415.0)">p</text><text xml:space="preserve" font-family="Menlo-Regular" font-size="36.0" fill="#E5493C" transform="matrix(1.00, 0.00, -0.00, -1.00, 433.5, 415.0)">r</text><text xml:space="preserve" font-family="Menlo-Regular" font-size="36.0" fill="#E5493C" transform="matrix(1.00, 0.00, -0.00, -1.00, 455.2, 415.0)">e</text><text xml:space="preserve" font-family="Menlo-Regular" font-size="36.0" fill="#E5493C" transform="matrix(1.00, 0.00, -0.00, -1.00, 476.9, 415.0)">s</text><text xml:space="preserve" font-family="Menlo-Regular" font-size="36.0" fill="#E5493C" transform="matrix(1.00, 0.00, -0.00, -1.00, 498.5, 415.0)">s</text><text xml:space="preserve" font-family="Menlo-Regular" font-size="36.0" fill="#E5493C" transform="matrix(1.00, 0.00, -0.00, -1.00, 520.2, 415.0)">i</text><text xml:space="preserve" font-family="Menlo-Regular" font-size="36.0" fill="#E5493C" transform="matrix(1.00, 0.00, -0.00, -1.00, 541.9, 415.0)">o</text><text xml:space="preserve" font-family="Menlo-Regular" font-size="36.0" fill="#E5493C" transform="matrix(1.00, 0.00, -0.00, -1.00, 563.6, 415.0)">n</text><text xml:space="preserve" font-family="Menlo-Regular" font-size="36.0" fill="#E5493C" transform="matrix(1.00, 0.00, -0.00, -1.00, 585.3, 415.0)">"</text><text xml:space="preserve" font-family="Menlo-Regular" font-size="36.0" fill="#6A8188" transform="matrix(1.00, 0.00, -0.00, -1.00, 606.9, 415.0)">,</text><text xml:space="preserve" font-family="Menlo-Regular" font-size="36.0" fill="#000000" transform="matrix(1.00, 0.00, -0.00, -1.00, 628.5, 415.0)"> </text><text xml:space="preserve" font-family="Menlo-Regular" font-size="36.0" fill="#000000" transform="matrix(1.00, 0.00, -0.00, -1.00, 0.0, 374.0)"> </text><text xml:space="preserve" font-family="Menlo-Regular" font-size="36.0" fill="#000000" transform="matrix(1.00, 0.00, -0.00, -1.00, 21.7, 374.0)"> </text><text xml:space="preserve" font-family="Menlo-Regular" font-size="36.0" fill="#E5493C" transform="matrix(1.00, 0.00, -0.00, -1.00, 43.3, 374.0)">"</text><text xml:space="preserve" font-family="Menlo-Regular" font-size="36.0" fill="#E5493C" transform="matrix(1.00, 0.00, -0.00, -1.00, 65.0, 374.0)">l</text><text xml:space="preserve" font-family="Menlo-Regular" font-size="36.0" fill="#E5493C" transform="matrix(1.00, 0.00, -0.00, -1.00, 86.7, 374.0)">e</text><text xml:space="preserve" font-family="Menlo-Regular" font-size="36.0" fill="#E5493C" transform="matrix(1.00, 0.00, -0.00, -1.00, 108.4, 374.0)">f</text><text xml:space="preserve" font-family="Menlo-Regular" font-size="36.0" fill="#E5493C" transform="matrix(1.00, 0.00, -0.00, -1.00, 130.1, 374.0)">t</text><text xml:space="preserve" font-family="Menlo-Regular" font-size="36.0" fill="#E5493C" transform="matrix(1.00, 0.00, -0.00, -1.00, 151.7, 374.0)">"</text><text xml:space="preserve" font-family="Menlo-Regular" font-size="36.0" fill="#6A8188" transform="matrix(1.00, 0.00, -0.00, -1.00, 173.4, 374.0)">:</text><text xml:space="preserve" font-family="Menlo-Regular" font-size="36.0" fill="#6A8188" transform="matrix(1.00, 0.00, -0.00, -1.00, 195.1, 374.0)"> </text><text xml:space="preserve" font-family="Menlo-Regular" font-size="36.0" fill="#6A8188" transform="matrix(1.00, 0.00, -0.00, -1.00, 216.7, 374.0)">{</text><text xml:space="preserve" font-family="Menlo-Regular" font-size="36.0" fill="#000000" transform="matrix(1.00, 0.00, -0.00, -1.00, 238.4, 374.0)"> </text><text xml:space="preserve" font-family="Menlo-Regular" font-size="36.0" fill="#000000" transform="matrix(1.00, 0.00, -0.00, -1.00, 0.0, 333.0)"> </text><text xml:space="preserve" font-family="Menlo-Regular" font-size="36.0" fill="#000000" transform="matrix(1.00, 0.00, -0.00, -1.00, 21.7, 333.0)"> </text><text xml:space="preserve" font-family="Menlo-Regular" font-size="36.0" fill="#000000" transform="matrix(1.00, 0.00, -0.00, -1.00, 43.4, 333.0)"> </text><text xml:space="preserve" font-family="Menlo-Regular" font-size="36.0" fill="#000000" transform="matrix(1.00, 0.00, -0.00, -1.00, 65.0, 333.0)"> </text><text xml:space="preserve" font-family="Menlo-Regular" font-size="36.0" fill="#E5493C" transform="matrix(1.00, 0.00, -0.00, -1.00, 86.7, 333.0)">"</text><text xml:space="preserve" font-family="Menlo-Regular" font-size="36.0" fill="#E5493C" transform="matrix(1.00, 0.00, -0.00, -1.00, 108.4, 333.0)">t</text><text xml:space="preserve" font-family="Menlo-Regular" font-size="36.0" fill="#E5493C" transform="matrix(1.00, 0.00, -0.00, -1.00, 130.1, 333.0)">y</text><text xml:space="preserve" font-family="Menlo-Regular" font-size="36.0" fill="#E5493C" transform="matrix(1.00, 0.00, -0.00, -1.00, 151.7, 333.0)">p</text><text xml:space="preserve" font-family="Menlo-Regular" font-size="36.0" fill="#E5493C" transform="matrix(1.00, 0.00, -0.00, -1.00, 173.4, 333.0)">e</text><text xml:space="preserve" font-family="Menlo-Regular" font-size="36.0" fill="#E5493C" transform="matrix(1.00, 0.00, -0.00, -1.00, 195.1, 333.0)">"</text><text xml:space="preserve" font-family="Menlo-Regular" font-size="36.0" fill="#6A8188" transform="matrix(1.00, 0.00, -0.00, -1.00, 216.7, 333.0)">:</text><text xml:space="preserve" font-family="Menlo-Regular" font-size="36.0" fill="#000000" transform="matrix(1.00, 0.00, -0.00, -1.00, 238.4, 333.0)"> </text><text xml:space="preserve" font-family="Menlo-Regular" font-size="36.0" fill="#E5493C" transform="matrix(1.00, 0.00, -0.00, -1.00, 260.1, 333.0)">"</text><text xml:space="preserve" font-family="Menlo-Regular" font-size="36.0" fill="#E5493C" transform="matrix(1.00, 0.00, -0.00, -1.00, 281.8, 333.0)">N</text><text xml:space="preserve" font-family="Menlo-Regular" font-size="36.0" fill="#E5493C" transform="matrix(1.00, 0.00, -0.00, -1.00, 303.4, 333.0)">u</text><text xml:space="preserve" font-family="Menlo-Regular" font-size="36.0" fill="#E5493C" transform="matrix(1.00, 0.00, -0.00, -1.00, 325.1, 333.0)">m</text><text xml:space="preserve" font-family="Menlo-Regular" font-size="36.0" fill="#E5493C" transform="matrix(1.00, 0.00, -0.00, -1.00, 346.8, 333.0)">e</text><text xml:space="preserve" font-family="Menlo-Regular" font-size="36.0" fill="#E5493C" transform="matrix(1.00, 0.00, -0.00, -1.00, 368.5, 333.0)">r</text><text xml:space="preserve" font-family="Menlo-Regular" font-size="36.0" fill="#E5493C" transform="matrix(1.00, 0.00, -0.00, -1.00, 390.2, 333.0)">i</text><text xml:space="preserve" font-family="Menlo-Regular" font-size="36.0" fill="#E5493C" transform="matrix(1.00, 0.00, -0.00, -1.00, 411.8, 333.0)">c</text><text xml:space="preserve" font-family="Menlo-Regular" font-size="36.0" fill="#E5493C" transform="matrix(1.00, 0.00, -0.00, -1.00, 433.5, 333.0)">L</text><text xml:space="preserve" font-family="Menlo-Regular" font-size="36.0" fill="#E5493C" transform="matrix(1.00, 0.00, -0.00, -1.00, 455.2, 333.0)">i</text><text xml:space="preserve" font-family="Menlo-Regular" font-size="36.0" fill="#E5493C" transform="matrix(1.00, 0.00, -0.00, -1.00, 476.9, 333.0)">t</text><text xml:space="preserve" font-family="Menlo-Regular" font-size="36.0" fill="#E5493C" transform="matrix(1.00, 0.00, -0.00, -1.00, 498.5, 333.0)">e</text><text xml:space="preserve" font-family="Menlo-Regular" font-size="36.0" fill="#E5493C" transform="matrix(1.00, 0.00, -0.00, -1.00, 520.2, 333.0)">r</text><text xml:space="preserve" font-family="Menlo-Regular" font-size="36.0" fill="#E5493C" transform="matrix(1.00, 0.00, -0.00, -1.00, 541.9, 333.0)">a</text><text xml:space="preserve" font-family="Menlo-Regular" font-size="36.0" fill="#E5493C" transform="matrix(1.00, 0.00, -0.00, -1.00, 563.6, 333.0)">l</text><text xml:space="preserve" font-family="Menlo-Regular" font-size="36.0" fill="#E5493C" transform="matrix(1.00, 0.00, -0.00, -1.00, 585.2, 333.0)">"</text><text xml:space="preserve" font-family="Menlo-Regular" font-size="36.0" fill="#6A8188" transform="matrix(1.00, 0.00, -0.00, -1.00, 606.9, 333.0)">,</text><text xml:space="preserve" font-family="Menlo-Regular" font-size="36.0" fill="#000000" transform="matrix(1.00, 0.00, -0.00, -1.00, 628.5, 333.0)"> </text><text xml:space="preserve" font-family="Menlo-Regular" font-size="36.0" fill="#000000" transform="matrix(1.00, 0.00, -0.00, -1.00, 0.0, 292.0)"> </text><text xml:space="preserve" font-family="Menlo-Regular" font-size="36.0" fill="#000000" transform="matrix(1.00, 0.00, -0.00, -1.00, 21.7, 292.0)"> </text><text xml:space="preserve" font-family="Menlo-Regular" font-size="36.0" fill="#000000" transform="matrix(1.00, 0.00, -0.00, -1.00, 43.4, 292.0)"> </text><text xml:space="preserve" font-family="Menlo-Regular" font-size="36.0" fill="#000000" transform="matrix(1.00, 0.00, -0.00, -1.00, 65.0, 292.0)"> </text><text xml:space="preserve" font-family="Menlo-Regular" font-size="36.0" fill="#E5493C" transform="matrix(1.00, 0.00, -0.00, -1.00, 86.7, 292.0)">"</text><text xml:space="preserve" font-family="Menlo-Regular" font-size="36.0" fill="#E5493C" transform="matrix(1.00, 0.00, -0.00, -1.00, 108.4, 292.0)">v</text><text xml:space="preserve" font-family="Menlo-Regular" font-size="36.0" fill="#E5493C" transform="matrix(1.00, 0.00, -0.00, -1.00, 130.1, 292.0)">a</text><text xml:space="preserve" font-family="Menlo-Regular" font-size="36.0" fill="#E5493C" transform="matrix(1.00, 0.00, -0.00, -1.00, 151.7, 292.0)">l</text><text xml:space="preserve" font-family="Menlo-Regular" font-size="36.0" fill="#E5493C" transform="matrix(1.00, 0.00, -0.00, -1.00, 173.4, 292.0)">u</text><text xml:space="preserve" font-family="Menlo-Regular" font-size="36.0" fill="#E5493C" transform="matrix(1.00, 0.00, -0.00, -1.00, 195.1, 292.0)">e</text><text xml:space="preserve" font-family="Menlo-Regular" font-size="36.0" fill="#E5493C" transform="matrix(1.00, 0.00, -0.00, -1.00, 216.8, 292.0)">"</text><text xml:space="preserve" font-family="Menlo-Regular" font-size="36.0" fill="#6A8188" transform="matrix(1.00, 0.00, -0.00, -1.00, 238.4, 292.0)">:</text><text xml:space="preserve" font-family="Menlo-Regular" font-size="36.0" fill="#000000" transform="matrix(1.00, 0.00, -0.00, -1.00, 260.1, 292.0)"> </text><text xml:space="preserve" font-family="Menlo-Regular" font-size="36.0" fill="#E5493C" transform="matrix(1.00, 0.00, -0.00, -1.00, 281.8, 292.0)">2</text><text xml:space="preserve" font-family="Menlo-Regular" font-size="36.0" fill="#000000" transform="matrix(1.00, 0.00, -0.00, -1.00, 303.4, 292.0)"> </text><text xml:space="preserve" font-family="Menlo-Regular" font-size="36.0" fill="#000000" transform="matrix(1.00, 0.00, -0.00, -1.00, 0.0, 251.0)"> </text><text xml:space="preserve" font-family="Menlo-Regular" font-size="36.0" fill="#000000" transform="matrix(1.00, 0.00, -0.00, -1.00, 21.7, 251.0)"> </text><text xml:space="preserve" font-family="Menlo-Regular" font-size="36.0" fill="#6A8188" transform="matrix(1.00, 0.00, -0.00, -1.00, 43.3, 251.0)">}</text><text xml:space="preserve" font-family="Menlo-Regular" font-size="36.0" fill="#6A8188" transform="matrix(1.00, 0.00, -0.00, -1.00, 65.0, 251.0)">,</text><text xml:space="preserve" font-family="Menlo-Regular" font-size="36.0" fill="#000000" transform="matrix(1.00, 0.00, -0.00, -1.00, 86.7, 251.0)"> </text><text xml:space="preserve" font-family="Menlo-Regular" font-size="36.0" fill="#000000" transform="matrix(1.00, 0.00, -0.00, -1.00, 0.0, 210.0)"> </text><text xml:space="preserve" font-family="Menlo-Regular" font-size="36.0" fill="#000000" transform="matrix(1.00, 0.00, -0.00, -1.00, 21.7, 210.0)"> </text><text xml:space="preserve" font-family="Menlo-Regular" font-size="36.0" fill="#E5493C" transform="matrix(1.00, 0.00, -0.00, -1.00, 43.3, 210.0)">"</text><text xml:space="preserve" font-family="Menlo-Regular" font-size="36.0" fill="#E5493C" transform="matrix(1.00, 0.00, -0.00, -1.00, 65.0, 210.0)">o</text><text xml:space="preserve" font-family="Menlo-Regular" font-size="36.0" fill="#E5493C" transform="matrix(1.00, 0.00, -0.00, -1.00, 86.7, 210.0)">p</text><text xml:space="preserve" font-family="Menlo-Regular" font-size="36.0" fill="#E5493C" transform="matrix(1.00, 0.00, -0.00, -1.00, 108.4, 210.0)">e</text><text xml:space="preserve" font-family="Menlo-Regular" font-size="36.0" fill="#E5493C" transform="matrix(1.00, 0.00, -0.00, -1.00, 130.1, 210.0)">r</text><text xml:space="preserve" font-family="Menlo-Regular" font-size="36.0" fill="#E5493C" transform="matrix(1.00, 0.00, -0.00, -1.00, 151.7, 210.0)">a</text><text xml:space="preserve" font-family="Menlo-Regular" font-size="36.0" fill="#E5493C" transform="matrix(1.00, 0.00, -0.00, -1.00, 173.4, 210.0)">t</text><text xml:space="preserve" font-family="Menlo-Regular" font-size="36.0" fill="#E5493C" transform="matrix(1.00, 0.00, -0.00, -1.00, 195.1, 210.0)">o</text><text xml:space="preserve" font-family="Menlo-Regular" font-size="36.0" fill="#E5493C" transform="matrix(1.00, 0.00, -0.00, -1.00, 216.8, 210.0)">r</text><text xml:space="preserve" font-family="Menlo-Regular" font-size="36.0" fill="#E5493C" transform="matrix(1.00, 0.00, -0.00, -1.00, 238.4, 210.0)">"</text><text xml:space="preserve" font-family="Menlo-Regular" font-size="36.0" fill="#6A8188" transform="matrix(1.00, 0.00, -0.00, -1.00, 260.1, 210.0)">:</text><text xml:space="preserve" font-family="Menlo-Regular" font-size="36.0" fill="#000000" transform="matrix(1.00, 0.00, -0.00, -1.00, 281.8, 210.0)"> </text><text xml:space="preserve" font-family="Menlo-Regular" font-size="36.0" fill="#E5493C" transform="matrix(1.00, 0.00, -0.00, -1.00, 303.4, 210.0)">"</text><text xml:space="preserve" font-family="Menlo-Regular" font-size="36.0" fill="#E5493C" transform="matrix(1.00, 0.00, -0.00, -1.00, 325.1, 210.0)">*</text><text xml:space="preserve" font-family="Menlo-Regular" font-size="36.0" fill="#E5493C" transform="matrix(1.00, 0.00, -0.00, -1.00, 346.8, 210.0)">*</text><text xml:space="preserve" font-family="Menlo-Regular" font-size="36.0" fill="#E5493C" transform="matrix(1.00, 0.00, -0.00, -1.00, 368.5, 210.0)">"</text><text xml:space="preserve" font-family="Menlo-Regular" font-size="36.0" fill="#6A8188" transform="matrix(1.00, 0.00, -0.00, -1.00, 390.1, 210.0)">,</text><text xml:space="preserve" font-family="Menlo-Regular" font-size="36.0" fill="#000000" transform="matrix(1.00, 0.00, -0.00, -1.00, 411.8, 210.0)"> </text><text xml:space="preserve" font-family="Menlo-Regular" font-size="36.0" fill="#000000" transform="matrix(1.00, 0.00, -0.00, -1.00, 0.0, 169.0)"> </text><text xml:space="preserve" font-family="Menlo-Regular" font-size="36.0" fill="#000000" transform="matrix(1.00, 0.00, -0.00, -1.00, 21.7, 169.0)"> </text><text xml:space="preserve" font-family="Menlo-Regular" font-size="36.0" fill="#E5493C" transform="matrix(1.00, 0.00, -0.00, -1.00, 43.3, 169.0)">"</text><text xml:space="preserve" font-family="Menlo-Regular" font-size="36.0" fill="#E5493C" transform="matrix(1.00, 0.00, -0.00, -1.00, 65.0, 169.0)">r</text><text xml:space="preserve" font-family="Menlo-Regular" font-size="36.0" fill="#E5493C" transform="matrix(1.00, 0.00, -0.00, -1.00, 86.7, 169.0)">i</text><text xml:space="preserve" font-family="Menlo-Regular" font-size="36.0" fill="#E5493C" transform="matrix(1.00, 0.00, -0.00, -1.00, 108.4, 169.0)">g</text><text xml:space="preserve" font-family="Menlo-Regular" font-size="36.0" fill="#E5493C" transform="matrix(1.00, 0.00, -0.00, -1.00, 130.1, 169.0)">h</text><text xml:space="preserve" font-family="Menlo-Regular" font-size="36.0" fill="#E5493C" transform="matrix(1.00, 0.00, -0.00, -1.00, 151.7, 169.0)">t</text><text xml:space="preserve" font-family="Menlo-Regular" font-size="36.0" fill="#E5493C" transform="matrix(1.00, 0.00, -0.00, -1.00, 173.4, 169.0)">"</text><text xml:space="preserve" font-family="Menlo-Regular" font-size="36.0" fill="#6A8188" transform="matrix(1.00, 0.00, -0.00, -1.00, 195.1, 169.0)">:</text><text xml:space="preserve" font-family="Menlo-Regular" font-size="36.0" fill="#6A8188" transform="matrix(1.00, 0.00, -0.00, -1.00, 216.7, 169.0)"> </text><text xml:space="preserve" font-family="Menlo-Regular" font-size="36.0" fill="#6A8188" transform="matrix(1.00, 0.00, -0.00, -1.00, 238.4, 169.0)">{</text><text xml:space="preserve" font-family="Menlo-Regular" font-size="36.0" fill="#000000" transform="matrix(1.00, 0.00, -0.00, -1.00, 260.1, 169.0)"> </text><text xml:space="preserve" font-family="Menlo-Regular" font-size="36.0" fill="#000000" transform="matrix(1.00, 0.00, -0.00, -1.00, 0.0, 128.0)"> </text><text xml:space="preserve" font-family="Menlo-Regular" font-size="36.0" fill="#000000" transform="matrix(1.00, 0.00, -0.00, -1.00, 21.7, 128.0)"> </text><text xml:space="preserve" font-family="Menlo-Regular" font-size="36.0" fill="#000000" transform="matrix(1.00, 0.00, -0.00, -1.00, 43.4, 128.0)"> </text><text xml:space="preserve" font-family="Menlo-Regular" font-size="36.0" fill="#000000" transform="matrix(1.00, 0.00, -0.00, -1.00, 65.0, 128.0)"> </text><text xml:space="preserve" font-family="Menlo-Regular" font-size="36.0" fill="#E5493C" transform="matrix(1.00, 0.00, -0.00, -1.00, 86.7, 128.0)">"</text><text xml:space="preserve" font-family="Menlo-Regular" font-size="36.0" fill="#E5493C" transform="matrix(1.00, 0.00, -0.00, -1.00, 108.4, 128.0)">t</text><text xml:space="preserve" font-family="Menlo-Regular" font-size="36.0" fill="#E5493C" transform="matrix(1.00, 0.00, -0.00, -1.00, 130.1, 128.0)">y</text><text xml:space="preserve" font-family="Menlo-Regular" font-size="36.0" fill="#E5493C" transform="matrix(1.00, 0.00, -0.00, -1.00, 151.7, 128.0)">p</text><text xml:space="preserve" font-family="Menlo-Regular" font-size="36.0" fill="#E5493C" transform="matrix(1.00, 0.00, -0.00, -1.00, 173.4, 128.0)">e</text><text xml:space="preserve" font-family="Menlo-Regular" font-size="36.0" fill="#E5493C" transform="matrix(1.00, 0.00, -0.00, -1.00, 195.1, 128.0)">"</text><text xml:space="preserve" font-family="Menlo-Regular" font-size="36.0" fill="#6A8188" transform="matrix(1.00, 0.00, -0.00, -1.00, 216.7, 128.0)">:</text><text xml:space="preserve" font-family="Menlo-Regular" font-size="36.0" fill="#000000" transform="matrix(1.00, 0.00, -0.00, -1.00, 238.4, 128.0)"> </text><text xml:space="preserve" font-family="Menlo-Regular" font-size="36.0" fill="#E5493C" transform="matrix(1.00, 0.00, -0.00, -1.00, 260.1, 128.0)">"</text><text xml:space="preserve" font-family="Menlo-Regular" font-size="36.0" fill="#E5493C" transform="matrix(1.00, 0.00, -0.00, -1.00, 281.8, 128.0)">N</text><text xml:space="preserve" font-family="Menlo-Regular" font-size="36.0" fill="#E5493C" transform="matrix(1.00, 0.00, -0.00, -1.00, 303.4, 128.0)">u</text><text xml:space="preserve" font-family="Menlo-Regular" font-size="36.0" fill="#E5493C" transform="matrix(1.00, 0.00, -0.00, -1.00, 325.1, 128.0)">m</text><text xml:space="preserve" font-family="Menlo-Regular" font-size="36.0" fill="#E5493C" transform="matrix(1.00, 0.00, -0.00, -1.00, 346.8, 128.0)">e</text><text xml:space="preserve" font-family="Menlo-Regular" font-size="36.0" fill="#E5493C" transform="matrix(1.00, 0.00, -0.00, -1.00, 368.5, 128.0)">r</text><text xml:space="preserve" font-family="Menlo-Regular" font-size="36.0" fill="#E5493C" transform="matrix(1.00, 0.00, -0.00, -1.00, 390.2, 128.0)">i</text><text xml:space="preserve" font-family="Menlo-Regular" font-size="36.0" fill="#E5493C" transform="matrix(1.00, 0.00, -0.00, -1.00, 411.8, 128.0)">c</text><text xml:space="preserve" font-family="Menlo-Regular" font-size="36.0" fill="#E5493C" transform="matrix(1.00, 0.00, -0.00, -1.00, 433.5, 128.0)">L</text><text xml:space="preserve" font-family="Menlo-Regular" font-size="36.0" fill="#E5493C" transform="matrix(1.00, 0.00, -0.00, -1.00, 455.2, 128.0)">i</text><text xml:space="preserve" font-family="Menlo-Regular" font-size="36.0" fill="#E5493C" transform="matrix(1.00, 0.00, -0.00, -1.00, 476.9, 128.0)">t</text><text xml:space="preserve" font-family="Menlo-Regular" font-size="36.0" fill="#E5493C" transform="matrix(1.00, 0.00, -0.00, -1.00, 498.5, 128.0)">e</text><text xml:space="preserve" font-family="Menlo-Regular" font-size="36.0" fill="#E5493C" transform="matrix(1.00, 0.00, -0.00, -1.00, 520.2, 128.0)">r</text><text xml:space="preserve" font-family="Menlo-Regular" font-size="36.0" fill="#E5493C" transform="matrix(1.00, 0.00, -0.00, -1.00, 541.9, 128.0)">a</text><text xml:space="preserve" font-family="Menlo-Regular" font-size="36.0" fill="#E5493C" transform="matrix(1.00, 0.00, -0.00, -1.00, 563.6, 128.0)">l</text><text xml:space="preserve" font-family="Menlo-Regular" font-size="36.0" fill="#E5493C" transform="matrix(1.00, 0.00, -0.00, -1.00, 585.2, 128.0)">"</text><text xml:space="preserve" font-family="Menlo-Regular" font-size="36.0" fill="#6A8188" transform="matrix(1.00, 0.00, -0.00, -1.00, 606.9, 128.0)">,</text><text xml:space="preserve" font-family="Menlo-Regular" font-size="36.0" fill="#000000" transform="matrix(1.00, 0.00, -0.00, -1.00, 628.5, 128.0)"> </text><text xml:space="preserve" font-family="Menlo-Regular" font-size="36.0" fill="#000000" transform="matrix(1.00, 0.00, -0.00, -1.00, 0.0, 87.0)"> </text><text xml:space="preserve" font-family="Menlo-Regular" font-size="36.0" fill="#000000" transform="matrix(1.00, 0.00, -0.00, -1.00, 21.7, 87.0)"> </text><text xml:space="preserve" font-family="Menlo-Regular" font-size="36.0" fill="#000000" transform="matrix(1.00, 0.00, -0.00, -1.00, 43.4, 87.0)"> </text><text xml:space="preserve" font-family="Menlo-Regular" font-size="36.0" fill="#000000" transform="matrix(1.00, 0.00, -0.00, -1.00, 65.0, 87.0)"> </text><text xml:space="preserve" font-family="Menlo-Regular" font-size="36.0" fill="#E5493C" transform="matrix(1.00, 0.00, -0.00, -1.00, 86.7, 87.0)">"</text><text xml:space="preserve" font-family="Menlo-Regular" font-size="36.0" fill="#E5493C" transform="matrix(1.00, 0.00, -0.00, -1.00, 108.4, 87.0)">v</text><text xml:space="preserve" font-family="Menlo-Regular" font-size="36.0" fill="#E5493C" transform="matrix(1.00, 0.00, -0.00, -1.00, 130.1, 87.0)">a</text><text xml:space="preserve" font-family="Menlo-Regular" font-size="36.0" fill="#E5493C" transform="matrix(1.00, 0.00, -0.00, -1.00, 151.7, 87.0)">l</text><text xml:space="preserve" font-family="Menlo-Regular" font-size="36.0" fill="#E5493C" transform="matrix(1.00, 0.00, -0.00, -1.00, 173.4, 87.0)">u</text><text xml:space="preserve" font-family="Menlo-Regular" font-size="36.0" fill="#E5493C" transform="matrix(1.00, 0.00, -0.00, -1.00, 195.1, 87.0)">e</text><text xml:space="preserve" font-family="Menlo-Regular" font-size="36.0" fill="#E5493C" transform="matrix(1.00, 0.00, -0.00, -1.00, 216.8, 87.0)">"</text><text xml:space="preserve" font-family="Menlo-Regular" font-size="36.0" fill="#6A8188" transform="matrix(1.00, 0.00, -0.00, -1.00, 238.4, 87.0)">:</text><text xml:space="preserve" font-family="Menlo-Regular" font-size="36.0" fill="#000000" transform="matrix(1.00, 0.00, -0.00, -1.00, 260.1, 87.0)"> </text><text xml:space="preserve" font-family="Menlo-Regular" font-size="36.0" fill="#E5493C" transform="matrix(1.00, 0.00, -0.00, -1.00, 281.8, 87.0)">3</text><text xml:space="preserve" font-family="Menlo-Regular" font-size="36.0" fill="#000000" transform="matrix(1.00, 0.00, -0.00, -1.00, 303.4, 87.0)"> </text><text xml:space="preserve" font-family="Menlo-Regular" font-size="36.0" fill="#000000" transform="matrix(1.00, 0.00, -0.00, -1.00, 0.0, 46.0)"> </text><text xml:space="preserve" font-family="Menlo-Regular" font-size="36.0" fill="#000000" transform="matrix(1.00, 0.00, -0.00, -1.00, 21.7, 46.0)"> </text><text xml:space="preserve" font-family="Menlo-Regular" font-size="36.0" fill="#6A8188" transform="matrix(1.00, 0.00, -0.00, -1.00, 43.3, 46.0)">}</text><text xml:space="preserve" font-family="Menlo-Regular" font-size="36.0" fill="#000000" transform="matrix(1.00, 0.00, -0.00, -1.00, 65.0, 46.0)"> </text><text xml:space="preserve" font-family="Menlo-Regular" font-size="36.0" fill="#6A8188" transform="matrix(1.00, 0.00, -0.00, -1.00, 0.0, 5.0)">}</text></g></svg>