<?xml version="1.0" encoding="UTF-8" standalone="no"?><svg xmlns="http://www.w3.org/2000/svg" xmlns:xlink="http://www.w3.org/1999/xlink" clip-rule="evenodd" stroke-miterlimit="4.00" viewBox="0 0 1920 1080"><desc>SVG generated by Keynote</desc><defs></defs><g transform="matrix(1.00, 0.00, -0.00, -1.00, 0.0, 1080.0)"><path d="M 0.0 1080.0 L 1920.0 1080.0 L 1920.0 0.0 L 0.0 0.0 Z M 0.0 1080.0 " fill="#FEFFFE"></path><text xml:space="preserve" font-family="Menlo-Regular" font-size="40.0" fill="#D6601A" transform="matrix(1.00, 0.00, -0.00, -1.00, 158.0, 504.0)">I</text><text xml:space="preserve" font-family="Menlo-Regular" font-size="40.0" fill="#D6601A" transform="matrix(1.00, 0.00, -0.00, -1.00, 182.1, 504.0)">d</text><text xml:space="preserve" font-family="Menlo-Regular" font-size="40.0" fill="#D6601A" transform="matrix(1.00, 0.00, -0.00, -1.00, 206.2, 504.0)">e</text><text xml:space="preserve" font-family="Menlo-Regular" font-size="40.0" fill="#D6601A" transform="matrix(1.00, 0.00, -0.00, -1.00, 230.3, 504.0)">n</text><text xml:space="preserve" font-family="Menlo-Regular" font-size="40.0" fill="#D6601A" transform="matrix(1.00, 0.00, -0.00, -1.00, 254.3, 504.0)">t</text><text xml:space="preserve" font-family="Menlo-Regular" font-size="40.0" fill="#D6601A" transform="matrix(1.00, 0.00, -0.00, -1.00, 278.4, 504.0)">i</text><text xml:space="preserve" font-family="Menlo-Regular" font-size="40.0" fill="#D6601A" transform="matrix(1.00, 0.00, -0.00, -1.00, 302.5, 504.0)">f</text><text xml:space="preserve" font-family="Menlo-Regular" font-size="40.0" fill="#D6601A" transform="matrix(1.00, 0.00, -0.00, -1.00, 326.6, 504.0)">i</text><text xml:space="preserve" font-family="Menlo-Regular" font-size="40.0" fill="#D6601A" transform="matrix(1.00, 0.00, -0.00, -1.00, 350.7, 504.0)">e</text><text xml:space="preserve" font-family="Menlo-Regular" font-size="40.0" fill="#D6601A" transform="matrix(1.00, 0.00, -0.00, -1.00, 374.8, 504.0)">r</text><text xml:space="preserve" font-family="Menlo-Regular" font-size="40.0" fill="#D6601A" transform="matrix(1.00, 0.00, -0.00, -1.00, 398.9, 504.0)">(</text><text xml:space="preserve" font-family="Menlo-Regular" font-size="40.0" fill="#778D95" transform="matrix(1.00, 0.00, -0.00, -1.00, 422.9, 504.0)">p</text><text xml:space="preserve" font-family="Menlo-Regular" font-size="40.0" fill="#778D95" transform="matrix(1.00, 0.00, -0.00, -1.00, 447.0, 504.0)">a</text><text xml:space="preserve" font-family="Menlo-Regular" font-size="40.0" fill="#778D95" transform="matrix(1.00, 0.00, -0.00, -1.00, 471.1, 504.0)">t</text><text xml:space="preserve" font-family="Menlo-Regular" font-size="40.0" fill="#778D95" transform="matrix(1.00, 0.00, -0.00, -1.00, 495.2, 504.0)">h</text><text xml:space="preserve" font-family="Menlo-Regular" font-size="40.0" fill="#D6601A" transform="matrix(1.00, 0.00, -0.00, -1.00, 519.2, 504.0)">)</text><text xml:space="preserve" font-family="Menlo-Regular" font-size="40.0" fill="#D6601A" transform="matrix(1.00, 0.00, -0.00, -1.00, 543.3, 504.0)"> </text><text xml:space="preserve" font-family="Menlo-Regular" font-size="40.0" fill="#D6601A" transform="matrix(1.00, 0.00, -0.00, -1.00, 567.4, 504.0)">{</text><text xml:space="preserve" font-family="Menlo-Regular" font-size="40.0" fill="#000000" transform="matrix(1.00, 0.00, -0.00, -1.00, 591.5, 504.0)"> </text><text xml:space="preserve" font-family="Menlo-Regular" font-size="40.0" fill="#000000" transform="matrix(1.00, 0.00, -0.00, -1.00, 158.0, 458.0)"> </text><text xml:space="preserve" font-family="Menlo-Regular" font-size="40.0" fill="#778D95" transform="matrix(1.00, 0.00, -0.00, -1.00, 182.1, 458.0)"> </text><text xml:space="preserve" font-family="Menlo-Regular" font-size="40.0" fill="#778D95" transform="matrix(1.00, 0.00, -0.00, -1.00, 206.2, 458.0)">p</text><text xml:space="preserve" font-family="Menlo-Regular" font-size="40.0" fill="#778D95" transform="matrix(1.00, 0.00, -0.00, -1.00, 230.3, 458.0)">a</text><text xml:space="preserve" font-family="Menlo-Regular" font-size="40.0" fill="#778D95" transform="matrix(1.00, 0.00, -0.00, -1.00, 254.3, 458.0)">t</text><text xml:space="preserve" font-family="Menlo-Regular" font-size="40.0" fill="#778D95" transform="matrix(1.00, 0.00, -0.00, -1.00, 278.4, 458.0)">h</text><text xml:space="preserve" font-family="Menlo-Regular" font-size="40.0" fill="#6A8188" transform="matrix(1.00, 0.00, -0.00, -1.00, 302.5, 458.0)">.</text><text xml:space="preserve" font-family="Menlo-Regular" font-size="40.0" fill="#778D95" transform="matrix(1.00, 0.00, -0.00, -1.00, 326.6, 458.0)">n</text><text xml:space="preserve" font-family="Menlo-Regular" font-size="40.0" fill="#778D95" transform="matrix(1.00, 0.00, -0.00, -1.00, 350.7, 458.0)">o</text><text xml:space="preserve" font-family="Menlo-Regular" font-size="40.0" fill="#778D95" transform="matrix(1.00, 0.00, -0.00, -1.00, 374.7, 458.0)">d</text><text xml:space="preserve" font-family="Menlo-Regular" font-size="40.0" fill="#778D95" transform="matrix(1.00, 0.00, -0.00, -1.00, 398.8, 458.0)">e</text><text xml:space="preserve" font-family="Menlo-Regular" font-size="40.0" fill="#6A8188" transform="matrix(1.00, 0.00, -0.00, -1.00, 422.9, 458.0)">.</text><text xml:space="preserve" font-family="Menlo-Regular" font-size="40.0" fill="#778D95" transform="matrix(1.00, 0.00, -0.00, -1.00, 447.0, 458.0)">n</text><text xml:space="preserve" font-family="Menlo-Regular" font-size="40.0" fill="#778D95" transform="matrix(1.00, 0.00, -0.00, -1.00, 471.1, 458.0)">a</text><text xml:space="preserve" font-family="Menlo-Regular" font-size="40.0" fill="#778D95" transform="matrix(1.00, 0.00, -0.00, -1.00, 495.2, 458.0)">m</text><text xml:space="preserve" font-family="Menlo-Regular" font-size="40.0" fill="#778D95" transform="matrix(1.00, 0.00, -0.00, -1.00, 519.2, 458.0)">e</text><text xml:space="preserve" font-family="Menlo-Regular" font-size="40.0" fill="#000000" transform="matrix(1.00, 0.00, -0.00, -1.00, 543.3, 458.0)"> </text><text xml:space="preserve" font-family="Menlo-Regular" font-size="40.0" fill="#6A8188" transform="matrix(1.00, 0.00, -0.00, -1.00, 567.4, 458.0)">=</text><text xml:space="preserve" font-family="Menlo-Regular" font-size="40.0" fill="#000000" transform="matrix(1.00, 0.00, -0.00, -1.00, 591.5, 458.0)"> </text><text xml:space="preserve" font-family="Menlo-Regular" font-size="40.0" fill="#E5493C" transform="matrix(1.00, 0.00, -0.00, -1.00, 615.6, 458.0)">"</text><text xml:space="preserve" font-family="Menlo-Regular" font-size="40.0" fill="#E5493C" transform="matrix(1.00, 0.00, -0.00, -1.00, 639.6, 458.0)">a</text><text xml:space="preserve" font-family="Menlo-Regular" font-size="40.0" fill="#E5493C" transform="matrix(1.00, 0.00, -0.00, -1.00, 663.7, 458.0)">"</text><text xml:space="preserve" font-family="Menlo-Regular" font-size="40.0" fill="#6A8188" transform="matrix(1.00, 0.00, -0.00, -1.00, 687.8, 458.0)">;</text><text xml:space="preserve" font-family="Menlo-Regular" font-size="40.0" fill="#000000" transform="matrix(1.00, 0.00, -0.00, -1.00, 711.9, 458.0)"> </text><text xml:space="preserve" font-family="Menlo-Regular" font-size="40.0" fill="#6A8188" transform="matrix(1.00, 0.00, -0.00, -1.00, 158.0, 412.0)">}</text><text xml:space="preserve" font-family="Menlo-Regular" font-size="40.0" fill="#6A8188" transform="matrix(1.00, 0.00, -0.00, -1.00, 1059.0, 458.0)">$</text><text xml:space="preserve" font-family="Menlo-Regular" font-size="40.0" fill="#6A8188" transform="matrix(1.00, 0.00, -0.00, -1.00, 1083.1, 458.0)">(</text><text xml:space="preserve" font-family="Menlo-Regular" font-size="40.0" fill="#E5493C" transform="matrix(1.00, 0.00, -0.00, -1.00, 1107.2, 458.0)">"</text><text xml:space="preserve" font-family="Menlo-Regular" font-size="40.0" fill="#E5493C" transform="matrix(1.00, 0.00, -0.00, -1.00, 1131.3, 458.0)">a</text><text xml:space="preserve" font-family="Menlo-Regular" font-size="40.0" fill="#E5493C" transform="matrix(1.00, 0.00, -0.00, -1.00, 1155.3, 458.0)">"</text><text xml:space="preserve" font-family="Menlo-Regular" font-size="40.0" fill="#6A8188" transform="matrix(1.00, 0.00, -0.00, -1.00, 1179.4, 458.0)">)</text><text xml:space="preserve" font-family="Menlo-Regular" font-size="40.0" fill="#6A8188" transform="matrix(1.00, 0.00, -0.00, -1.00, 1203.5, 458.0)">.</text><text xml:space="preserve" font-family="Menlo-Regular" font-size="40.0" fill="#6A8188" transform="matrix(1.00, 0.00, -0.00, -1.00, 1227.6, 458.0)">a</text><text xml:space="preserve" font-family="Menlo-Regular" font-size="40.0" fill="#6A8188" transform="matrix(1.00, 0.00, -0.00, -1.00, 1251.7, 458.0)">t</text><text xml:space="preserve" font-family="Menlo-Regular" font-size="40.0" fill="#6A8188" transform="matrix(1.00, 0.00, -0.00, -1.00, 1275.8, 458.0)">t</text><text xml:space="preserve" font-family="Menlo-Regular" font-size="40.0" fill="#6A8188" transform="matrix(1.00, 0.00, -0.00, -1.00, 1299.8, 458.0)">r</text><text xml:space="preserve" font-family="Menlo-Regular" font-size="40.0" fill="#6A8188" transform="matrix(1.00, 0.00, -0.00, -1.00, 1323.9, 458.0)">(</text><text xml:space="preserve" font-family="Menlo-Regular" font-size="40.0" fill="#E5493C" transform="matrix(1.00, 0.00, -0.00, -1.00, 1348.0, 458.0)">"</text><text xml:space="preserve" font-family="Menlo-Regular" font-size="40.0" fill="#E5493C" transform="matrix(1.00, 0.00, -0.00, -1.00, 1372.1, 458.0)">h</text><text xml:space="preserve" font-family="Menlo-Regular" font-size="40.0" fill="#E5493C" transform="matrix(1.00, 0.00, -0.00, -1.00, 1396.2, 458.0)">r</text><text xml:space="preserve" font-family="Menlo-Regular" font-size="40.0" fill="#E5493C" transform="matrix(1.00, 0.00, -0.00, -1.00, 1420.2, 458.0)">e</text><text xml:space="preserve" font-family="Menlo-Regular" font-size="40.0" fill="#E5493C" transform="matrix(1.00, 0.00, -0.00, -1.00, 1444.3, 458.0)">f</text><text xml:space="preserve" font-family="Menlo-Regular" font-size="40.0" fill="#E5493C" transform="matrix(1.00, 0.00, -0.00, -1.00, 1468.4, 458.0)">"</text><text xml:space="preserve" font-family="Menlo-Regular" font-size="40.0" fill="#6A8188" transform="matrix(1.00, 0.00, -0.00, -1.00, 1492.5, 458.0)">,</text><text xml:space="preserve" font-family="Menlo-Regular" font-size="40.0" fill="#000000" transform="matrix(1.00, 0.00, -0.00, -1.00, 1516.6, 458.0)"> </text><text xml:space="preserve" font-family="Menlo-Regular" font-size="40.0" fill="#E5493C" transform="matrix(1.00, 0.00, -0.00, -1.00, 1540.6, 458.0)">"</text><text xml:space="preserve" font-family="Menlo-Regular" font-size="40.0" fill="#E5493C" transform="matrix(1.00, 0.00, -0.00, -1.00, 1564.7, 458.0)">a</text><text xml:space="preserve" font-family="Menlo-Regular" font-size="40.0" fill="#E5493C" transform="matrix(1.00, 0.00, -0.00, -1.00, 1588.8, 458.0)">"</text><text xml:space="preserve" font-family="Menlo-Regular" font-size="40.0" fill="#6A8188" transform="matrix(1.00, 0.00, -0.00, -1.00, 1612.9, 458.0)">)</text><text xml:space="preserve" font-family="Menlo-Regular" font-size="40.0" fill="#6A8188" transform="matrix(1.00, 0.00, -0.00, -1.00, 1637.0, 458.0)">;</text><text xml:space="preserve" font-family="Menlo-Regular" font-size="40.0" fill="#6A8188" transform="matrix(1.00, 0.00, -0.00, -1.00, 158.0, 734.0)">{</text><text xml:space="preserve" font-family="Menlo-Regular" font-size="40.0" fill="#6A8188" transform="matrix(1.00, 0.00, -0.00, -1.00, 182.1, 734.0)"> </text><text xml:space="preserve" font-family="Menlo-Regular" font-size="40.0" fill="#6A8188" transform="matrix(1.00, 0.00, -0.00, -1.00, 158.0, 688.0)"> </text><text xml:space="preserve" font-family="Menlo-Regular" font-size="40.0" fill="#6A8188" transform="matrix(1.00, 0.00, -0.00, -1.00, 182.1, 688.0)"> </text><text xml:space="preserve" font-family="Menlo-Regular" font-size="40.0" fill="#E5493C" transform="matrix(1.00, 0.00, -0.00, -1.00, 206.2, 688.0)">"</text><text xml:space="preserve" font-family="Menlo-Regular" font-size="40.0" fill="#E5493C" transform="matrix(1.00, 0.00, -0.00, -1.00, 230.3, 688.0)">t</text><text xml:space="preserve" font-family="Menlo-Regular" font-size="40.0" fill="#E5493C" transform="matrix(1.00, 0.00, -0.00, -1.00, 254.3, 688.0)">y</text><text xml:space="preserve" font-family="Menlo-Regular" font-size="40.0" fill="#E5493C" transform="matrix(1.00, 0.00, -0.00, -1.00, 278.4, 688.0)">p</text><text xml:space="preserve" font-family="Menlo-Regular" font-size="40.0" fill="#E5493C" transform="matrix(1.00, 0.00, -0.00, -1.00, 302.5, 688.0)">e</text><text xml:space="preserve" font-family="Menlo-Regular" font-size="40.0" fill="#E5493C" transform="matrix(1.00, 0.00, -0.00, -1.00, 326.6, 688.0)">"</text><text xml:space="preserve" font-family="Menlo-Regular" font-size="40.0" fill="#6A8188" transform="matrix(1.00, 0.00, -0.00, -1.00, 350.7, 688.0)">:</text><text xml:space="preserve" font-family="Menlo-Regular" font-size="40.0" fill="#000000" transform="matrix(1.00, 0.00, -0.00, -1.00, 374.7, 688.0)"> </text><text xml:space="preserve" font-family="Menlo-Regular" font-size="40.0" fill="#E5493C" transform="matrix(1.00, 0.00, -0.00, -1.00, 398.8, 688.0)">"</text><text xml:space="preserve" font-family="Menlo-Regular" font-size="40.0" fill="#E5493C" transform="matrix(1.00, 0.00, -0.00, -1.00, 422.9, 688.0)">I</text><text xml:space="preserve" font-family="Menlo-Regular" font-size="40.0" fill="#E5493C" transform="matrix(1.00, 0.00, -0.00, -1.00, 447.0, 688.0)">d</text><text xml:space="preserve" font-family="Menlo-Regular" font-size="40.0" fill="#E5493C" transform="matrix(1.00, 0.00, -0.00, -1.00, 471.1, 688.0)">e</text><text xml:space="preserve" font-family="Menlo-Regular" font-size="40.0" fill="#E5493C" transform="matrix(1.00, 0.00, -0.00, -1.00, 495.2, 688.0)">n</text><text xml:space="preserve" font-family="Menlo-Regular" font-size="40.0" fill="#E5493C" transform="matrix(1.00, 0.00, -0.00, -1.00, 519.3, 688.0)">t</text><text xml:space="preserve" font-family="Menlo-Regular" font-size="40.0" fill="#E5493C" transform="matrix(1.00, 0.00, -0.00, -1.00, 543.3, 688.0)">i</text><text xml:space="preserve" font-family="Menlo-Regular" font-size="40.0" fill="#E5493C" transform="matrix(1.00, 0.00, -0.00, -1.00, 567.4, 688.0)">f</text><text xml:space="preserve" font-family="Menlo-Regular" font-size="40.0" fill="#E5493C" transform="matrix(1.00, 0.00, -0.00, -1.00, 591.5, 688.0)">i</text><text xml:space="preserve" font-family="Menlo-Regular" font-size="40.0" fill="#E5493C" transform="matrix(1.00, 0.00, -0.00, -1.00, 615.6, 688.0)">e</text><text xml:space="preserve" font-family="Menlo-Regular" font-size="40.0" fill="#E5493C" transform="matrix(1.00, 0.00, -0.00, -1.00, 639.7, 688.0)">r</text><text xml:space="preserve" font-family="Menlo-Regular" font-size="40.0" fill="#E5493C" transform="matrix(1.00, 0.00, -0.00, -1.00, 663.8, 688.0)">"</text><text xml:space="preserve" font-family="Menlo-Regular" font-size="40.0" fill="#6A8188" transform="matrix(1.00, 0.00, -0.00, -1.00, 687.8, 688.0)">,</text><text xml:space="preserve" font-family="Menlo-Regular" font-size="40.0" fill="#000000" transform="matrix(1.00, 0.00, -0.00, -1.00, 711.9, 688.0)"> </text><text xml:space="preserve" font-family="Menlo-Regular" font-size="40.0" fill="#000000" transform="matrix(1.00, 0.00, -0.00, -1.00, 158.0, 642.0)"> </text><text xml:space="preserve" font-family="Menlo-Regular" font-size="40.0" fill="#000000" transform="matrix(1.00, 0.00, -0.00, -1.00, 182.1, 642.0)"> </text><text xml:space="preserve" font-family="Menlo-Regular" font-size="40.0" fill="#E5493C" transform="matrix(1.00, 0.00, -0.00, -1.00, 206.2, 642.0)">"</text><text xml:space="preserve" font-family="Menlo-Regular" font-size="40.0" fill="#E5493C" transform="matrix(1.00, 0.00, -0.00, -1.00, 230.3, 642.0)">n</text><text xml:space="preserve" font-family="Menlo-Regular" font-size="40.0" fill="#E5493C" transform="matrix(1.00, 0.00, -0.00, -1.00, 254.3, 642.0)">a</text><text xml:space="preserve" font-family="Menlo-Regular" font-size="40.0" fill="#E5493C" transform="matrix(1.00, 0.00, -0.00, -1.00, 278.4, 642.0)">m</text><text xml:space="preserve" font-family="Menlo-Regular" font-size="40.0" fill="#E5493C" transform="matrix(1.00, 0.00, -0.00, -1.00, 302.5, 642.0)">e</text><text xml:space="preserve" font-family="Menlo-Regular" font-size="40.0" fill="#E5493C" transform="matrix(1.00, 0.00, -0.00, -1.00, 326.6, 642.0)">"</text><text xml:space="preserve" font-family="Menlo-Regular" font-size="40.0" fill="#6A8188" transform="matrix(1.00, 0.00, -0.00, -1.00, 350.7, 642.0)">:</text><text xml:space="preserve" font-family="Menlo-Regular" font-size="40.0" fill="#000000" transform="matrix(1.00, 0.00, -0.00, -1.00, 374.7, 642.0)"> </text><text xml:space="preserve" font-family="Menlo-Regular" font-size="40.0" fill="#E5493C" transform="matrix(1.00, 0.00, -0.00, -1.00, 398.8, 642.0)">"</text><text xml:space="preserve" font-family="Menlo-Regular" font-size="40.0" fill="#E5493C" transform="matrix(1.00, 0.00, -0.00, -1.00, 422.9, 642.0)">m</text><text xml:space="preserve" font-family="Menlo-Regular" font-size="40.0" fill="#E5493C" transform="matrix(1.00, 0.00, -0.00, -1.00, 447.0, 642.0)">y</text><text xml:space="preserve" font-family="Menlo-Regular" font-size="40.0" fill="#E5493C" transform="matrix(1.00, 0.00, -0.00, -1.00, 471.1, 642.0)">V</text><text xml:space="preserve" font-family="Menlo-Regular" font-size="40.0" fill="#E5493C" transform="matrix(1.00, 0.00, -0.00, -1.00, 495.2, 642.0)">a</text><text xml:space="preserve" font-family="Menlo-Regular" font-size="40.0" fill="#E5493C" transform="matrix(1.00, 0.00, -0.00, -1.00, 519.3, 642.0)">r</text><text xml:space="preserve" font-family="Menlo-Regular" font-size="40.0" fill="#E5493C" transform="matrix(1.00, 0.00, -0.00, -1.00, 543.3, 642.0)">i</text><text xml:space="preserve" font-family="Menlo-Regular" font-size="40.0" fill="#E5493C" transform="matrix(1.00, 0.00, -0.00, -1.00, 567.4, 642.0)">a</text><text xml:space="preserve" font-family="Menlo-Regular" font-size="40.0" fill="#E5493C" transform="matrix(1.00, 0.00, -0.00, -1.00, 591.5, 642.0)">b</text><text xml:space="preserve" font-family="Menlo-Regular" font-size="40.0" fill="#E5493C" transform="matrix(1.00, 0.00, -0.00, -1.00, 615.6, 642.0)">l</text><text xml:space="preserve" font-family="Menlo-Regular" font-size="40.0" fill="#E5493C" transform="matrix(1.00, 0.00, -0.00, -1.00, 639.7, 642.0)">e</text><text xml:space="preserve" font-family="Menlo-Regular" font-size="40.0" fill="#E5493C" transform="matrix(1.00, 0.00, -0.00, -1.00, 663.8, 642.0)">"</text><text xml:space="preserve" font-family="Menlo-Regular" font-size="40.0" fill="#000000" transform="matrix(1.00, 0.00, -0.00, -1.00, 687.8, 642.0)"> </text><text xml:space="preserve" font-family="Menlo-Regular" font-size="40.0" fill="#6A8188" transform="matrix(1.00, 0.00, -0.00, -1.00, 158.0, 596.0)">}</text><text xml:space="preserve" font-family="Menlo-Regular" font-size="40.0" fill="#6A8188" transform="matrix(1.00, 0.00, -0.00, -1.00, 939.0, 734.0)">{</text><text xml:space="preserve" font-family="Menlo-Regular" font-size="40.0" fill="#6A8188" transform="matrix(1.00, 0.00, -0.00, -1.00, 963.1, 734.0)"> </text><text xml:space="preserve" font-family="Menlo-Regular" font-size="40.0" fill="#6A8188" transform="matrix(1.00, 0.00, -0.00, -1.00, 939.0, 688.0)"> </text><text xml:space="preserve" font-family="Menlo-Regular" font-size="40.0" fill="#6A8188" transform="matrix(1.00, 0.00, -0.00, -1.00, 963.1, 688.0)"> </text><text xml:space="preserve" font-family="Menlo-Regular" font-size="40.0" fill="#E5493C" transform="matrix(1.00, 0.00, -0.00, -1.00, 987.2, 688.0)">"</text><text xml:space="preserve" font-family="Menlo-Regular" font-size="40.0" fill="#E5493C" transform="matrix(1.00, 0.00, -0.00, -1.00, 1011.3, 688.0)">t</text><text xml:space="preserve" font-family="Menlo-Regular" font-size="40.0" fill="#E5493C" transform="matrix(1.00, 0.00, -0.00, -1.00, 1035.3, 688.0)">y</text><text xml:space="preserve" font-family="Menlo-Regular" font-size="40.0" fill="#E5493C" transform="matrix(1.00, 0.00, -0.00, -1.00, 1059.4, 688.0)">p</text><text xml:space="preserve" font-family="Menlo-Regular" font-size="40.0" fill="#E5493C" transform="matrix(1.00, 0.00, -0.00, -1.00, 1083.5, 688.0)">e</text><text xml:space="preserve" font-family="Menlo-Regular" font-size="40.0" fill="#E5493C" transform="matrix(1.00, 0.00, -0.00, -1.00, 1107.6, 688.0)">"</text><text xml:space="preserve" font-family="Menlo-Regular" font-size="40.0" fill="#6A8188" transform="matrix(1.00, 0.00, -0.00, -1.00, 1131.7, 688.0)">:</text><text xml:space="preserve" font-family="Menlo-Regular" font-size="40.0" fill="#000000" transform="matrix(1.00, 0.00, -0.00, -1.00, 1155.7, 688.0)"> </text><text xml:space="preserve" font-family="Menlo-Regular" font-size="40.0" fill="#E5493C" transform="matrix(1.00, 0.00, -0.00, -1.00, 1179.8, 688.0)">"</text><text xml:space="preserve" font-family="Menlo-Regular" font-size="40.0" fill="#E5493C" transform="matrix(1.00, 0.00, -0.00, -1.00, 1203.9, 688.0)">a</text><text xml:space="preserve" font-family="Menlo-Regular" font-size="40.0" fill="#E5493C" transform="matrix(1.00, 0.00, -0.00, -1.00, 1228.0, 688.0)">"</text><text xml:space="preserve" font-family="Menlo-Regular" font-size="40.0" fill="#6A8188" transform="matrix(1.00, 0.00, -0.00, -1.00, 1252.1, 688.0)">,</text><text xml:space="preserve" font-family="Menlo-Regular" font-size="40.0" fill="#000000" transform="matrix(1.00, 0.00, -0.00, -1.00, 1276.1, 688.0)"> </text><text xml:space="preserve" font-family="Menlo-Regular" font-size="40.0" fill="#000000" transform="matrix(1.00, 0.00, -0.00, -1.00, 939.0, 642.0)"> </text><text xml:space="preserve" font-family="Menlo-Regular" font-size="40.0" fill="#000000" transform="matrix(1.00, 0.00, -0.00, -1.00, 963.1, 642.0)"> </text><text xml:space="preserve" font-family="Menlo-Regular" font-size="40.0" fill="#E5493C" transform="matrix(1.00, 0.00, -0.00, -1.00, 987.2, 642.0)">"</text><text xml:space="preserve" font-family="Menlo-Regular" font-size="40.0" fill="#E5493C" transform="matrix(1.00, 0.00, -0.00, -1.00, 1011.3, 642.0)">h</text><text xml:space="preserve" font-family="Menlo-Regular" font-size="40.0" fill="#E5493C" transform="matrix(1.00, 0.00, -0.00, -1.00, 1035.3, 642.0)">r</text><text xml:space="preserve" font-family="Menlo-Regular" font-size="40.0" fill="#E5493C" transform="matrix(1.00, 0.00, -0.00, -1.00, 1059.4, 642.0)">e</text><text xml:space="preserve" font-family="Menlo-Regular" font-size="40.0" fill="#E5493C" transform="matrix(1.00, 0.00, -0.00, -1.00, 1083.5, 642.0)">f</text><text xml:space="preserve" font-family="Menlo-Regular" font-size="40.0" fill="#E5493C" transform="matrix(1.00, 0.00, -0.00, -1.00, 1107.6, 642.0)">"</text><text xml:space="preserve" font-family="Menlo-Regular" font-size="40.0" fill="#6A8188" transform="matrix(1.00, 0.00, -0.00, -1.00, 1131.7, 642.0)">:</text><text xml:space="preserve" font-family="Menlo-Regular" font-size="40.0" fill="#000000" transform="matrix(1.00, 0.00, -0.00, -1.00, 1155.7, 642.0)"> </text><text xml:space="preserve" font-family="Menlo-Regular" font-size="40.0" fill="#E5493C" transform="matrix(1.00, 0.00, -0.00, -1.00, 1179.8, 642.0)">"</text><text xml:space="preserve" font-family="Menlo-Regular" font-size="40.0" fill="#E5493C" transform="matrix(1.00, 0.00, -0.00, -1.00, 1203.9, 642.0)">h</text><text xml:space="preserve" font-family="Menlo-Regular" font-size="40.0" fill="#E5493C" transform="matrix(1.00, 0.00, -0.00, -1.00, 1228.0, 642.0)">t</text><text xml:space="preserve" font-family="Menlo-Regular" font-size="40.0" fill="#E5493C" transform="matrix(1.00, 0.00, -0.00, -1.00, 1252.1, 642.0)">t</text><text xml:space="preserve" font-family="Menlo-Regular" font-size="40.0" fill="#E5493C" transform="matrix(1.00, 0.00, -0.00, -1.00, 1276.2, 642.0)">p</text><text xml:space="preserve" font-family="Menlo-Regular" font-size="40.0" fill="#E5493C" transform="matrix(1.00, 0.00, -0.00, -1.00, 1300.3, 642.0)">:</text><text xml:space="preserve" font-family="Menlo-Regular" font-size="40.0" fill="#E5493C" transform="matrix(1.00, 0.00, -0.00, -1.00, 1324.3, 642.0)">/</text><text xml:space="preserve" font-family="Menlo-Regular" font-size="40.0" fill="#E5493C" transform="matrix(1.00, 0.00, -0.00, -1.00, 1348.4, 642.0)">/</text><text xml:space="preserve" font-family="Menlo-Regular" font-size="40.0" fill="#E5493C" transform="matrix(1.00, 0.00, -0.00, -1.00, 1372.5, 642.0)">b</text><text xml:space="preserve" font-family="Menlo-Regular" font-size="40.0" fill="#E5493C" transform="matrix(1.00, 0.00, -0.00, -1.00, 1396.6, 642.0)">r</text><text xml:space="preserve" font-family="Menlo-Regular" font-size="40.0" fill="#E5493C" transform="matrix(1.00, 0.00, -0.00, -1.00, 1420.7, 642.0)">o</text><text xml:space="preserve" font-family="Menlo-Regular" font-size="40.0" fill="#E5493C" transform="matrix(1.00, 0.00, -0.00, -1.00, 1444.8, 642.0)">o</text><text xml:space="preserve" font-family="Menlo-Regular" font-size="40.0" fill="#E5493C" transform="matrix(1.00, 0.00, -0.00, -1.00, 1468.9, 642.0)">k</text><text xml:space="preserve" font-family="Menlo-Regular" font-size="40.0" fill="#E5493C" transform="matrix(1.00, 0.00, -0.00, -1.00, 1492.9, 642.0)">l</text><text xml:space="preserve" font-family="Menlo-Regular" font-size="40.0" fill="#E5493C" transform="matrix(1.00, 0.00, -0.00, -1.00, 1517.0, 642.0)">y</text><text xml:space="preserve" font-family="Menlo-Regular" font-size="40.0" fill="#E5493C" transform="matrix(1.00, 0.00, -0.00, -1.00, 1541.1, 642.0)">n</text><text xml:space="preserve" font-family="Menlo-Regular" font-size="40.0" fill="#E5493C" transform="matrix(1.00, 0.00, -0.00, -1.00, 1565.2, 642.0)">j</text><text xml:space="preserve" font-family="Menlo-Regular" font-size="40.0" fill="#E5493C" transform="matrix(1.00, 0.00, -0.00, -1.00, 1589.3, 642.0)">s</text><text xml:space="preserve" font-family="Menlo-Regular" font-size="40.0" fill="#E5493C" transform="matrix(1.00, 0.00, -0.00, -1.00, 1613.4, 642.0)">.</text><text xml:space="preserve" font-family="Menlo-Regular" font-size="40.0" fill="#E5493C" transform="matrix(1.00, 0.00, -0.00, -1.00, 1637.5, 642.0)">c</text><text xml:space="preserve" font-family="Menlo-Regular" font-size="40.0" fill="#E5493C" transform="matrix(1.00, 0.00, -0.00, -1.00, 1661.5, 642.0)">o</text><text xml:space="preserve" font-family="Menlo-Regular" font-size="40.0" fill="#E5493C" transform="matrix(1.00, 0.00, -0.00, -1.00, 1685.6, 642.0)">m</text><text xml:space="preserve" font-family="Menlo-Regular" font-size="40.0" fill="#E5493C" transform="matrix(1.00, 0.00, -0.00, -1.00, 1709.7, 642.0)">/</text><text xml:space="preserve" font-family="Menlo-Regular" font-size="40.0" fill="#E5493C" transform="matrix(1.00, 0.00, -0.00, -1.00, 1733.8, 642.0)">"</text><text xml:space="preserve" font-family="Menlo-Regular" font-size="40.0" fill="#000000" transform="matrix(1.00, 0.00, -0.00, -1.00, 1757.8, 642.0)"> </text><text xml:space="preserve" font-family="Menlo-Regular" font-size="40.0" fill="#6A8188" transform="matrix(1.00, 0.00, -0.00, -1.00, 939.0, 596.0)">}</text><text xml:space="preserve" font-family="HelveticaNeue-Light" font-size="50.0" fill="#000000" transform="matrix(1.00, 0.00, -0.00, -1.00, 138.0, 828.0)">A</text><text xml:space="preserve" font-family="HelveticaNeue-Light" font-size="50.0" fill="#000000" transform="matrix(1.00, 0.00, -0.00, -1.00, 169.5, 828.0)">S</text><text xml:space="preserve" font-family="HelveticaNeue-Light" font-size="50.0" fill="#000000" transform="matrix(1.00, 0.00, -0.00, -1.00, 201.0, 828.0)">T</text><text xml:space="preserve" font-family="HelveticaNeue-Light" font-size="50.0" fill="#000000" transform="matrix(1.00, 0.00, -0.00, -1.00, 228.8, 828.0)"> </text><text xml:space="preserve" font-family="HelveticaNeue-Light" font-size="50.0" fill="#000000" transform="matrix(1.00, 0.00, -0.00, -1.00, 242.7, 828.0)">P</text><text xml:space="preserve" font-family="HelveticaNeue-Light" font-size="50.0" fill="#000000" transform="matrix(1.00, 0.00, -0.00, -1.00, 274.2, 828.0)">r</text><text xml:space="preserve" font-family="HelveticaNeue-Light" font-size="50.0" fill="#000000" transform="matrix(1.00, 0.00, -0.00, -1.00, 289.0, 828.0)">o</text><text xml:space="preserve" font-family="HelveticaNeue-Light" font-size="50.0" fill="#000000" transform="matrix(1.00, 0.00, -0.00, -1.00, 316.9, 828.0)">p</text><text xml:space="preserve" font-family="HelveticaNeue-Light" font-size="50.0" fill="#000000" transform="matrix(1.00, 0.00, -0.00, -1.00, 345.6, 828.0)">e</text><text xml:space="preserve" font-family="HelveticaNeue-Light" font-size="50.0" fill="#000000" transform="matrix(1.00, 0.00, -0.00, -1.00, 371.5, 828.0)">r</text><text xml:space="preserve" font-family="HelveticaNeue-Light" font-size="50.0" fill="#000000" transform="matrix(1.00, 0.00, -0.00, -1.00, 387.2, 828.0)">t</text><text xml:space="preserve" font-family="HelveticaNeue-Light" font-size="50.0" fill="#000000" transform="matrix(1.00, 0.00, -0.00, -1.00, 402.1, 828.0)">y</text><text xml:space="preserve" font-family="HelveticaNeue-Light" font-size="50.0" fill="#000000" transform="matrix(1.00, 0.00, -0.00, -1.00, 425.2, 828.0)"> </text><text xml:space="preserve" font-family="HelveticaNeue-Light" font-size="50.0" fill="#000000" transform="matrix(1.00, 0.00, -0.00, -1.00, 439.1, 828.0)">T</text><text xml:space="preserve" font-family="HelveticaNeue-Light" font-size="50.0" fill="#000000" transform="matrix(1.00, 0.00, -0.00, -1.00, 462.3, 828.0)">r</text><text xml:space="preserve" font-family="HelveticaNeue-Light" font-size="50.0" fill="#000000" transform="matrix(1.00, 0.00, -0.00, -1.00, 478.0, 828.0)">a</text><text xml:space="preserve" font-family="HelveticaNeue-Light" font-size="50.0" fill="#000000" transform="matrix(1.00, 0.00, -0.00, -1.00, 504.0, 828.0)">n</text><text xml:space="preserve" font-family="HelveticaNeue-Light" font-size="50.0" fill="#000000" transform="matrix(1.00, 0.00, -0.00, -1.00, 530.8, 828.0)">s</text><text xml:space="preserve" font-family="HelveticaNeue-Light" font-size="50.0" fill="#000000" transform="matrix(1.00, 0.00, -0.00, -1.00, 554.9, 828.0)">f</text><text xml:space="preserve" font-family="HelveticaNeue-Light" font-size="50.0" fill="#000000" transform="matrix(1.00, 0.00, -0.00, -1.00, 567.8, 828.0)">o</text><text xml:space="preserve" font-family="HelveticaNeue-Light" font-size="50.0" fill="#000000" transform="matrix(1.00, 0.00, -0.00, -1.00, 595.6, 828.0)">r</text><text xml:space="preserve" font-family="HelveticaNeue-Light" font-size="50.0" fill="#000000" transform="matrix(1.00, 0.00, -0.00, -1.00, 611.4, 828.0)">m</text><text xml:space="preserve" font-family="HelveticaNeue-Light" font-size="50.0" fill="#000000" transform="matrix(1.00, 0.00, -0.00, -1.00, 653.0, 828.0)">a</text><text xml:space="preserve" font-family="HelveticaNeue-Light" font-size="50.0" fill="#000000" transform="matrix(1.00, 0.00, -0.00, -1.00, 679.0, 828.0)">t</text><text xml:space="preserve" font-family="HelveticaNeue-Light" font-size="50.0" fill="#000000" transform="matrix(1.00, 0.00, -0.00, -1.00, 693.8, 828.0)">i</text><text xml:space="preserve" font-family="HelveticaNeue-Light" font-size="50.0" fill="#000000" transform="matrix(1.00, 0.00, -0.00, -1.00, 703.0, 828.0)">o</text><text xml:space="preserve" font-family="HelveticaNeue-Light" font-size="50.0" fill="#000000" transform="matrix(1.00, 0.00, -0.00, -1.00, 730.8, 828.0)">n</text><text xml:space="preserve" font-family="HelveticaNeue-Light" font-size="50.0" fill="#000000" transform="matrix(1.00, 0.00, -0.00, -1.00, 1032.0, 828.0)">E</text><text xml:space="preserve" font-family="HelveticaNeue-Light" font-size="50.0" fill="#000000" transform="matrix(1.00, 0.00, -0.00, -1.00, 1061.7, 828.0)">l</text><text xml:space="preserve" font-family="HelveticaNeue-Light" font-size="50.0" fill="#000000" transform="matrix(1.00, 0.00, -0.00, -1.00, 1070.9, 828.0)">e</text><text xml:space="preserve" font-family="HelveticaNeue-Light" font-size="50.0" fill="#000000" transform="matrix(1.00, 0.00, -0.00, -1.00, 1096.8, 828.0)">m</text><text xml:space="preserve" font-family="HelveticaNeue-Light" font-size="50.0" fill="#000000" transform="matrix(1.00, 0.00, -0.00, -1.00, 1138.5, 828.0)">e</text><text xml:space="preserve" font-family="HelveticaNeue-Light" font-size="50.0" fill="#000000" transform="matrix(1.00, 0.00, -0.00, -1.00, 1164.5, 828.0)">n</text><text xml:space="preserve" font-family="HelveticaNeue-Light" font-size="50.0" fill="#000000" transform="matrix(1.00, 0.00, -0.00, -1.00, 1191.3, 828.0)">t</text><text xml:space="preserve" font-family="HelveticaNeue-Light" font-size="50.0" fill="#000000" transform="matrix(1.00, 0.00, -0.00, -1.00, 1206.1, 828.0)"> </text><text xml:space="preserve" font-family="HelveticaNeue-Light" font-size="50.0" fill="#000000" transform="matrix(1.00, 0.00, -0.00, -1.00, 1220.0, 828.0)">A</text><text xml:space="preserve" font-family="HelveticaNeue-Light" font-size="50.0" fill="#000000" transform="matrix(1.00, 0.00, -0.00, -1.00, 1251.5, 828.0)">t</text><text xml:space="preserve" font-family="HelveticaNeue-Light" font-size="50.0" fill="#000000" transform="matrix(1.00, 0.00, -0.00, -1.00, 1266.3, 828.0)">t</text><text xml:space="preserve" font-family="HelveticaNeue-Light" font-size="50.0" fill="#000000" transform="matrix(1.00, 0.00, -0.00, -1.00, 1281.1, 828.0)">r</text><text xml:space="preserve" font-family="HelveticaNeue-Light" font-size="50.0" fill="#000000" transform="matrix(1.00, 0.00, -0.00, -1.00, 1296.8, 828.0)">i</text><text xml:space="preserve" font-family="HelveticaNeue-Light" font-size="50.0" fill="#000000" transform="matrix(1.00, 0.00, -0.00, -1.00, 1306.1, 828.0)">b</text><text xml:space="preserve" font-family="HelveticaNeue-Light" font-size="50.0" fill="#000000" transform="matrix(1.00, 0.00, -0.00, -1.00, 1334.8, 828.0)">u</text><text xml:space="preserve" font-family="HelveticaNeue-Light" font-size="50.0" fill="#000000" transform="matrix(1.00, 0.00, -0.00, -1.00, 1361.7, 828.0)">t</text><text xml:space="preserve" font-family="HelveticaNeue-Light" font-size="50.0" fill="#000000" transform="matrix(1.00, 0.00, -0.00, -1.00, 1376.5, 828.0)">e</text><text xml:space="preserve" font-family="HelveticaNeue-Light" font-size="50.0" fill="#000000" transform="matrix(1.00, 0.00, -0.00, -1.00, 1402.4, 828.0)"> </text><text xml:space="preserve" font-family="HelveticaNeue-Light" font-size="50.0" fill="#000000" transform="matrix(1.00, 0.00, -0.00, -1.00, 1416.3, 828.0)">M</text><text xml:space="preserve" font-family="HelveticaNeue-Light" font-size="50.0" fill="#000000" transform="matrix(1.00, 0.00, -0.00, -1.00, 1457.3, 828.0)">a</text><text xml:space="preserve" font-family="HelveticaNeue-Light" font-size="50.0" fill="#000000" transform="matrix(1.00, 0.00, -0.00, -1.00, 1483.3, 828.0)">n</text><text xml:space="preserve" font-family="HelveticaNeue-Light" font-size="50.0" fill="#000000" transform="matrix(1.00, 0.00, -0.00, -1.00, 1510.2, 828.0)">i</text><text xml:space="preserve" font-family="HelveticaNeue-Light" font-size="50.0" fill="#000000" transform="matrix(1.00, 0.00, -0.00, -1.00, 1519.4, 828.0)">p</text><text xml:space="preserve" font-family="HelveticaNeue-Light" font-size="50.0" fill="#000000" transform="matrix(1.00, 0.00, -0.00, -1.00, 1548.1, 828.0)">u</text><text xml:space="preserve" font-family="HelveticaNeue-Light" font-size="50.0" fill="#000000" transform="matrix(1.00, 0.00, -0.00, -1.00, 1575.0, 828.0)">l</text><text xml:space="preserve" font-family="HelveticaNeue-Light" font-size="50.0" fill="#000000" transform="matrix(1.00, 0.00, -0.00, -1.00, 1584.2, 828.0)">a</text><text xml:space="preserve" font-family="HelveticaNeue-Light" font-size="50.0" fill="#000000" transform="matrix(1.00, 0.00, -0.00, -1.00, 1610.2, 828.0)">t</text><text xml:space="preserve" font-family="HelveticaNeue-Light" font-size="50.0" fill="#000000" transform="matrix(1.00, 0.00, -0.00, -1.00, 1625.0, 828.0)">i</text><text xml:space="preserve" font-family="HelveticaNeue-Light" font-size="50.0" fill="#000000" transform="matrix(1.00, 0.00, -0.00, -1.00, 1634.2, 828.0)">o</text><text xml:space="preserve" font-family="HelveticaNeue-Light" font-size="50.0" fill="#000000" transform="matrix(1.00, 0.00, -0.00, -1.00, 1662.0, 828.0)">n</text></g></svg>