<?xml version="1.0" encoding="UTF-8" standalone="no"?><svg xmlns="http://www.w3.org/2000/svg" xmlns:xlink="http://www.w3.org/1999/xlink" clip-rule="evenodd" stroke-miterlimit="4.00" viewBox="0 0 574 235"><desc>SVG generated by Keynote</desc><defs></defs><g transform="matrix(1.00, 0.00, -0.00, -1.00, 0.0, 235.0)"><text xml:space="preserve" font-family="Menlo-Regular" font-size="34.0" fill="#6A8188" transform="matrix(1.00, 0.00, -0.00, -1.00, 0.0, 205.0)">{</text><text xml:space="preserve" font-family="Menlo-Regular" font-size="34.0" fill="#000000" transform="matrix(1.00, 0.00, -0.00, -1.00, 20.5, 205.0)"> </text><text xml:space="preserve" font-family="Menlo-Regular" font-size="34.0" fill="#000000" transform="matrix(1.00, 0.00, -0.00, -1.00, 0.0, 165.0)"> </text><text xml:space="preserve" font-family="Menlo-Regular" font-size="34.0" fill="#000000" transform="matrix(1.00, 0.00, -0.00, -1.00, 20.5, 165.0)"> </text><text xml:space="preserve" font-family="Menlo-Regular" font-size="34.0" fill="#E5493C" transform="matrix(1.00, 0.00, -0.00, -1.00, 40.9, 165.0)">"</text><text xml:space="preserve" font-family="Menlo-Regular" font-size="34.0" fill="#E5493C" transform="matrix(1.00, 0.00, -0.00, -1.00, 61.4, 165.0)">t</text><text xml:space="preserve" font-family="Menlo-Regular" font-size="34.0" fill="#E5493C" transform="matrix(1.00, 0.00, -0.00, -1.00, 81.9, 165.0)">y</text><text xml:space="preserve" font-family="Menlo-Regular" font-size="34.0" fill="#E5493C" transform="matrix(1.00, 0.00, -0.00, -1.00, 102.4, 165.0)">p</text><text xml:space="preserve" font-family="Menlo-Regular" font-size="34.0" fill="#E5493C" transform="matrix(1.00, 0.00, -0.00, -1.00, 122.8, 165.0)">e</text><text xml:space="preserve" font-family="Menlo-Regular" font-size="34.0" fill="#E5493C" transform="matrix(1.00, 0.00, -0.00, -1.00, 143.3, 165.0)">"</text><text xml:space="preserve" font-family="Menlo-Regular" font-size="34.0" fill="#6A8188" transform="matrix(1.00, 0.00, -0.00, -1.00, 163.8, 165.0)">:</text><text xml:space="preserve" font-family="Menlo-Regular" font-size="34.0" fill="#000000" transform="matrix(1.00, 0.00, -0.00, -1.00, 184.2, 165.0)"> </text><text xml:space="preserve" font-family="Menlo-Regular" font-size="34.0" fill="#E5493C" transform="matrix(1.00, 0.00, -0.00, -1.00, 204.7, 165.0)">"</text><text xml:space="preserve" font-family="Menlo-Regular" font-size="34.0" fill="#E5493C" transform="matrix(1.00, 0.00, -0.00, -1.00, 225.2, 165.0)">B</text><text xml:space="preserve" font-family="Menlo-Regular" font-size="34.0" fill="#E5493C" transform="matrix(1.00, 0.00, -0.00, -1.00, 245.6, 165.0)">i</text><text xml:space="preserve" font-family="Menlo-Regular" font-size="34.0" fill="#E5493C" transform="matrix(1.00, 0.00, -0.00, -1.00, 266.1, 165.0)">n</text><text xml:space="preserve" font-family="Menlo-Regular" font-size="34.0" fill="#E5493C" transform="matrix(1.00, 0.00, -0.00, -1.00, 286.6, 165.0)">a</text><text xml:space="preserve" font-family="Menlo-Regular" font-size="34.0" fill="#E5493C" transform="matrix(1.00, 0.00, -0.00, -1.00, 307.1, 165.0)">r</text><text xml:space="preserve" font-family="Menlo-Regular" font-size="34.0" fill="#E5493C" transform="matrix(1.00, 0.00, -0.00, -1.00, 327.5, 165.0)">y</text><text xml:space="preserve" font-family="Menlo-Regular" font-size="34.0" fill="#E5493C" transform="matrix(1.00, 0.00, -0.00, -1.00, 348.0, 165.0)">E</text><text xml:space="preserve" font-family="Menlo-Regular" font-size="34.0" fill="#E5493C" transform="matrix(1.00, 0.00, -0.00, -1.00, 368.5, 165.0)">x</text><text xml:space="preserve" font-family="Menlo-Regular" font-size="34.0" fill="#E5493C" transform="matrix(1.00, 0.00, -0.00, -1.00, 389.0, 165.0)">p</text><text xml:space="preserve" font-family="Menlo-Regular" font-size="34.0" fill="#E5493C" transform="matrix(1.00, 0.00, -0.00, -1.00, 409.4, 165.0)">r</text><text xml:space="preserve" font-family="Menlo-Regular" font-size="34.0" fill="#E5493C" transform="matrix(1.00, 0.00, -0.00, -1.00, 429.9, 165.0)">e</text><text xml:space="preserve" font-family="Menlo-Regular" font-size="34.0" fill="#E5493C" transform="matrix(1.00, 0.00, -0.00, -1.00, 450.4, 165.0)">s</text><text xml:space="preserve" font-family="Menlo-Regular" font-size="34.0" fill="#E5493C" transform="matrix(1.00, 0.00, -0.00, -1.00, 470.8, 165.0)">s</text><text xml:space="preserve" font-family="Menlo-Regular" font-size="34.0" fill="#E5493C" transform="matrix(1.00, 0.00, -0.00, -1.00, 491.3, 165.0)">i</text><text xml:space="preserve" font-family="Menlo-Regular" font-size="34.0" fill="#E5493C" transform="matrix(1.00, 0.00, -0.00, -1.00, 511.8, 165.0)">o</text><text xml:space="preserve" font-family="Menlo-Regular" font-size="34.0" fill="#E5493C" transform="matrix(1.00, 0.00, -0.00, -1.00, 532.3, 165.0)">n</text><text xml:space="preserve" font-family="Menlo-Regular" font-size="34.0" fill="#E5493C" transform="matrix(1.00, 0.00, -0.00, -1.00, 552.7, 165.0)">"</text><text xml:space="preserve" font-family="Menlo-Regular" font-size="34.0" fill="#000000" transform="matrix(1.00, 0.00, -0.00, -1.00, 573.2, 165.0)"> </text><text xml:space="preserve" font-family="Menlo-Regular" font-size="34.0" fill="#000000" transform="matrix(1.00, 0.00, -0.00, -1.00, 0.0, 125.0)"> </text><text xml:space="preserve" font-family="Menlo-Regular" font-size="34.0" fill="#000000" transform="matrix(1.00, 0.00, -0.00, -1.00, 20.5, 125.0)"> </text><text xml:space="preserve" font-family="Menlo-Regular" font-size="34.0" fill="#E5493C" transform="matrix(1.00, 0.00, -0.00, -1.00, 40.9, 125.0)">"</text><text xml:space="preserve" font-family="Menlo-Regular" font-size="34.0" fill="#E5493C" transform="matrix(1.00, 0.00, -0.00, -1.00, 61.4, 125.0)">l</text><text xml:space="preserve" font-family="Menlo-Regular" font-size="34.0" fill="#E5493C" transform="matrix(1.00, 0.00, -0.00, -1.00, 81.9, 125.0)">e</text><text xml:space="preserve" font-family="Menlo-Regular" font-size="34.0" fill="#E5493C" transform="matrix(1.00, 0.00, -0.00, -1.00, 102.4, 125.0)">f</text><text xml:space="preserve" font-family="Menlo-Regular" font-size="34.0" fill="#E5493C" transform="matrix(1.00, 0.00, -0.00, -1.00, 122.8, 125.0)">t</text><text xml:space="preserve" font-family="Menlo-Regular" font-size="34.0" fill="#E5493C" transform="matrix(1.00, 0.00, -0.00, -1.00, 143.3, 125.0)">"</text><text xml:space="preserve" font-family="Menlo-Regular" font-size="34.0" fill="#6A8188" transform="matrix(1.00, 0.00, -0.00, -1.00, 163.8, 125.0)">:</text><text xml:space="preserve" font-family="Menlo-Regular" font-size="34.0" fill="#6A8188" transform="matrix(1.00, 0.00, -0.00, -1.00, 184.2, 125.0)"> </text><text xml:space="preserve" font-family="Menlo-Regular" font-size="34.0" fill="#6A8188" transform="matrix(1.00, 0.00, -0.00, -1.00, 204.7, 125.0)">{</text><text xml:space="preserve" font-family="Menlo-Regular" font-size="34.0" fill="#6A8188" transform="matrix(1.00, 0.00, -0.00, -1.00, 225.2, 125.0)">…</text><text xml:space="preserve" font-family="Menlo-Regular" font-size="34.0" fill="#6A8188" transform="matrix(1.00, 0.00, -0.00, -1.00, 245.7, 125.0)">}</text><text xml:space="preserve" font-family="Menlo-Regular" font-size="34.0" fill="#6A8188" transform="matrix(1.00, 0.00, -0.00, -1.00, 266.1, 125.0)">,</text><text xml:space="preserve" font-family="Menlo-Regular" font-size="34.0" fill="#000000" transform="matrix(1.00, 0.00, -0.00, -1.00, 286.6, 125.0)"> </text><text xml:space="preserve" font-family="Menlo-Regular" font-size="34.0" fill="#000000" transform="matrix(1.00, 0.00, -0.00, -1.00, 0.0, 85.0)"> </text><text xml:space="preserve" font-family="Menlo-Regular" font-size="34.0" fill="#000000" transform="matrix(1.00, 0.00, -0.00, -1.00, 20.5, 85.0)"> </text><text xml:space="preserve" font-family="Menlo-Regular" font-size="34.0" fill="#E5493C" transform="matrix(1.00, 0.00, -0.00, -1.00, 40.9, 85.0)">"</text><text xml:space="preserve" font-family="Menlo-Regular" font-size="34.0" fill="#E5493C" transform="matrix(1.00, 0.00, -0.00, -1.00, 61.4, 85.0)">o</text><text xml:space="preserve" font-family="Menlo-Regular" font-size="34.0" fill="#E5493C" transform="matrix(1.00, 0.00, -0.00, -1.00, 81.9, 85.0)">p</text><text xml:space="preserve" font-family="Menlo-Regular" font-size="34.0" fill="#E5493C" transform="matrix(1.00, 0.00, -0.00, -1.00, 102.4, 85.0)">e</text><text xml:space="preserve" font-family="Menlo-Regular" font-size="34.0" fill="#E5493C" transform="matrix(1.00, 0.00, -0.00, -1.00, 122.8, 85.0)">r</text><text xml:space="preserve" font-family="Menlo-Regular" font-size="34.0" fill="#E5493C" transform="matrix(1.00, 0.00, -0.00, -1.00, 143.3, 85.0)">a</text><text xml:space="preserve" font-family="Menlo-Regular" font-size="34.0" fill="#E5493C" transform="matrix(1.00, 0.00, -0.00, -1.00, 163.8, 85.0)">t</text><text xml:space="preserve" font-family="Menlo-Regular" font-size="34.0" fill="#E5493C" transform="matrix(1.00, 0.00, -0.00, -1.00, 184.3, 85.0)">o</text><text xml:space="preserve" font-family="Menlo-Regular" font-size="34.0" fill="#E5493C" transform="matrix(1.00, 0.00, -0.00, -1.00, 204.7, 85.0)">r</text><text xml:space="preserve" font-family="Menlo-Regular" font-size="34.0" fill="#E5493C" transform="matrix(1.00, 0.00, -0.00, -1.00, 225.2, 85.0)">"</text><text xml:space="preserve" font-family="Menlo-Regular" font-size="34.0" fill="#6A8188" transform="matrix(1.00, 0.00, -0.00, -1.00, 245.6, 85.0)">:</text><text xml:space="preserve" font-family="Menlo-Regular" font-size="34.0" fill="#000000" transform="matrix(1.00, 0.00, -0.00, -1.00, 266.1, 85.0)"> </text><text xml:space="preserve" font-family="Menlo-Regular" font-size="34.0" fill="#E5493C" transform="matrix(1.00, 0.00, -0.00, -1.00, 286.6, 85.0)">…</text><text xml:space="preserve" font-family="Menlo-Regular" font-size="34.0" fill="#6A8188" transform="matrix(1.00, 0.00, -0.00, -1.00, 307.0, 85.0)">,</text><text xml:space="preserve" font-family="Menlo-Regular" font-size="34.0" fill="#000000" transform="matrix(1.00, 0.00, -0.00, -1.00, 327.5, 85.0)"> </text><text xml:space="preserve" font-family="Menlo-Regular" font-size="34.0" fill="#000000" transform="matrix(1.00, 0.00, -0.00, -1.00, 0.0, 45.0)"> </text><text xml:space="preserve" font-family="Menlo-Regular" font-size="34.0" fill="#000000" transform="matrix(1.00, 0.00, -0.00, -1.00, 20.5, 45.0)"> </text><text xml:space="preserve" font-family="Menlo-Regular" font-size="34.0" fill="#E5493C" transform="matrix(1.00, 0.00, -0.00, -1.00, 40.9, 45.0)">"</text><text xml:space="preserve" font-family="Menlo-Regular" font-size="34.0" fill="#E5493C" transform="matrix(1.00, 0.00, -0.00, -1.00, 61.4, 45.0)">r</text><text xml:space="preserve" font-family="Menlo-Regular" font-size="34.0" fill="#E5493C" transform="matrix(1.00, 0.00, -0.00, -1.00, 81.9, 45.0)">i</text><text xml:space="preserve" font-family="Menlo-Regular" font-size="34.0" fill="#E5493C" transform="matrix(1.00, 0.00, -0.00, -1.00, 102.4, 45.0)">g</text><text xml:space="preserve" font-family="Menlo-Regular" font-size="34.0" fill="#E5493C" transform="matrix(1.00, 0.00, -0.00, -1.00, 122.8, 45.0)">h</text><text xml:space="preserve" font-family="Menlo-Regular" font-size="34.0" fill="#E5493C" transform="matrix(1.00, 0.00, -0.00, -1.00, 143.3, 45.0)">t</text><text xml:space="preserve" font-family="Menlo-Regular" font-size="34.0" fill="#E5493C" transform="matrix(1.00, 0.00, -0.00, -1.00, 163.8, 45.0)">"</text><text xml:space="preserve" font-family="Menlo-Regular" font-size="34.0" fill="#6A8188" transform="matrix(1.00, 0.00, -0.00, -1.00, 184.2, 45.0)">:</text><text xml:space="preserve" font-family="Menlo-Regular" font-size="34.0" fill="#6A8188" transform="matrix(1.00, 0.00, -0.00, -1.00, 204.7, 45.0)"> </text><text xml:space="preserve" font-family="Menlo-Regular" font-size="34.0" fill="#6A8188" transform="matrix(1.00, 0.00, -0.00, -1.00, 225.2, 45.0)">{</text><text xml:space="preserve" font-family="Menlo-Regular" font-size="34.0" fill="#6A8188" transform="matrix(1.00, 0.00, -0.00, -1.00, 245.6, 45.0)">…</text><text xml:space="preserve" font-family="Menlo-Regular" font-size="34.0" fill="#6A8188" transform="matrix(1.00, 0.00, -0.00, -1.00, 266.1, 45.0)">}</text><text xml:space="preserve" font-family="Menlo-Regular" font-size="34.0" fill="#000000" transform="matrix(1.00, 0.00, -0.00, -1.00, 286.6, 45.0)"> </text><text xml:space="preserve" font-family="Menlo-Regular" font-size="34.0" fill="#6A8188" transform="matrix(1.00, 0.00, -0.00, -1.00, 0.0, 5.0)">}</text></g></svg>