<?xml version="1.0" encoding="UTF-8" standalone="no"?><svg xmlns="http://www.w3.org/2000/svg" xmlns:xlink="http://www.w3.org/1999/xlink" clip-rule="evenodd" stroke-miterlimit="4.00" viewBox="0 0 321 87"><desc>SVG generated by Keynote</desc><defs></defs><g transform="matrix(1.00, 0.00, -0.00, -1.00, 0.0, 87.0)"><g><clipPath id="clip-170"><path d="M 175.7 6.8 L 330.3 6.8 L 330.3 96.3 L 175.7 96.3 Z M 175.7 6.8 "></path></clipPath><g clip-path="url(#clip-170)"><text xml:space="preserve" font-family="HelveticaNeue-Light" font-size="50.0" fill="#000000" transform="matrix(1.00, 0.00, -0.00, -1.00, 191.0, 34.0)">v</text><text xml:space="preserve" font-family="HelveticaNeue-Light" font-size="50.0" fill="#000000" transform="matrix(1.00, 0.00, -0.00, -1.00, 214.2, 34.0)">i</text><text xml:space="preserve" font-family="HelveticaNeue-Light" font-size="50.0" fill="#000000" transform="matrix(1.00, 0.00, -0.00, -1.00, 223.4, 34.0)">s</text><text xml:space="preserve" font-family="HelveticaNeue-Light" font-size="50.0" fill="#000000" transform="matrix(1.00, 0.00, -0.00, -1.00, 247.4, 34.0)">i</text><text xml:space="preserve" font-family="HelveticaNeue-Light" font-size="50.0" fill="#000000" transform="matrix(1.00, 0.00, -0.00, -1.00, 256.7, 34.0)">t</text><text xml:space="preserve" font-family="HelveticaNeue-Light" font-size="50.0" fill="#000000" transform="matrix(1.00, 0.00, -0.00, -1.00, 271.5, 34.0)">o</text><text xml:space="preserve" font-family="HelveticaNeue-Light" font-size="50.0" fill="#000000" transform="matrix(1.00, 0.00, -0.00, -1.00, 299.3, 34.0)">r</text></g></g><g><clipPath id="clip-171"><path d="M 0.6 3.5 L 151.4 43.7 L 152.2 40.8 L 1.4 0.6 Z M 0.6 3.5 "></path></clipPath><g clip-path="url(#clip-171)"><path d="M 0.0 0.0 L 154.0 0.0 " fill="none" stroke="#ABABAB" stroke-width="1.00" transform="matrix(0.97, 0.26, 0.26, -0.97, 2.0, 2.3)"></path></g></g></g></svg>