<?xml version="1.0" encoding="UTF-8" standalone="no"?><svg xmlns="http://www.w3.org/2000/svg" xmlns:xlink="http://www.w3.org/1999/xlink" clip-rule="evenodd" stroke-miterlimit="4.00" viewBox="0 0 1920 1080"><desc>SVG generated by Keynote</desc><defs></defs><g transform="matrix(1.00, 0.00, -0.00, -1.00, 0.0, 1080.0)"><path d="M 0.0 1080.0 L 1920.0 1080.0 L 1920.0 0.0 L 0.0 0.0 Z M 0.0 1080.0 " fill="#FEFFFE"></path><g><clipPath id="clip-97"><path d="M 0.0 1080.0 L 1920.0 1080.0 L 1920.0 0.0 L 0.0 0.0 Z M 0.0 1080.0 "></path></clipPath><g clip-path="url(#clip-97)"><image xlink:href="../../474F9368-7375-4E55-9655-A4D1845921D2/assets/DE138CD9A82546BC6301890DE0F361B7.jpeg" width="1365.00" height="768.00" transform="matrix(1.41, 0.00, -0.00, -1.41, 0.0, 1080.0)"></image></g></g><path d="M 48.0 1030.0 L 489.4 1030.0 L 489.4 904.0 L 48.0 904.0 Z M 48.0 1030.0 " fill="#163D40"></path><g><clipPath id="clip-98"><path d="M 22.5 875.5 L 514.9 875.5 L 514.9 1055.5 L 22.5 1055.5 Z M 22.5 875.5 "></path></clipPath><g clip-path="url(#clip-98)"><text xml:space="preserve" font-family="HelveticaNeue-Light" font-size="100.0" fill="#FEFFFE" transform="matrix(1.00, 0.00, -0.00, -1.00, 52.0, 929.0)">D</text><text xml:space="preserve" font-family="HelveticaNeue-Light" font-size="100.0" fill="#FEFFFE" transform="matrix(1.00, 0.00, -0.00, -1.00, 120.5, 929.0)">O</text><text xml:space="preserve" font-family="HelveticaNeue-Light" font-size="100.0" fill="#FEFFFE" transform="matrix(1.00, 0.00, -0.00, -1.00, 194.6, 929.0)">M</text><text xml:space="preserve" font-family="HelveticaNeue-Light" font-size="100.0" fill="#FEFFFE" transform="matrix(1.00, 0.00, -0.00, -1.00, 276.7, 929.0)"> </text><text xml:space="preserve" font-family="HelveticaNeue-Light" font-size="100.0" fill="#FEFFFE" transform="matrix(1.00, 0.00, -0.00, -1.00, 304.5, 929.0)">T</text><text xml:space="preserve" font-family="HelveticaNeue-Light" font-size="100.0" fill="#FEFFFE" transform="matrix(1.00, 0.00, -0.00, -1.00, 350.9, 929.0)">r</text><text xml:space="preserve" font-family="HelveticaNeue-Light" font-size="100.0" fill="#FEFFFE" transform="matrix(1.00, 0.00, -0.00, -1.00, 380.6, 929.0)">e</text><text xml:space="preserve" font-family="HelveticaNeue-Light" font-size="100.0" fill="#FEFFFE" transform="matrix(1.00, 0.00, -0.00, -1.00, 432.5, 929.0)">e</text></g></g><g><clipPath id="clip-99"><path d="M 0.0 829.0 L 1920.0 829.0 L 1920.0 438.0 L 0.0 438.0 Z M 0.0 829.1 "></path></clipPath><g clip-path="url(#clip-99)"><image xlink:href="../../474F9368-7375-4E55-9655-A4D1845921D2/assets/1F13E1EF679AC53BE143CFEF9B00E4FF.png" width="960.00" height="195.00" transform="matrix(2.00, 0.00, -0.00, -2.01, 0.0, 829.0)"></image></g></g></g></svg>