<?xml version="1.0" encoding="UTF-8" standalone="no"?><svg xmlns="http://www.w3.org/2000/svg" xmlns:xlink="http://www.w3.org/1999/xlink" clip-rule="evenodd" stroke-miterlimit="4.00" viewBox="0 0 1920 1080"><desc>SVG generated by Keynote</desc><defs></defs><g transform="matrix(1.00, 0.00, -0.00, -1.00, 0.0, 1080.0)"><path d="M 0.0 1080.0 L 1920.0 1080.0 L 1920.0 0.0 L 0.0 0.0 Z M 0.0 1080.0 " fill="#FEFFFE"></path><g opacity="0.90"><g><clipPath id="clip-70"><path d="M 0.0 1080.0 L 1920.0 1080.0 L 1920.0 0.0 L 0.0 0.0 Z M 0.0 1080.0 "></path></clipPath><g clip-path="url(#clip-70)"><g><clipPath id="clip-71"><path d="M 0.0 0.0 L 1920.0 0.0 L 1920.0 1080.0 L 0.0 1080.0 Z M 0.0 0.0 "></path></clipPath><g clip-path="url(#clip-71)"><image xlink:href="7226ADC89E06211495377F96DC0E7820.jpeg" width="1365.00" height="574.00" transform="matrix(1.88, 0.00, -0.00, -1.88, -322.0, 1080.0)"></image></g></g></g></g><g><clipPath id="clip-72"><path d="M 0.0 0.0 L 1920.0 0.0 L 1920.0 1080.0 L 0.0 1080.0 Z M 0.0 0.0 "></path></clipPath><g clip-path="url(#clip-72)"><image xlink:href="89CD752E0B33FA2004FD45474B782F7A.png" width="1928.00" height="1088.00" transform="matrix(1.00, 0.00, -0.00, 1.00, -4.0, -4.0)"></image></g></g></g><path d="M 57.9 1026.4 L 344.8 1026.4 L 344.8 900.3 L 57.9 900.3 Z M 57.9 1026.4 " fill="#163D40"></path><g><clipPath id="clip-73"><path d="M 32.4 871.9 L 370.3 871.9 L 370.3 1051.9 L 32.4 1051.9 Z M 32.4 871.9 "></path></clipPath><g clip-path="url(#clip-73)"><text xml:space="preserve" font-family="HelveticaNeue-Light" font-size="100.0" fill="#FEFFFE" transform="matrix(1.00, 0.00, -0.00, -1.00, 62.0, 926.0)">P</text><text xml:space="preserve" font-family="HelveticaNeue-Light" font-size="100.0" fill="#FEFFFE" transform="matrix(1.00, 0.00, -0.00, -1.00, 125.0, 926.0)">a</text><text xml:space="preserve" font-family="HelveticaNeue-Light" font-size="100.0" fill="#FEFFFE" transform="matrix(1.00, 0.00, -0.00, -1.00, 176.9, 926.0)">r</text><text xml:space="preserve" font-family="HelveticaNeue-Light" font-size="100.0" fill="#FEFFFE" transform="matrix(1.00, 0.00, -0.00, -1.00, 208.4, 926.0)">s</text><text xml:space="preserve" font-family="HelveticaNeue-Light" font-size="100.0" fill="#FEFFFE" transform="matrix(1.00, 0.00, -0.00, -1.00, 256.5, 926.0)">e</text><text xml:space="preserve" font-family="HelveticaNeue-Light" font-size="100.0" fill="#FEFFFE" transform="matrix(1.00, 0.00, -0.00, -1.00, 308.4, 926.0)">r</text></g></g></g></svg>