<?xml version="1.0" encoding="UTF-8" standalone="no"?><svg xmlns="http://www.w3.org/2000/svg" xmlns:xlink="http://www.w3.org/1999/xlink" clip-rule="evenodd" stroke-miterlimit="4.00" viewBox="0 0 620 861"><desc>SVG generated by Keynote</desc><defs></defs><g transform="matrix(1.00, 0.00, -0.00, -1.00, 0.0, 861.0)"><g><clipPath id="clip-53"><path d="M 0.4 0.9 L 0.4 860.1 L 115.1 860.1 L 115.1 0.9 Z M 0.4 0.9 "></path></clipPath><g clip-path="url(#clip-53)"><image xlink:href="EF264EDB5E2DACB9577E4511C53FBDBC.png" width="427.00" height="57.00" transform="matrix(-0.00, 2.01, 2.01, 0.00, 0.4, 0.9)"></image></g></g><g><clipPath id="clip-54"><path d="M 126.4 0.9 L 126.4 860.1 L 241.1 860.1 L 241.1 0.9 Z M 126.4 0.9 "></path></clipPath><g clip-path="url(#clip-54)"><image xlink:href="../../DA6D4C3E-3EC7-46EC-B5B9-2A81930D9AF7/assets/EF264EDB5E2DACB9577E4511C53FBDBC.png" width="427.00" height="57.00" transform="matrix(-0.00, 2.01, 2.01, 0.00, 126.4, 0.9)"></image></g></g><g><clipPath id="clip-55"><path d="M 252.4 0.9 L 252.4 860.1 L 367.1 860.1 L 367.1 0.9 Z M 252.4 0.9 "></path></clipPath><g clip-path="url(#clip-55)"><image xlink:href="../../DA6D4C3E-3EC7-46EC-B5B9-2A81930D9AF7/assets/EF264EDB5E2DACB9577E4511C53FBDBC.png" width="427.00" height="57.00" transform="matrix(-0.00, 2.01, 2.01, 0.00, 252.4, 0.9)"></image></g></g><g><clipPath id="clip-56"><path d="M 378.4 0.9 L 378.4 860.1 L 493.1 860.1 L 493.1 0.9 Z M 378.4 0.9 "></path></clipPath><g clip-path="url(#clip-56)"><image xlink:href="../../DA6D4C3E-3EC7-46EC-B5B9-2A81930D9AF7/assets/EF264EDB5E2DACB9577E4511C53FBDBC.png" width="427.00" height="57.00" transform="matrix(-0.00, 2.01, 2.01, 0.00, 378.4, 0.9)"></image></g></g><g><clipPath id="clip-57"><path d="M 504.4 0.9 L 504.4 860.1 L 619.1 860.1 L 619.1 0.9 Z M 504.4 0.9 "></path></clipPath><g clip-path="url(#clip-57)"><image xlink:href="../../DA6D4C3E-3EC7-46EC-B5B9-2A81930D9AF7/assets/EF264EDB5E2DACB9577E4511C53FBDBC.png" width="427.00" height="57.00" transform="matrix(-0.00, 2.01, 2.01, 0.00, 504.4, 0.9)"></image></g></g><g><clipPath id="clip-58"><path d="M 23.3 359.2 L 596.2 359.2 L 596.2 586.8 L 23.3 586.8 Z M 23.3 359.2 "></path></clipPath><g clip-path="url(#clip-58)"><path d="M 24.3 585.8 L 595.2 585.8 L 595.2 360.2 L 24.3 360.2 Z M 24.3 585.8 " fill="#4AB822"></path></g></g><g><clipPath id="clip-59"><path d="M 13.6 360.2 L 606.0 360.2 L 606.0 585.8 L 13.6 585.8 Z M 13.6 360.2 "></path></clipPath><g clip-path="url(#clip-59)"><text xml:space="preserve" font-family="HelveticaNeue-Light" font-size="50.0" fill="#FFFFFF" transform="matrix(1.00, 0.00, -0.00, -1.00, 151.0, 514.0)">T</text><text xml:space="preserve" font-family="HelveticaNeue-Light" font-size="50.0" fill="#FFFFFF" transform="matrix(1.00, 0.00, -0.00, -1.00, 174.2, 514.0)">r</text><text xml:space="preserve" font-family="HelveticaNeue-Light" font-size="50.0" fill="#FFFFFF" transform="matrix(1.00, 0.00, -0.00, -1.00, 189.9, 514.0)">a</text><text xml:space="preserve" font-family="HelveticaNeue-Light" font-size="50.0" fill="#FFFFFF" transform="matrix(1.00, 0.00, -0.00, -1.00, 215.9, 514.0)">n</text><text xml:space="preserve" font-family="HelveticaNeue-Light" font-size="50.0" fill="#FFFFFF" transform="matrix(1.00, 0.00, -0.00, -1.00, 242.8, 514.0)">s</text><text xml:space="preserve" font-family="HelveticaNeue-Light" font-size="50.0" fill="#FFFFFF" transform="matrix(1.00, 0.00, -0.00, -1.00, 266.8, 514.0)">f</text><text xml:space="preserve" font-family="HelveticaNeue-Light" font-size="50.0" fill="#FFFFFF" transform="matrix(1.00, 0.00, -0.00, -1.00, 279.8, 514.0)">o</text><text xml:space="preserve" font-family="HelveticaNeue-Light" font-size="50.0" fill="#FFFFFF" transform="matrix(1.00, 0.00, -0.00, -1.00, 307.6, 514.0)">r</text><text xml:space="preserve" font-family="HelveticaNeue-Light" font-size="50.0" fill="#FFFFFF" transform="matrix(1.00, 0.00, -0.00, -1.00, 323.3, 514.0)">m</text><text xml:space="preserve" font-family="HelveticaNeue-Light" font-size="50.0" fill="#FFFFFF" transform="matrix(1.00, 0.00, -0.00, -1.00, 365.0, 514.0)">e</text><text xml:space="preserve" font-family="HelveticaNeue-Light" font-size="50.0" fill="#FFFFFF" transform="matrix(1.00, 0.00, -0.00, -1.00, 390.9, 514.0)">r</text><text xml:space="preserve" font-family="HelveticaNeue-Light" font-size="50.0" fill="#FFFFFF" transform="matrix(1.00, 0.00, -0.00, -1.00, 406.7, 514.0)">(</text><text xml:space="preserve" font-family="HelveticaNeue-Light" font-size="50.0" fill="#FFFFFF" transform="matrix(1.00, 0.00, -0.00, -1.00, 418.7, 514.0)">s</text><text xml:space="preserve" font-family="HelveticaNeue-Light" font-size="50.0" fill="#FFFFFF" transform="matrix(1.00, 0.00, -0.00, -1.00, 442.8, 514.0)">)</text><text xml:space="preserve" font-family="HelveticaNeue-Light" font-size="50.0" fill="#FFFFFF" transform="matrix(1.00, 0.00, -0.00, -1.00, 454.8, 514.0)">:</text><text xml:space="preserve" font-family="HelveticaNeue-Light" font-size="50.0" fill="#FFFFFF" transform="matrix(1.00, 0.00, -0.00, -1.00, 468.7, 514.0)"> </text><text xml:space="preserve" font-family="HelveticaNeue-Light" font-size="50.0" fill="#FFFFFF" transform="matrix(1.00, 0.00, -0.00, -1.00, 181.0, 454.0)">A</text><text xml:space="preserve" font-family="HelveticaNeue-Light" font-size="50.0" fill="#FFFFFF" transform="matrix(1.00, 0.00, -0.00, -1.00, 212.5, 454.0)">S</text><text xml:space="preserve" font-family="HelveticaNeue-Light" font-size="50.0" fill="#FFFFFF" transform="matrix(1.00, 0.00, -0.00, -1.00, 244.0, 454.0)">T</text><text xml:space="preserve" font-family="HelveticaNeue-Light" font-size="50.0" fill="#FFFFFF" transform="matrix(1.00, 0.00, -0.00, -1.00, 271.8, 454.0)"> </text><text xml:space="preserve" font-family="HelveticaNeue-Light" font-size="50.0" fill="#FFFFFF" transform="matrix(1.00, 0.00, -0.00, -1.00, 285.7, 454.0)">-</text><text xml:space="preserve" font-family="HelveticaNeue-Light" font-size="50.0" fill="#FFFFFF" transform="matrix(1.00, 0.00, -0.00, -1.00, 304.2, 454.0)">&gt;</text><text xml:space="preserve" font-family="HelveticaNeue-Light" font-size="50.0" fill="#FFFFFF" transform="matrix(1.00, 0.00, -0.00, -1.00, 334.2, 454.0)"> </text><text xml:space="preserve" font-family="HelveticaNeue-Light" font-size="50.0" fill="#FFFFFF" transform="matrix(1.00, 0.00, -0.00, -1.00, 348.1, 454.0)">A</text><text xml:space="preserve" font-family="HelveticaNeue-Light" font-size="50.0" fill="#FFFFFF" transform="matrix(1.00, 0.00, -0.00, -1.00, 379.6, 454.0)">S</text><text xml:space="preserve" font-family="HelveticaNeue-Light" font-size="50.0" fill="#FFFFFF" transform="matrix(1.00, 0.00, -0.00, -1.00, 411.1, 454.0)">T</text><text xml:space="preserve" font-family="HelveticaNeue-Light" font-size="50.0" fill="#FFFFFF" transform="matrix(1.00, 0.00, -0.00, -1.00, 438.9, 454.0)"> </text><text xml:space="preserve" font-family="HelveticaNeue-Light" font-size="50.0" fill="#FFFFFF" transform="matrix(1.00, 0.00, -0.00, -1.00, 131.0, 394.0)">(</text><text xml:space="preserve" font-family="HelveticaNeue-Light" font-size="50.0" fill="#FFFFFF" transform="matrix(1.00, 0.00, -0.00, -1.00, 143.1, 394.0)">P</text><text xml:space="preserve" font-family="HelveticaNeue-Light" font-size="50.0" fill="#FFFFFF" transform="matrix(1.00, 0.00, -0.00, -1.00, 174.6, 394.0)">l</text><text xml:space="preserve" font-family="HelveticaNeue-Light" font-size="50.0" fill="#FFFFFF" transform="matrix(1.00, 0.00, -0.00, -1.00, 183.8, 394.0)">u</text><text xml:space="preserve" font-family="HelveticaNeue-Light" font-size="50.0" fill="#FFFFFF" transform="matrix(1.00, 0.00, -0.00, -1.00, 210.7, 394.0)">g</text><text xml:space="preserve" font-family="HelveticaNeue-Light" font-size="50.0" fill="#FFFFFF" transform="matrix(1.00, 0.00, -0.00, -1.00, 238.4, 394.0)">i</text><text xml:space="preserve" font-family="HelveticaNeue-Light" font-size="50.0" fill="#FFFFFF" transform="matrix(1.00, 0.00, -0.00, -1.00, 247.7, 394.0)">n</text><text xml:space="preserve" font-family="HelveticaNeue-Light" font-size="50.0" fill="#FFFFFF" transform="matrix(1.00, 0.00, -0.00, -1.00, 274.6, 394.0)">s</text><text xml:space="preserve" font-family="HelveticaNeue-Light" font-size="50.0" fill="#FFFFFF" transform="matrix(1.00, 0.00, -0.00, -1.00, 298.6, 394.0)">/</text><text xml:space="preserve" font-family="HelveticaNeue-Light" font-size="50.0" fill="#FFFFFF" transform="matrix(1.00, 0.00, -0.00, -1.00, 315.2, 394.0)">P</text><text xml:space="preserve" font-family="HelveticaNeue-Light" font-size="50.0" fill="#FFFFFF" transform="matrix(1.00, 0.00, -0.00, -1.00, 346.8, 394.0)">r</text><text xml:space="preserve" font-family="HelveticaNeue-Light" font-size="50.0" fill="#FFFFFF" transform="matrix(1.00, 0.00, -0.00, -1.00, 361.6, 394.0)">e</text><text xml:space="preserve" font-family="HelveticaNeue-Light" font-size="50.0" fill="#FFFFFF" transform="matrix(1.00, 0.00, -0.00, -1.00, 387.6, 394.0)">s</text><text xml:space="preserve" font-family="HelveticaNeue-Light" font-size="50.0" fill="#FFFFFF" transform="matrix(1.00, 0.00, -0.00, -1.00, 411.6, 394.0)">e</text><text xml:space="preserve" font-family="HelveticaNeue-Light" font-size="50.0" fill="#FFFFFF" transform="matrix(1.00, 0.00, -0.00, -1.00, 437.6, 394.0)">t</text><text xml:space="preserve" font-family="HelveticaNeue-Light" font-size="50.0" fill="#FFFFFF" transform="matrix(1.00, 0.00, -0.00, -1.00, 452.4, 394.0)">s</text><text xml:space="preserve" font-family="HelveticaNeue-Light" font-size="50.0" fill="#FFFFFF" transform="matrix(1.00, 0.00, -0.00, -1.00, 476.4, 394.0)">)</text><text xml:space="preserve" font-family="HelveticaNeue-Light" font-size="50.0" fill="#FFFFFF" transform="matrix(1.00, 0.00, -0.00, -1.00, 488.5, 394.0)"> </text></g></g></g></svg>