<?xml version="1.0" encoding="UTF-8" standalone="no"?><svg xmlns="http://www.w3.org/2000/svg" xmlns:xlink="http://www.w3.org/1999/xlink" clip-rule="evenodd" stroke-miterlimit="4.00" viewBox="0 0 673 91"><desc>SVG generated by Keynote</desc><defs></defs><g transform="matrix(1.00, 0.00, -0.00, -1.00, 0.0, 91.0)"><g><clipPath id="clip-23"><path d="M 431.8 -4.3 L 887.6 -4.3 L 887.6 95.5 L 431.8 95.5 Z M 431.8 -4.3 "></path></clipPath><g clip-path="url(#clip-23)"><text xml:space="preserve" font-family="Menlo-Regular" font-size="34.0" fill="#D6601A" transform="matrix(1.00, 0.00, -0.00, -1.00, 442.0, 54.0)">t</text><text xml:space="preserve" font-family="Menlo-Regular" font-size="34.0" fill="#D6601A" transform="matrix(1.00, 0.00, -0.00, -1.00, 462.5, 54.0)">r</text><text xml:space="preserve" font-family="Menlo-Regular" font-size="34.0" fill="#D6601A" transform="matrix(1.00, 0.00, -0.00, -1.00, 482.9, 54.0)">u</text><text xml:space="preserve" font-family="Menlo-Regular" font-size="34.0" fill="#D6601A" transform="matrix(1.00, 0.00, -0.00, -1.00, 503.4, 54.0)">e</text><text xml:space="preserve" font-family="Menlo-Regular" font-size="34.0" fill="#6A8188" transform="matrix(1.00, 0.00, -0.00, -1.00, 523.9, 54.0)"> </text><text xml:space="preserve" font-family="Menlo-Regular" font-size="34.0" fill="#6A8188" transform="matrix(1.00, 0.00, -0.00, -1.00, 544.4, 54.0)">-</text><text xml:space="preserve" font-family="Menlo-Regular" font-size="34.0" fill="#6A8188" transform="matrix(1.00, 0.00, -0.00, -1.00, 564.8, 54.0)">&gt;</text><text xml:space="preserve" font-family="Menlo-Regular" font-size="34.0" fill="#6A8188" transform="matrix(1.00, 0.00, -0.00, -1.00, 585.3, 54.0)"> </text><text xml:space="preserve" font-family="Menlo-Regular" font-size="34.0" fill="#6A8188" transform="matrix(1.00, 0.00, -0.00, -1.00, 605.8, 54.0)">!</text><text xml:space="preserve" font-family="Menlo-Regular" font-size="34.0" fill="#6A8188" transform="matrix(1.00, 0.00, -0.00, -1.00, 626.2, 54.0)">0</text><text xml:space="preserve" font-family="Menlo-Regular" font-size="34.0" fill="#000000" transform="matrix(1.00, 0.00, -0.00, -1.00, 646.7, 54.0)"> </text><text xml:space="preserve" font-family="Menlo-Regular" font-size="34.0" fill="#D6601A" transform="matrix(1.00, 0.00, -0.00, -1.00, 442.0, 14.0)">f</text><text xml:space="preserve" font-family="Menlo-Regular" font-size="34.0" fill="#D6601A" transform="matrix(1.00, 0.00, -0.00, -1.00, 462.5, 14.0)">a</text><text xml:space="preserve" font-family="Menlo-Regular" font-size="34.0" fill="#D6601A" transform="matrix(1.00, 0.00, -0.00, -1.00, 482.9, 14.0)">l</text><text xml:space="preserve" font-family="Menlo-Regular" font-size="34.0" fill="#D6601A" transform="matrix(1.00, 0.00, -0.00, -1.00, 503.4, 14.0)">s</text><text xml:space="preserve" font-family="Menlo-Regular" font-size="34.0" fill="#D6601A" transform="matrix(1.00, 0.00, -0.00, -1.00, 523.9, 14.0)">e</text><text xml:space="preserve" font-family="Menlo-Regular" font-size="34.0" fill="#6A8188" transform="matrix(1.00, 0.00, -0.00, -1.00, 544.3, 14.0)"> </text><text xml:space="preserve" font-family="Menlo-Regular" font-size="34.0" fill="#6A8188" transform="matrix(1.00, 0.00, -0.00, -1.00, 564.8, 14.0)">-</text><text xml:space="preserve" font-family="Menlo-Regular" font-size="34.0" fill="#6A8188" transform="matrix(1.00, 0.00, -0.00, -1.00, 585.3, 14.0)">&gt;</text><text xml:space="preserve" font-family="Menlo-Regular" font-size="34.0" fill="#6A8188" transform="matrix(1.00, 0.00, -0.00, -1.00, 605.8, 14.0)"> </text><text xml:space="preserve" font-family="Menlo-Regular" font-size="34.0" fill="#6A8188" transform="matrix(1.00, 0.00, -0.00, -1.00, 626.2, 14.0)">!</text><text xml:space="preserve" font-family="Menlo-Regular" font-size="34.0" fill="#6A8188" transform="matrix(1.00, 0.00, -0.00, -1.00, 646.7, 14.0)">1</text></g></g><g><clipPath id="clip-24"><path d="M -4.5 14.5 L 165.3 14.5 L 165.3 75.8 L -4.5 75.8 Z M -4.5 14.5 "></path></clipPath><g clip-path="url(#clip-24)"><text xml:space="preserve" font-family="HelveticaNeue-Bold" font-weight="bold" font-size="34.0" fill="#000000" transform="matrix(1.00, 0.00, -0.00, -1.00, 6.0, 33.0)">b</text><text xml:space="preserve" font-family="HelveticaNeue-Bold" font-weight="bold" font-size="34.0" fill="#000000" transform="matrix(1.00, 0.00, -0.00, -1.00, 26.8, 33.0)">o</text><text xml:space="preserve" font-family="HelveticaNeue-Bold" font-weight="bold" font-size="34.0" fill="#000000" transform="matrix(1.00, 0.00, -0.00, -1.00, 47.5, 33.0)">o</text><text xml:space="preserve" font-family="HelveticaNeue-Bold" font-weight="bold" font-size="34.0" fill="#000000" transform="matrix(1.00, 0.00, -0.00, -1.00, 68.3, 33.0)">l</text><text xml:space="preserve" font-family="HelveticaNeue-Bold" font-weight="bold" font-size="34.0" fill="#000000" transform="matrix(1.00, 0.00, -0.00, -1.00, 77.1, 33.0)">e</text><text xml:space="preserve" font-family="HelveticaNeue-Bold" font-weight="bold" font-size="34.0" fill="#000000" transform="matrix(1.00, 0.00, -0.00, -1.00, 96.6, 33.0)">a</text><text xml:space="preserve" font-family="HelveticaNeue-Bold" font-weight="bold" font-size="34.0" fill="#000000" transform="matrix(1.00, 0.00, -0.00, -1.00, 116.1, 33.0)">n</text><text xml:space="preserve" font-family="HelveticaNeue-Bold" font-weight="bold" font-size="34.0" fill="#000000" transform="matrix(1.00, 0.00, -0.00, -1.00, 136.3, 33.0)">s</text></g></g></g></svg>