<?xml version="1.0" encoding="UTF-8" standalone="no"?><svg xmlns="http://www.w3.org/2000/svg" xmlns:xlink="http://www.w3.org/1999/xlink" clip-rule="evenodd" stroke-miterlimit="4.00" viewBox="0 0 1247 51"><desc>SVG generated by Keynote</desc><defs></defs><g transform="matrix(1.00, 0.00, -0.00, -1.00, 0.0, 51.0)"><g><clipPath id="clip-27"><path d="M -4.5 -5.6 L 262.2 -5.6 L 262.2 55.7 L -4.5 55.7 Z M -4.5 -5.6 "></path></clipPath><g clip-path="url(#clip-27)"><text xml:space="preserve" font-family="HelveticaNeue-Bold" font-weight="bold" font-size="34.0" fill="#000000" transform="matrix(1.00, 0.00, -0.00, -1.00, 6.0, 13.0)">v</text><text xml:space="preserve" font-family="HelveticaNeue-Bold" font-weight="bold" font-size="34.0" fill="#000000" transform="matrix(1.00, 0.00, -0.00, -1.00, 23.7, 13.0)">a</text><text xml:space="preserve" font-family="HelveticaNeue-Bold" font-weight="bold" font-size="34.0" fill="#000000" transform="matrix(1.00, 0.00, -0.00, -1.00, 43.2, 13.0)">r</text><text xml:space="preserve" font-family="HelveticaNeue-Bold" font-weight="bold" font-size="34.0" fill="#000000" transform="matrix(1.00, 0.00, -0.00, -1.00, 56.4, 13.0)">i</text><text xml:space="preserve" font-family="HelveticaNeue-Bold" font-weight="bold" font-size="34.0" fill="#000000" transform="matrix(1.00, 0.00, -0.00, -1.00, 65.2, 13.0)">a</text><text xml:space="preserve" font-family="HelveticaNeue-Bold" font-weight="bold" font-size="34.0" fill="#000000" transform="matrix(1.00, 0.00, -0.00, -1.00, 84.7, 13.0)">b</text><text xml:space="preserve" font-family="HelveticaNeue-Bold" font-weight="bold" font-size="34.0" fill="#000000" transform="matrix(1.00, 0.00, -0.00, -1.00, 105.5, 13.0)">l</text><text xml:space="preserve" font-family="HelveticaNeue-Bold" font-weight="bold" font-size="34.0" fill="#000000" transform="matrix(1.00, 0.00, -0.00, -1.00, 114.3, 13.0)">e</text><text xml:space="preserve" font-family="HelveticaNeue-Bold" font-weight="bold" font-size="34.0" fill="#000000" transform="matrix(1.00, 0.00, -0.00, -1.00, 133.8, 13.0)"> </text><text xml:space="preserve" font-family="HelveticaNeue-Bold" font-weight="bold" font-size="34.0" fill="#000000" transform="matrix(1.00, 0.00, -0.00, -1.00, 143.2, 13.0)">n</text><text xml:space="preserve" font-family="HelveticaNeue-Bold" font-weight="bold" font-size="34.0" fill="#000000" transform="matrix(1.00, 0.00, -0.00, -1.00, 163.4, 13.0)">a</text><text xml:space="preserve" font-family="HelveticaNeue-Bold" font-weight="bold" font-size="34.0" fill="#000000" transform="matrix(1.00, 0.00, -0.00, -1.00, 182.9, 13.0)">m</text><text xml:space="preserve" font-family="HelveticaNeue-Bold" font-weight="bold" font-size="34.0" fill="#000000" transform="matrix(1.00, 0.00, -0.00, -1.00, 213.7, 13.0)">e</text><text xml:space="preserve" font-family="HelveticaNeue-Bold" font-weight="bold" font-size="34.0" fill="#000000" transform="matrix(1.00, 0.00, -0.00, -1.00, 233.2, 13.0)">s</text></g></g><g><clipPath id="clip-28"><path d="M 431.8 -4.4 L 1250.9 -4.4 L 1250.9 55.4 L 431.8 55.4 Z M 431.8 -4.4 "></path></clipPath><g clip-path="url(#clip-28)"><text xml:space="preserve" font-family="Menlo-Regular" font-size="34.0" fill="#D6601A" transform="matrix(1.00, 0.00, -0.00, -1.00, 442.0, 14.0)">v</text><text xml:space="preserve" font-family="Menlo-Regular" font-size="34.0" fill="#D6601A" transform="matrix(1.00, 0.00, -0.00, -1.00, 462.5, 14.0)">a</text><text xml:space="preserve" font-family="Menlo-Regular" font-size="34.0" fill="#D6601A" transform="matrix(1.00, 0.00, -0.00, -1.00, 482.9, 14.0)">r</text><text xml:space="preserve" font-family="Menlo-Regular" font-size="34.0" fill="#000000" transform="matrix(1.00, 0.00, -0.00, -1.00, 503.4, 14.0)"> </text><text xml:space="preserve" font-family="Menlo-Regular" font-size="34.0" fill="#778D95" transform="matrix(1.00, 0.00, -0.00, -1.00, 523.9, 14.0)">l</text><text xml:space="preserve" font-family="Menlo-Regular" font-size="34.0" fill="#778D95" transform="matrix(1.00, 0.00, -0.00, -1.00, 544.4, 14.0)">o</text><text xml:space="preserve" font-family="Menlo-Regular" font-size="34.0" fill="#778D95" transform="matrix(1.00, 0.00, -0.00, -1.00, 564.8, 14.0)">n</text><text xml:space="preserve" font-family="Menlo-Regular" font-size="34.0" fill="#778D95" transform="matrix(1.00, 0.00, -0.00, -1.00, 585.3, 14.0)">g</text><text xml:space="preserve" font-family="Menlo-Regular" font-size="34.0" fill="#778D95" transform="matrix(1.00, 0.00, -0.00, -1.00, 605.8, 14.0)">V</text><text xml:space="preserve" font-family="Menlo-Regular" font-size="34.0" fill="#778D95" transform="matrix(1.00, 0.00, -0.00, -1.00, 626.2, 14.0)">a</text><text xml:space="preserve" font-family="Menlo-Regular" font-size="34.0" fill="#778D95" transform="matrix(1.00, 0.00, -0.00, -1.00, 646.7, 14.0)">r</text><text xml:space="preserve" font-family="Menlo-Regular" font-size="34.0" fill="#778D95" transform="matrix(1.00, 0.00, -0.00, -1.00, 667.2, 14.0)">i</text><text xml:space="preserve" font-family="Menlo-Regular" font-size="34.0" fill="#778D95" transform="matrix(1.00, 0.00, -0.00, -1.00, 687.7, 14.0)">a</text><text xml:space="preserve" font-family="Menlo-Regular" font-size="34.0" fill="#778D95" transform="matrix(1.00, 0.00, -0.00, -1.00, 708.1, 14.0)">b</text><text xml:space="preserve" font-family="Menlo-Regular" font-size="34.0" fill="#778D95" transform="matrix(1.00, 0.00, -0.00, -1.00, 728.6, 14.0)">l</text><text xml:space="preserve" font-family="Menlo-Regular" font-size="34.0" fill="#778D95" transform="matrix(1.00, 0.00, -0.00, -1.00, 749.1, 14.0)">e</text><text xml:space="preserve" font-family="Menlo-Regular" font-size="34.0" fill="#778D95" transform="matrix(1.00, 0.00, -0.00, -1.00, 769.6, 14.0)">N</text><text xml:space="preserve" font-family="Menlo-Regular" font-size="34.0" fill="#778D95" transform="matrix(1.00, 0.00, -0.00, -1.00, 790.0, 14.0)">a</text><text xml:space="preserve" font-family="Menlo-Regular" font-size="34.0" fill="#778D95" transform="matrix(1.00, 0.00, -0.00, -1.00, 810.5, 14.0)">m</text><text xml:space="preserve" font-family="Menlo-Regular" font-size="34.0" fill="#778D95" transform="matrix(1.00, 0.00, -0.00, -1.00, 831.0, 14.0)">e</text><text xml:space="preserve" font-family="Menlo-Regular" font-size="34.0" fill="#000000" transform="matrix(1.00, 0.00, -0.00, -1.00, 851.4, 14.0)"> </text><text xml:space="preserve" font-family="Menlo-Regular" font-size="34.0" fill="#6A8188" transform="matrix(1.00, 0.00, -0.00, -1.00, 871.9, 14.0)">=</text><text xml:space="preserve" font-family="Menlo-Regular" font-size="34.0" fill="#000000" transform="matrix(1.00, 0.00, -0.00, -1.00, 892.3, 14.0)"> </text><text xml:space="preserve" font-family="Menlo-Regular" font-size="34.0" fill="#E5493C" transform="matrix(1.00, 0.00, -0.00, -1.00, 912.8, 14.0)">1</text><text xml:space="preserve" font-family="Menlo-Regular" font-size="34.0" fill="#6A8188" transform="matrix(1.00, 0.00, -0.00, -1.00, 933.3, 14.0)">;</text><text xml:space="preserve" font-family="Menlo-Regular" font-size="34.0" fill="#000000" transform="matrix(1.00, 0.00, -0.00, -1.00, 953.7, 14.0)"> </text><text xml:space="preserve" font-family="Menlo-Regular" font-size="34.0" fill="#000000" transform="matrix(1.00, 0.00, -0.00, -1.00, 974.2, 14.0)">-</text><text xml:space="preserve" font-family="Menlo-Regular" font-size="34.0" fill="#000000" transform="matrix(1.00, 0.00, -0.00, -1.00, 994.7, 14.0)">&gt;</text><text xml:space="preserve" font-family="Menlo-Regular" font-size="34.0" fill="#000000" transform="matrix(1.00, 0.00, -0.00, -1.00, 1015.2, 14.0)"> </text><text xml:space="preserve" font-family="Menlo-Regular" font-size="34.0" fill="#778D95" transform="matrix(1.00, 0.00, -0.00, -1.00, 1035.6, 14.0)">v</text><text xml:space="preserve" font-family="Menlo-Regular" font-size="34.0" fill="#778D95" transform="matrix(1.00, 0.00, -0.00, -1.00, 1056.1, 14.0)">a</text><text xml:space="preserve" font-family="Menlo-Regular" font-size="34.0" fill="#778D95" transform="matrix(1.00, 0.00, -0.00, -1.00, 1076.6, 14.0)">r</text><text xml:space="preserve" font-family="Menlo-Regular" font-size="34.0" fill="#000000" transform="matrix(1.00, 0.00, -0.00, -1.00, 1097.0, 14.0)"> </text><text xml:space="preserve" font-family="Menlo-Regular" font-size="34.0" fill="#778D95" transform="matrix(1.00, 0.00, -0.00, -1.00, 1117.5, 14.0)">a</text><text xml:space="preserve" font-family="Menlo-Regular" font-size="34.0" fill="#000000" transform="matrix(1.00, 0.00, -0.00, -1.00, 1138.0, 14.0)"> </text><text xml:space="preserve" font-family="Menlo-Regular" font-size="34.0" fill="#6A8188" transform="matrix(1.00, 0.00, -0.00, -1.00, 1158.4, 14.0)">=</text><text xml:space="preserve" font-family="Menlo-Regular" font-size="34.0" fill="#000000" transform="matrix(1.00, 0.00, -0.00, -1.00, 1178.9, 14.0)"> </text><text xml:space="preserve" font-family="Menlo-Regular" font-size="34.0" fill="#E5493C" transform="matrix(1.00, 0.00, -0.00, -1.00, 1199.4, 14.0)">1</text><text xml:space="preserve" font-family="Menlo-Regular" font-size="34.0" fill="#6A8188" transform="matrix(1.00, 0.00, -0.00, -1.00, 1219.8, 14.0)">;</text></g></g></g></svg>