<?xml version="1.0" encoding="UTF-8" standalone="no"?><svg xmlns="http://www.w3.org/2000/svg" xmlns:xlink="http://www.w3.org/1999/xlink" clip-rule="evenodd" stroke-miterlimit="4.00" viewBox="0 0 796 51"><desc>SVG generated by Keynote</desc><defs></defs><g transform="matrix(1.00, 0.00, -0.00, -1.00, 0.0, 51.0)"><g><clipPath id="clip-25"><path d="M -4.5 -5.6 L 279.9 -5.6 L 279.9 55.7 L -4.5 55.7 Z M -4.5 -5.6 "></path></clipPath><g clip-path="url(#clip-25)"><text xml:space="preserve" font-family="HelveticaNeue-Bold" font-weight="bold" font-size="34.0" fill="#000000" transform="matrix(1.00, 0.00, -0.00, -1.00, 6.0, 13.0)">c</text><text xml:space="preserve" font-family="HelveticaNeue-Bold" font-weight="bold" font-size="34.0" fill="#000000" transform="matrix(1.00, 0.00, -0.00, -1.00, 25.5, 13.0)">o</text><text xml:space="preserve" font-family="HelveticaNeue-Bold" font-weight="bold" font-size="34.0" fill="#000000" transform="matrix(1.00, 0.00, -0.00, -1.00, 46.3, 13.0)">n</text><text xml:space="preserve" font-family="HelveticaNeue-Bold" font-weight="bold" font-size="34.0" fill="#000000" transform="matrix(1.00, 0.00, -0.00, -1.00, 66.5, 13.0)">s</text><text xml:space="preserve" font-family="HelveticaNeue-Bold" font-weight="bold" font-size="34.0" fill="#000000" transform="matrix(1.00, 0.00, -0.00, -1.00, 84.7, 13.0)">t</text><text xml:space="preserve" font-family="HelveticaNeue-Bold" font-weight="bold" font-size="34.0" fill="#000000" transform="matrix(1.00, 0.00, -0.00, -1.00, 96.7, 13.0)">a</text><text xml:space="preserve" font-family="HelveticaNeue-Bold" font-weight="bold" font-size="34.0" fill="#000000" transform="matrix(1.00, 0.00, -0.00, -1.00, 116.2, 13.0)">n</text><text xml:space="preserve" font-family="HelveticaNeue-Bold" font-weight="bold" font-size="34.0" fill="#000000" transform="matrix(1.00, 0.00, -0.00, -1.00, 136.4, 13.0)">t</text><text xml:space="preserve" font-family="HelveticaNeue-Bold" font-weight="bold" font-size="34.0" fill="#000000" transform="matrix(1.00, 0.00, -0.00, -1.00, 148.3, 13.0)"> </text><text xml:space="preserve" font-family="HelveticaNeue-Bold" font-weight="bold" font-size="34.0" fill="#000000" transform="matrix(1.00, 0.00, -0.00, -1.00, 157.8, 13.0)">f</text><text xml:space="preserve" font-family="HelveticaNeue-Bold" font-weight="bold" font-size="34.0" fill="#000000" transform="matrix(1.00, 0.00, -0.00, -1.00, 169.1, 13.0)">o</text><text xml:space="preserve" font-family="HelveticaNeue-Bold" font-weight="bold" font-size="34.0" fill="#000000" transform="matrix(1.00, 0.00, -0.00, -1.00, 189.9, 13.0)">l</text><text xml:space="preserve" font-family="HelveticaNeue-Bold" font-weight="bold" font-size="34.0" fill="#000000" transform="matrix(1.00, 0.00, -0.00, -1.00, 198.6, 13.0)">d</text><text xml:space="preserve" font-family="HelveticaNeue-Bold" font-weight="bold" font-size="34.0" fill="#000000" transform="matrix(1.00, 0.00, -0.00, -1.00, 219.4, 13.0)">i</text><text xml:space="preserve" font-family="HelveticaNeue-Bold" font-weight="bold" font-size="34.0" fill="#000000" transform="matrix(1.00, 0.00, -0.00, -1.00, 228.2, 13.0)">n</text><text xml:space="preserve" font-family="HelveticaNeue-Bold" font-weight="bold" font-size="34.0" fill="#000000" transform="matrix(1.00, 0.00, -0.00, -1.00, 248.4, 13.0)">g</text></g></g><g><clipPath id="clip-26"><path d="M 431.8 -4.3 L 800.6 -4.3 L 800.6 55.5 L 431.8 55.5 Z M 431.8 -4.3 "></path></clipPath><g clip-path="url(#clip-26)"><text xml:space="preserve" font-family="Menlo-Regular" font-size="34.0" fill="#E5493C" transform="matrix(1.00, 0.00, -0.00, -1.00, 442.0, 14.0)">6</text><text xml:space="preserve" font-family="Menlo-Regular" font-size="34.0" fill="#E5493C" transform="matrix(1.00, 0.00, -0.00, -1.00, 462.5, 14.0)">0</text><text xml:space="preserve" font-family="Menlo-Regular" font-size="34.0" fill="#000000" transform="matrix(1.00, 0.00, -0.00, -1.00, 482.9, 14.0)"> </text><text xml:space="preserve" font-family="Menlo-Regular" font-size="34.0" fill="#6A8188" transform="matrix(1.00, 0.00, -0.00, -1.00, 503.4, 14.0)">*</text><text xml:space="preserve" font-family="Menlo-Regular" font-size="34.0" fill="#000000" transform="matrix(1.00, 0.00, -0.00, -1.00, 523.9, 14.0)"> </text><text xml:space="preserve" font-family="Menlo-Regular" font-size="34.0" fill="#E5493C" transform="matrix(1.00, 0.00, -0.00, -1.00, 544.3, 14.0)">3</text><text xml:space="preserve" font-family="Menlo-Regular" font-size="34.0" fill="#000000" transform="matrix(1.00, 0.00, -0.00, -1.00, 564.8, 14.0)"> </text><text xml:space="preserve" font-family="Menlo-Regular" font-size="34.0" fill="#000000" transform="matrix(1.00, 0.00, -0.00, -1.00, 585.3, 14.0)">-</text><text xml:space="preserve" font-family="Menlo-Regular" font-size="34.0" fill="#000000" transform="matrix(1.00, 0.00, -0.00, -1.00, 605.8, 14.0)">&gt;</text><text xml:space="preserve" font-family="Menlo-Regular" font-size="34.0" fill="#000000" transform="matrix(1.00, 0.00, -0.00, -1.00, 626.2, 14.0)"> </text><text xml:space="preserve" font-family="Menlo-Regular" font-size="34.0" fill="#E5493C" transform="matrix(1.00, 0.00, -0.00, -1.00, 646.7, 14.0)">1</text><text xml:space="preserve" font-family="Menlo-Regular" font-size="34.0" fill="#E5493C" transform="matrix(1.00, 0.00, -0.00, -1.00, 667.2, 14.0)">2</text><text xml:space="preserve" font-family="Menlo-Regular" font-size="34.0" fill="#E5493C" transform="matrix(1.00, 0.00, -0.00, -1.00, 687.6, 14.0)">0</text><text xml:space="preserve" font-family="Menlo-Regular" font-size="34.0" fill="#000000" transform="matrix(1.00, 0.00, -0.00, -1.00, 708.1, 14.0)"> </text><text xml:space="preserve" font-family="Menlo-Regular" font-size="34.0" fill="#000000" transform="matrix(1.00, 0.00, -0.00, -1.00, 728.6, 14.0)">1</text><text xml:space="preserve" font-family="Menlo-Regular" font-size="34.0" fill="#000000" transform="matrix(1.00, 0.00, -0.00, -1.00, 749.1, 14.0)">8</text><text xml:space="preserve" font-family="Menlo-Regular" font-size="34.0" fill="#000000" transform="matrix(1.00, 0.00, -0.00, -1.00, 769.5, 14.0)">0</text><path d="M 208.7 26.7 L 270.1 26.7 " fill="none" stroke="#E5493C" stroke-width="1.76" stroke-miterlimit="0.00" transform="matrix(1.00, 0.00, 0.00, -1.00, 437.7, 49.6)"></path></g></g></g></svg>