<?xml version="1.0" encoding="UTF-8" standalone="no"?><svg xmlns="http://www.w3.org/2000/svg" xmlns:xlink="http://www.w3.org/1999/xlink" clip-rule="evenodd" stroke-miterlimit="4.00" viewBox="0 0 1920 1080"><desc>SVG generated by Keynote</desc><defs></defs><g transform="matrix(1.00, 0.00, -0.00, -1.00, 0.0, 1080.0)"><path d="M 0.0 1080.0 L 1920.0 1080.0 L 1920.0 0.0 L 0.0 0.0 Z M 0.0 1080.0 " fill="#FEFFFE"></path><path d="M 0.0 0.0 L 787.6 0.0 " fill="none" stroke="#9A9A9A" stroke-width="1.00" transform="matrix(1.00, 0.00, 0.00, -1.00, 84.0, 541.0)"></path><g><clipPath id="clip-18"><path d="M 960.0 1080.0 L 1920.0 1080.0 L 1920.0 0.0 L 960.0 0.0 Z M 960.0 1080.0 "></path></clipPath><g clip-path="url(#clip-18)"><image xlink:href="9218EE5FBA9AE1DEB9FEFE562FF6DC8C.png" width="200.00" height="200.00" transform="matrix(2.67, 0.00, -0.00, -2.67, 1173.0, 807.0)"></image></g></g><text xml:space="preserve" font-family="HelveticaNeue-Light" font-size="58.0" fill="#000000" transform="matrix(1.00, 0.00, -0.00, -1.00, 146.0, 585.0)">B</text><text xml:space="preserve" font-family="HelveticaNeue-Light" font-size="58.0" fill="#000000" transform="matrix(1.00, 0.00, -0.00, -1.00, 184.7, 585.0)">a</text><text xml:space="preserve" font-family="HelveticaNeue-Light" font-size="58.0" fill="#000000" transform="matrix(1.00, 0.00, -0.00, -1.00, 214.8, 585.0)">b</text><text xml:space="preserve" font-family="HelveticaNeue-Light" font-size="58.0" fill="#000000" transform="matrix(1.00, 0.00, -0.00, -1.00, 248.1, 585.0)">e</text><text xml:space="preserve" font-family="HelveticaNeue-Light" font-size="58.0" fill="#000000" transform="matrix(1.00, 0.00, -0.00, -1.00, 278.2, 585.0)">l</text><text xml:space="preserve" font-family="HelveticaNeue-Light" font-size="58.0" fill="#000000" transform="matrix(1.00, 0.00, -0.00, -1.00, 288.9, 585.0)">:</text><text xml:space="preserve" font-family="HelveticaNeue-Light" font-size="58.0" fill="#000000" transform="matrix(1.00, 0.00, -0.00, -1.00, 305.0, 585.0)"> </text><text xml:space="preserve" font-family="HelveticaNeue-Light" font-size="58.0" fill="#000000" transform="matrix(1.00, 0.00, -0.00, -1.00, 321.2, 585.0)">“</text><text xml:space="preserve" font-family="HelveticaNeue-Light" font-size="58.0" fill="#000000" transform="matrix(1.00, 0.00, -0.00, -1.00, 342.6, 585.0)">u</text><text xml:space="preserve" font-family="HelveticaNeue-Light" font-size="58.0" fill="#000000" transform="matrix(1.00, 0.00, -0.00, -1.00, 373.8, 585.0)">s</text><text xml:space="preserve" font-family="HelveticaNeue-Light" font-size="58.0" fill="#000000" transform="matrix(1.00, 0.00, -0.00, -1.00, 401.7, 585.0)">e</text><text xml:space="preserve" font-family="HelveticaNeue-Light" font-size="58.0" fill="#000000" transform="matrix(1.00, 0.00, -0.00, -1.00, 431.8, 585.0)">l</text><text xml:space="preserve" font-family="HelveticaNeue-Light" font-size="58.0" fill="#000000" transform="matrix(1.00, 0.00, -0.00, -1.00, 442.5, 585.0)">e</text><text xml:space="preserve" font-family="HelveticaNeue-Light" font-size="58.0" fill="#000000" transform="matrix(1.00, 0.00, -0.00, -1.00, 472.6, 585.0)">s</text><text xml:space="preserve" font-family="HelveticaNeue-Light" font-size="58.0" fill="#000000" transform="matrix(1.00, 0.00, -0.00, -1.00, 500.5, 585.0)">s</text><text xml:space="preserve" font-family="HelveticaNeue-Light" font-size="58.0" fill="#000000" transform="matrix(1.00, 0.00, -0.00, -1.00, 528.4, 585.0)"> </text><text xml:space="preserve" font-family="HelveticaNeue-Light" font-size="58.0" fill="#000000" transform="matrix(1.00, 0.00, -0.00, -1.00, 544.5, 585.0)">b</text><text xml:space="preserve" font-family="HelveticaNeue-Light" font-size="58.0" fill="#000000" transform="matrix(1.00, 0.00, -0.00, -1.00, 577.8, 585.0)">y</text><text xml:space="preserve" font-family="HelveticaNeue-Light" font-size="58.0" fill="#000000" transform="matrix(1.00, 0.00, -0.00, -1.00, 604.7, 585.0)"> </text><text xml:space="preserve" font-family="HelveticaNeue-Light" font-size="58.0" fill="#000000" transform="matrix(1.00, 0.00, -0.00, -1.00, 620.8, 585.0)">d</text><text xml:space="preserve" font-family="HelveticaNeue-Light" font-size="58.0" fill="#000000" transform="matrix(1.00, 0.00, -0.00, -1.00, 654.1, 585.0)">e</text><text xml:space="preserve" font-family="HelveticaNeue-Light" font-size="58.0" fill="#000000" transform="matrix(1.00, 0.00, -0.00, -1.00, 684.2, 585.0)">f</text><text xml:space="preserve" font-family="HelveticaNeue-Light" font-size="58.0" fill="#000000" transform="matrix(1.00, 0.00, -0.00, -1.00, 699.2, 585.0)">a</text><text xml:space="preserve" font-family="HelveticaNeue-Light" font-size="58.0" fill="#000000" transform="matrix(1.00, 0.00, -0.00, -1.00, 729.3, 585.0)">u</text><text xml:space="preserve" font-family="HelveticaNeue-Light" font-size="58.0" fill="#000000" transform="matrix(1.00, 0.00, -0.00, -1.00, 760.5, 585.0)">l</text><text xml:space="preserve" font-family="HelveticaNeue-Light" font-size="58.0" fill="#000000" transform="matrix(1.00, 0.00, -0.00, -1.00, 771.2, 585.0)">t</text><text xml:space="preserve" font-family="HelveticaNeue-Light" font-size="58.0" fill="#000000" transform="matrix(1.00, 0.00, -0.00, -1.00, 788.4, 585.0)">”</text><text xml:space="preserve" font-family="Menlo-Regular" font-size="40.0" fill="#D6601A" transform="matrix(1.00, 0.00, -0.00, -1.00, 163.0, 471.0)">c</text><text xml:space="preserve" font-family="Menlo-Regular" font-size="40.0" fill="#D6601A" transform="matrix(1.00, 0.00, -0.00, -1.00, 187.1, 471.0)">o</text><text xml:space="preserve" font-family="Menlo-Regular" font-size="40.0" fill="#D6601A" transform="matrix(1.00, 0.00, -0.00, -1.00, 211.2, 471.0)">n</text><text xml:space="preserve" font-family="Menlo-Regular" font-size="40.0" fill="#D6601A" transform="matrix(1.00, 0.00, -0.00, -1.00, 235.3, 471.0)">s</text><text xml:space="preserve" font-family="Menlo-Regular" font-size="40.0" fill="#D6601A" transform="matrix(1.00, 0.00, -0.00, -1.00, 259.3, 471.0)">t</text><text xml:space="preserve" font-family="Menlo-Regular" font-size="40.0" fill="#000000" transform="matrix(1.00, 0.00, -0.00, -1.00, 283.4, 471.0)"> </text><text xml:space="preserve" font-family="Menlo-Regular" font-size="40.0" fill="#778D95" transform="matrix(1.00, 0.00, -0.00, -1.00, 307.5, 471.0)">b</text><text xml:space="preserve" font-family="Menlo-Regular" font-size="40.0" fill="#778D95" transform="matrix(1.00, 0.00, -0.00, -1.00, 331.6, 471.0)">a</text><text xml:space="preserve" font-family="Menlo-Regular" font-size="40.0" fill="#778D95" transform="matrix(1.00, 0.00, -0.00, -1.00, 355.7, 471.0)">b</text><text xml:space="preserve" font-family="Menlo-Regular" font-size="40.0" fill="#778D95" transform="matrix(1.00, 0.00, -0.00, -1.00, 379.8, 471.0)">e</text><text xml:space="preserve" font-family="Menlo-Regular" font-size="40.0" fill="#778D95" transform="matrix(1.00, 0.00, -0.00, -1.00, 403.8, 471.0)">l</text><text xml:space="preserve" font-family="Menlo-Regular" font-size="40.0" fill="#000000" transform="matrix(1.00, 0.00, -0.00, -1.00, 427.9, 471.0)"> </text><text xml:space="preserve" font-family="Menlo-Regular" font-size="40.0" fill="#6A8188" transform="matrix(1.00, 0.00, -0.00, -1.00, 452.0, 471.0)">=</text><text xml:space="preserve" font-family="Menlo-Regular" font-size="40.0" fill="#000000" transform="matrix(1.00, 0.00, -0.00, -1.00, 476.1, 471.0)"> </text><text xml:space="preserve" font-family="Menlo-Regular" font-size="40.0" fill="#778D95" transform="matrix(1.00, 0.00, -0.00, -1.00, 500.1, 471.0)">c</text><text xml:space="preserve" font-family="Menlo-Regular" font-size="40.0" fill="#778D95" transform="matrix(1.00, 0.00, -0.00, -1.00, 524.2, 471.0)">o</text><text xml:space="preserve" font-family="Menlo-Regular" font-size="40.0" fill="#778D95" transform="matrix(1.00, 0.00, -0.00, -1.00, 548.3, 471.0)">d</text><text xml:space="preserve" font-family="Menlo-Regular" font-size="40.0" fill="#778D95" transform="matrix(1.00, 0.00, -0.00, -1.00, 572.4, 471.0)">e</text><text xml:space="preserve" font-family="Menlo-Regular" font-size="40.0" fill="#000000" transform="matrix(1.00, 0.00, -0.00, -1.00, 596.5, 471.0)"> </text><text xml:space="preserve" font-family="Menlo-Regular" font-size="40.0" fill="#6A8188" transform="matrix(1.00, 0.00, -0.00, -1.00, 620.6, 471.0)">=</text><text xml:space="preserve" font-family="Menlo-Regular" font-size="40.0" fill="#6A8188" transform="matrix(1.00, 0.00, -0.00, -1.00, 644.6, 471.0)">&gt;</text><text xml:space="preserve" font-family="Menlo-Regular" font-size="40.0" fill="#000000" transform="matrix(1.00, 0.00, -0.00, -1.00, 668.7, 471.0)"> </text><text xml:space="preserve" font-family="Menlo-Regular" font-size="40.0" fill="#778D95" transform="matrix(1.00, 0.00, -0.00, -1.00, 692.8, 471.0)">c</text><text xml:space="preserve" font-family="Menlo-Regular" font-size="40.0" fill="#778D95" transform="matrix(1.00, 0.00, -0.00, -1.00, 716.9, 471.0)">o</text><text xml:space="preserve" font-family="Menlo-Regular" font-size="40.0" fill="#778D95" transform="matrix(1.00, 0.00, -0.00, -1.00, 741.0, 471.0)">d</text><text xml:space="preserve" font-family="Menlo-Regular" font-size="40.0" fill="#778D95" transform="matrix(1.00, 0.00, -0.00, -1.00, 765.1, 471.0)">e</text><text xml:space="preserve" font-family="Menlo-Regular" font-size="40.0" fill="#6A8188" transform="matrix(1.00, 0.00, -0.00, -1.00, 789.1, 471.0)">;</text><text xml:space="preserve" font-family="Menlo-Regular" font-size="40.0" fill="#6A8188" transform="matrix(1.00, 0.00, -0.00, -1.00, 813.2, 471.0)"> </text><text xml:space="preserve" font-family="Menlo-Regular" font-size="40.0" fill="#6A8188" transform="matrix(1.00, 0.00, -0.00, -1.00, 403.0, 379.0)">$</text><text xml:space="preserve" font-family="Menlo-Regular" font-size="40.0" fill="#6A8188" transform="matrix(1.00, 0.00, -0.00, -1.00, 427.1, 379.0)">(</text><text xml:space="preserve" font-family="Menlo-Regular" font-size="40.0" fill="#D6601A" transform="matrix(1.00, 0.00, -0.00, -1.00, 451.2, 379.0)">"</text><text xml:space="preserve" font-family="Menlo-Regular" font-size="40.0" fill="#D6601A" transform="matrix(1.00, 0.00, -0.00, -1.00, 475.3, 379.0)">a</text><text xml:space="preserve" font-family="Menlo-Regular" font-size="40.0" fill="#D6601A" transform="matrix(1.00, 0.00, -0.00, -1.00, 499.3, 379.0)">"</text><text xml:space="preserve" font-family="Menlo-Regular" font-size="40.0" fill="#6A8188" transform="matrix(1.00, 0.00, -0.00, -1.00, 523.4, 379.0)">)</text><text xml:space="preserve" font-family="Menlo-Regular" font-size="40.0" fill="#6A8188" transform="matrix(1.00, 0.00, -0.00, -1.00, 547.5, 379.0)">;</text></g></svg>