<?xml version="1.0" encoding="UTF-8" standalone="no"?><svg xmlns="http://www.w3.org/2000/svg" xmlns:xlink="http://www.w3.org/1999/xlink" clip-rule="evenodd" stroke-miterlimit="4.00" viewBox="0 0 1284 360"><desc>SVG generated by Keynote</desc><defs></defs><g transform="matrix(1.00, 0.00, -0.00, -1.00, 0.0, 360.0)"><g><clipPath id="clip-1"><path d="M 625.0 360.0 L 945.0 360.0 L 945.0 0.0 L 625.0 0.0 Z M 625.5 359.6 "></path></clipPath><g clip-path="url(#clip-1)"><g><clipPath id="clip-2"><path d="M 625.5 0.4 L 944.7 0.4 L 944.7 359.6 L 625.5 359.6 Z M 625.5 0.4 "></path></clipPath><g clip-path="url(#clip-2)"><image xlink:href="EA447E2997AFE42E4D255FCB4F54BE26.jpeg" width="259.00" height="259.00" transform="matrix(1.00, 0.00, -0.00, -1.00, 656.0, 309.0)"></image></g></g></g></g><g><clipPath id="clip-3"><path d="M -4.6 83.8 L 796.4 83.8 L 796.4 180.2 L -4.6 180.2 Z M -4.6 83.8 "></path></clipPath><g clip-path="url(#clip-3)"><text xml:space="preserve" font-family="HelveticaNeue" font-size="36.0" fill="#747373" transform="matrix(1.00, 0.00, -0.00, -1.00, 317.0, 119.0)">@</text><text xml:space="preserve" font-family="HelveticaNeue" font-size="36.0" fill="#747373" transform="matrix(1.00, 0.00, -0.00, -1.00, 345.8, 119.0)">l</text><text xml:space="preserve" font-family="HelveticaNeue" font-size="36.0" fill="#747373" transform="matrix(1.00, 0.00, -0.00, -1.00, 353.8, 119.0)">e</text><text xml:space="preserve" font-family="HelveticaNeue" font-size="36.0" fill="#747373" transform="matrix(1.00, 0.00, -0.00, -1.00, 373.1, 119.0)">f</text><text xml:space="preserve" font-family="HelveticaNeue" font-size="36.0" fill="#747373" transform="matrix(1.00, 0.00, -0.00, -1.00, 383.8, 119.0)">t</text><text xml:space="preserve" font-family="HelveticaNeue" font-size="36.0" fill="#747373" transform="matrix(1.00, 0.00, -0.00, -1.00, 395.1, 119.0)">_</text><text xml:space="preserve" font-family="HelveticaNeue" font-size="36.0" fill="#747373" transform="matrix(1.00, 0.00, -0.00, -1.00, 413.1, 119.0)">p</text><text xml:space="preserve" font-family="HelveticaNeue" font-size="36.0" fill="#747373" transform="matrix(1.00, 0.00, -0.00, -1.00, 434.5, 119.0)">a</text><text xml:space="preserve" font-family="HelveticaNeue" font-size="36.0" fill="#747373" transform="matrix(1.00, 0.00, -0.00, -1.00, 453.8, 119.0)">d</text></g></g><g><clipPath id="clip-4"><path d="M -10.0 168.8 L 801.8 168.8 L 801.8 265.6 L -10.0 265.6 Z M -10.0 168.8 "></path></clipPath><g clip-path="url(#clip-4)"><text xml:space="preserve" font-family="HelveticaNeue-Light" font-size="53.9" fill="#000000" transform="matrix(1.00, 0.00, -0.00, -1.00, 317.0, 198.0)">@</text><text xml:space="preserve" font-family="HelveticaNeue-Light" font-size="53.9" fill="#000000" transform="matrix(1.00, 0.00, -0.00, -1.00, 360.2, 198.0)">h</text><text xml:space="preserve" font-family="HelveticaNeue-Light" font-size="53.9" fill="#000000" transform="matrix(1.00, 0.00, -0.00, -1.00, 389.1, 198.0)">z</text><text xml:space="preserve" font-family="HelveticaNeue-Light" font-size="53.9" fill="#000000" transform="matrix(1.00, 0.00, -0.00, -1.00, 414.1, 198.0)">o</text><text xml:space="preserve" font-family="HelveticaNeue-Light" font-size="53.9" fill="#000000" transform="matrix(1.00, 0.00, -0.00, -1.00, 444.1, 198.0)">o</text></g></g><g><clipPath id="clip-5"><path d="M 223.2 181.7 L 295.2 181.7 L 295.2 253.7 L 223.2 253.7 Z M 223.2 181.7 "></path></clipPath><g clip-path="url(#clip-5)"><image xlink:href="F66EB123ED267653C76DAF279459EC52.png" width="60.00" height="60.00" transform="matrix(1.20, 0.00, -0.00, -1.20, 223.0, 254.0)"></image></g></g><g><clipPath id="clip-6"><path d="M 223.2 96.0 L 295.2 96.0 L 295.2 168.0 L 223.2 168.0 Z M 223.2 96.0 "></path></clipPath><g clip-path="url(#clip-6)"><image xlink:href="3B125C228CBF4E53E3FFA439988BDE4E.png" width="60.00" height="60.00" transform="matrix(1.20, 0.00, -0.00, -1.20, 223.0, 168.0)"></image></g></g><g><clipPath id="clip-7"><path d="M 1062.6 69.5 L 1283.6 69.5 L 1283.6 290.5 L 1062.6 290.5 Z M 1062.6 69.5 "></path></clipPath><g clip-path="url(#clip-7)"><image xlink:href="7630756E1C907731644C697B3F0EECD9.jpeg" width="221.00" height="221.00" transform="matrix(1.00, 0.00, -0.00, -1.00, 1063.0, 290.0)"></image></g></g></g></svg>