<?xml version="1.0" encoding="UTF-8" standalone="no"?><svg xmlns="http://www.w3.org/2000/svg" xmlns:xlink="http://www.w3.org/1999/xlink" clip-rule="evenodd" stroke-miterlimit="4.00" viewBox="0 0 304 51"><desc>SVG generated by Keynote</desc><defs></defs><g transform="matrix(1.00, 0.00, -0.00, -1.00, 0.0, 51.0)"><text xml:space="preserve" font-family="HelveticaNeue-Light" font-size="50.0" fill="#000000" transform="matrix(1.00, 0.00, -0.00, -1.00, 2.0, 12.0)">W</text><text xml:space="preserve" font-family="HelveticaNeue-Light" font-size="50.0" fill="#000000" transform="matrix(1.00, 0.00, -0.00, -1.00, 46.5, 12.0)">r</text><text xml:space="preserve" font-family="HelveticaNeue-Light" font-size="50.0" fill="#000000" transform="matrix(1.00, 0.00, -0.00, -1.00, 62.2, 12.0)">i</text><text xml:space="preserve" font-family="HelveticaNeue-Light" font-size="50.0" fill="#000000" transform="matrix(1.00, 0.00, -0.00, -1.00, 71.5, 12.0)">t</text><text xml:space="preserve" font-family="HelveticaNeue-Light" font-size="50.0" fill="#000000" transform="matrix(1.00, 0.00, -0.00, -1.00, 86.2, 12.0)">i</text><text xml:space="preserve" font-family="HelveticaNeue-Light" font-size="50.0" fill="#000000" transform="matrix(1.00, 0.00, -0.00, -1.00, 95.5, 12.0)">n</text><text xml:space="preserve" font-family="HelveticaNeue-Light" font-size="50.0" fill="#000000" transform="matrix(1.00, 0.00, -0.00, -1.00, 122.3, 12.0)">g</text><text xml:space="preserve" font-family="HelveticaNeue-Light" font-size="50.0" fill="#000000" transform="matrix(1.00, 0.00, -0.00, -1.00, 150.2, 12.0)"> </text><text xml:space="preserve" font-family="HelveticaNeue-Light" font-size="50.0" fill="#000000" transform="matrix(1.00, 0.00, -0.00, -1.00, 164.1, 12.0)">j</text><text xml:space="preserve" font-family="HelveticaNeue-Light" font-size="50.0" fill="#000000" transform="matrix(1.00, 0.00, -0.00, -1.00, 173.3, 12.0)">Q</text><text xml:space="preserve" font-family="HelveticaNeue-Light" font-size="50.0" fill="#000000" transform="matrix(1.00, 0.00, -0.00, -1.00, 210.4, 12.0)">u</text><text xml:space="preserve" font-family="HelveticaNeue-Light" font-size="50.0" fill="#000000" transform="matrix(1.00, 0.00, -0.00, -1.00, 237.2, 12.0)">e</text><text xml:space="preserve" font-family="HelveticaNeue-Light" font-size="50.0" fill="#000000" transform="matrix(1.00, 0.00, -0.00, -1.00, 263.2, 12.0)">r</text><text xml:space="preserve" font-family="HelveticaNeue-Light" font-size="50.0" fill="#000000" transform="matrix(1.00, 0.00, -0.00, -1.00, 278.9, 12.0)">y</text></g></svg>