<?xml version="1.0" encoding="UTF-8" standalone="no"?><svg xmlns="http://www.w3.org/2000/svg" xmlns:xlink="http://www.w3.org/1999/xlink" clip-rule="evenodd" stroke-miterlimit="4.00" viewBox="0 0 1920 1080"><desc>SVG generated by Keynote</desc><defs></defs><g transform="matrix(1.00, 0.00, -0.00, -1.00, 0.0, 1080.0)"><path d="M 0.0 1080.0 L 1920.0 1080.0 L 1920.0 0.0 L 0.0 0.0 Z M 0.0 1080.0 " fill="#FEFFFE"></path><g><clipPath id="clip-91"><path d="M 0.0 1080.0 L 1920.0 1080.0 L 1920.0 0.0 L 0.0 0.0 Z M 0.0 1080.0 "></path></clipPath><g clip-path="url(#clip-91)"><image xlink:href="../../71280D6E-FE18-43DE-9D77-33AF0B99E740/assets/015A0C7BFDD42A2399039CF9076D7C58.jpeg" width="1365.00" height="768.00" transform="matrix(1.41, 0.00, -0.00, -1.41, 0.0, 1080.0)"></image></g></g><g><clipPath id="clip-92"><path d="M 0.0 1080.0 L 1920.0 1080.0 L 1920.0 0.0 L 0.0 0.0 Z M 0.0 1080.0 "></path></clipPath><g clip-path="url(#clip-92)"><image xlink:href="../../71280D6E-FE18-43DE-9D77-33AF0B99E740/assets/015A0C7BFDD42A2399039CF9076D7C58.jpeg" width="1365.00" height="768.00" transform="matrix(1.41, 0.00, -0.00, -1.41, 0.0, 1080.0)"></image></g></g><path d="M 39.8 1037.0 L 502.9 1037.0 L 502.9 911.0 L 39.8 911.0 Z M 39.8 1037.0 " fill="#163D40"></path><g><clipPath id="clip-93"><path d="M 14.3 882.5 L 528.4 882.5 L 528.4 1062.5 L 14.3 1062.5 Z M 14.3 882.5 "></path></clipPath><g clip-path="url(#clip-93)"><text xml:space="preserve" font-family="HelveticaNeue-Light" font-size="100.0" fill="#FEFFFE" transform="matrix(1.00, 0.00, -0.00, -1.00, 44.0, 936.0)">P</text><text xml:space="preserve" font-family="HelveticaNeue-Light" font-size="100.0" fill="#FEFFFE" transform="matrix(1.00, 0.00, -0.00, -1.00, 107.0, 936.0)">a</text><text xml:space="preserve" font-family="HelveticaNeue-Light" font-size="100.0" fill="#FEFFFE" transform="matrix(1.00, 0.00, -0.00, -1.00, 158.9, 936.0)">r</text><text xml:space="preserve" font-family="HelveticaNeue-Light" font-size="100.0" fill="#FEFFFE" transform="matrix(1.00, 0.00, -0.00, -1.00, 190.4, 936.0)">s</text><text xml:space="preserve" font-family="HelveticaNeue-Light" font-size="100.0" fill="#FEFFFE" transform="matrix(1.00, 0.00, -0.00, -1.00, 238.5, 936.0)">e</text><text xml:space="preserve" font-family="HelveticaNeue-Light" font-size="100.0" fill="#FEFFFE" transform="matrix(1.00, 0.00, -0.00, -1.00, 290.4, 936.0)"> </text><text xml:space="preserve" font-family="HelveticaNeue-Light" font-size="100.0" fill="#FEFFFE" transform="matrix(1.00, 0.00, -0.00, -1.00, 318.2, 936.0)">T</text><text xml:space="preserve" font-family="HelveticaNeue-Light" font-size="100.0" fill="#FEFFFE" transform="matrix(1.00, 0.00, -0.00, -1.00, 364.6, 936.0)">r</text><text xml:space="preserve" font-family="HelveticaNeue-Light" font-size="100.0" fill="#FEFFFE" transform="matrix(1.00, 0.00, -0.00, -1.00, 394.3, 936.0)">e</text><text xml:space="preserve" font-family="HelveticaNeue-Light" font-size="100.0" fill="#FEFFFE" transform="matrix(1.00, 0.00, -0.00, -1.00, 446.2, 936.0)">e</text></g></g><text xml:space="preserve" font-family="HelveticaNeue-Light" font-size="50.0" fill="#3A3B4F" transform="matrix(1.00, 0.00, -0.00, -1.00, 1306.0, 829.0)">P</text><text xml:space="preserve" font-family="HelveticaNeue-Light" font-size="50.0" fill="#3A3B4F" transform="matrix(1.00, 0.00, -0.00, -1.00, 1337.5, 829.0)">a</text><text xml:space="preserve" font-family="HelveticaNeue-Light" font-size="50.0" fill="#3A3B4F" transform="matrix(1.00, 0.00, -0.00, -1.00, 1363.5, 829.0)">r</text><text xml:space="preserve" font-family="HelveticaNeue-Light" font-size="50.0" fill="#3A3B4F" transform="matrix(1.00, 0.00, -0.00, -1.00, 1379.2, 829.0)">s</text><text xml:space="preserve" font-family="HelveticaNeue-Light" font-size="50.0" fill="#3A3B4F" transform="matrix(1.00, 0.00, -0.00, -1.00, 1403.2, 829.0)">e</text><text xml:space="preserve" font-family="HelveticaNeue-Light" font-size="50.0" fill="#3A3B4F" transform="matrix(1.00, 0.00, -0.00, -1.00, 1429.2, 829.0)">y</text><text xml:space="preserve" font-family="HelveticaNeue-Light" font-size="50.0" fill="#3A3B4F" transform="matrix(1.00, 0.00, -0.00, -1.00, 1452.3, 829.0)"> </text><text xml:space="preserve" font-family="HelveticaNeue-Light" font-size="50.0" fill="#3A3B4F" transform="matrix(1.00, 0.00, -0.00, -1.00, 1466.2, 829.0)">M</text><text xml:space="preserve" font-family="HelveticaNeue-Light" font-size="50.0" fill="#3A3B4F" transform="matrix(1.00, 0.00, -0.00, -1.00, 1507.3, 829.0)">c</text><text xml:space="preserve" font-family="HelveticaNeue-Light" font-size="50.0" fill="#3A3B4F" transform="matrix(1.00, 0.00, -0.00, -1.00, 1533.2, 829.0)">P</text><text xml:space="preserve" font-family="HelveticaNeue-Light" font-size="50.0" fill="#3A3B4F" transform="matrix(1.00, 0.00, -0.00, -1.00, 1564.8, 829.0)">a</text><text xml:space="preserve" font-family="HelveticaNeue-Light" font-size="50.0" fill="#3A3B4F" transform="matrix(1.00, 0.00, -0.00, -1.00, 1590.7, 829.0)">r</text><text xml:space="preserve" font-family="HelveticaNeue-Light" font-size="50.0" fill="#3A3B4F" transform="matrix(1.00, 0.00, -0.00, -1.00, 1606.5, 829.0)">s</text><text xml:space="preserve" font-family="HelveticaNeue-Light" font-size="50.0" fill="#3A3B4F" transform="matrix(1.00, 0.00, -0.00, -1.00, 1630.5, 829.0)">e</text><text xml:space="preserve" font-family="HelveticaNeue-Light" font-size="50.0" fill="#3A3B4F" transform="matrix(1.00, 0.00, -0.00, -1.00, 1656.5, 829.0)">f</text><text xml:space="preserve" font-family="HelveticaNeue-Light" font-size="50.0" fill="#3A3B4F" transform="matrix(1.00, 0.00, -0.00, -1.00, 1669.4, 829.0)">a</text><text xml:space="preserve" font-family="HelveticaNeue-Light" font-size="50.0" fill="#3A3B4F" transform="matrix(1.00, 0.00, -0.00, -1.00, 1695.3, 829.0)">c</text><text xml:space="preserve" font-family="HelveticaNeue-Light" font-size="50.0" fill="#3A3B4F" transform="matrix(1.00, 0.00, -0.00, -1.00, 1721.3, 829.0)">e</text><image xlink:href="../../71280D6E-FE18-43DE-9D77-33AF0B99E740/assets/2BBABE4EC54CDCEB7C86B4AA6E4B83C6.png" width="1365.00" height="292.00" transform="matrix(1.17, 0.00, -0.00, -1.17, 160.0, 788.0)"></image><image xlink:href="../../71280D6E-FE18-43DE-9D77-33AF0B99E740/assets/811A167AE4C3057B1CC41498599C368E.png" width="522.00" height="288.00" transform="matrix(1.00, 0.00, -0.00, -1.00, 714.0, 397.0)"></image></g></svg>